{
.appVersion = "3260";
.formatVersion = 3;
DisplayStrings = (
A
);
axes = (
{
default = 100;
name = Weight;
tag = wght;
}
);
customParameters = (
{
name = vendorID;
value = NONE;
},
{
name = panose;
value = (
0,
0,
0,
0,
0,
0,
0,
0,
0,
0
);
},
{
name = unicodeRanges;
value = (
0,
1,
2,
3,
4,
5,
6,
7,
9,
29,
31,
32,
33,
35,
36,
38,
45,
60,
62
);
},
{
name = fsType;
value = (
);
},
{
name = glyphOrder;
value = (
.notdef,
A,
Aacute,
Abreve,
uni1EAE,
uni1EB6,
uni1EB0,
uni1EB2,
uni1EB4,
Acircumflex,
uni1EA4,
uni1EAC,
uni1EA6,
uni1EA8,
uni1EAA,
uni0200,
Adieresis,
uni1EA0,
Agrave,
uni1EA2,
uni0202,
Amacron,
Aogonek,
Aring,
Aringacute,
Atilde,
AE,
AEacute,
B,
C,
Cacute,
Ccaron,
Ccedilla,
uni1E08,
Ccircumflex,
Cdotaccent,
D,
Eth,
Dcaron,
Dcroat,
uni1E0C,
uni1E0E,
E,
Eacute,
Ebreve,
Ecaron,
uni1E1C,
Ecircumflex,
uni1EBE,
uni1EC6,
uni1EC0,
uni1EC2,
uni1EC4,
uni0204,
Edieresis,
Edotaccent,
uni1EB8,
Egrave,
uni1EBA,
uni0206,
Emacron,
uni1E16,
uni1E14,
Eogonek,
uni1EBC,
F,
G,
Gbreve,
Gcaron,
Gcircumflex,
uni0122,
Gdotaccent,
uni1E20,
H,
Hbar,
uni1E2A,
Hcircumflex,
uni1E24,
I,
Iacute,
Ibreve,
Icircumflex,
uni0208,
Idieresis,
uni1E2E,
Idotaccent,
uni1ECA,
Igrave,
uni1EC8,
uni020A,
Imacron,
Iogonek,
Itilde,
J,
Jcircumflex,
K,
uni0136,
L,
Lacute,
Lcaron,
uni013B,
Ldot,
uni1E36,
uni1E3A,
Lslash,
M,
uni1E42,
N,
Nacute,
Ncaron,
uni0145,
uni1E44,
uni1E46,
Eng,
uni1E48,
Ntilde,
O,
Oacute,
Obreve,
Ocircumflex,
uni1ED0,
uni1ED8,
uni1ED2,
uni1ED4,
uni1ED6,
uni020C,
Odieresis,
uni022A,
uni0230,
uni1ECC,
Ograve,
uni1ECE,
Ohorn,
uni1EDA,
uni1EE2,
uni1EDC,
uni1EDE,
uni1EE0,
Ohungarumlaut,
uni020E,
Omacron,
uni1E52,
uni1E50,
uni01EA,
Oslash,
Oslashacute,
Otilde,
uni1E4C,
uni1E4E,
uni022C,
OE,
P,
Thorn,
Q,
R,
Racute,
Rcaron,
uni0156,
uni0210,
uni1E5A,
uni0212,
uni1E5E,
S,
Sacute,
uni1E64,
Scaron,
uni1E66,
Scedilla,
Scircumflex,
uni0218,
uni1E60,
uni1E62,
uni1E68,
uni1E9E,
uni018F,
T,
Tbar,
Tcaron,
uni0162,
uni021A,
uni1E6C,
uni1E6E,
U,
Uacute,
Ubreve,
Ucircumflex,
uni0214,
Udieresis,
uni1EE4,

glyphs = (
{
glyphname = .notdef;
layers = (
{
layerId = m01;
shapes = (
{
closed = 1;
nodes = (
(558,710,o),
(540,710,qs),
(69,710,ls),
(50,710,o),
(50,687,qs),
(50,25,ls),
(50,12,o),
(61,0,o),
(77,0,qs),
(525,0,ls),
(558,0,o),
(558,29,qs),
(558,689,ls)
);
},
{
closed = 1;
nodes = (
(478,50,qs),
(125,50,ls),
(112,50,o),
(102,61,o),
(102,71,qs),
(102,641,ls),
(102,660,o),
(118,660,qs),
(491,660,ls),
(506,660,o),
(506,642,qs),
(506,74,ls),
(506,50,o)
);
},
{
closed = 1;
nodes = (
(123,696,l),
(71,669,l),
(478,28,l),
(538,33,l)
);
}
);
width = 608;
},
{
layerId = "D2DF310C-5735-4FF3-9903-0538932FD5C7";
shapes = (
{
closed = 1;
nodes = (
(558,710,o),
(540,710,qs),
(69,710,ls),
(50,710,o),
(50,687,qs),
(50,25,ls),
(50,12,o),
(61,0,o),
(77,0,qs),
(525,0,ls),
(558,0,o),
(558,29,qs),
(558,689,ls)
);
},
{
closed = 1;
nodes = (
(478,50,qs),
(125,50,ls),
(112,50,o),
(102,61,o),
(102,71,qs),
(102,641,ls),
(102,660,o),
(118,660,qs),
(491,660,ls),
(506,660,o),
(506,642,qs),
(506,74,ls),
(506,50,o)
);
},
{
closed = 1;
nodes = (
(123,696,l),
(71,669,l),
(478,28,l),
(538,33,l)
);
}
);
width = 608;
},
{
layerId = "F0331135-C9C8-4C09-BCAA-87CFA41CFCF0";
shapes = (
{
closed = 1;
nodes = (
(558,710,o),
(540,710,qs),
(69,710,ls),
(50,710,o),
(50,687,qs),
(50,25,ls),
(50,12,o),
(61,0,o),
(77,0,qs),
(525,0,ls),
(558,0,o),
(558,29,qs),
(558,689,ls)
);
},
{
closed = 1;
nodes = (
(478,50,qs),
(125,50,ls),
(112,50,o),
(102,61,o),
(102,71,qs),
(102,641,ls),
(102,660,o),
(118,660,qs),
(491,660,ls),
(506,660,o),
(506,642,qs),
(506,74,ls),
(506,50,o)
);
},
{
closed = 1;
nodes = (
(123,696,l),
(71,669,l),
(478,28,l),
(538,33,l)
);
}
);
width = 608;
}
);
note = .notdef;
},
{
glyphname = A;
kernLeft = A;
kernRight = A;
lastChange = "2024-11-26 09:13:44 +0000";
layers = (
{
layerId = m01;
shapes = (
{
closed = 1;
nodes = (
(240,459,l),
(337,681,l),
(513,274,l),
(305,274,l),
(314,254,l),
(522,254,l),
(633,0,l),
(655,0,l),
(346,710,l),
(328,710,l),
(229,484,l)
);
},
{
closed = 0;
nodes = (
(189,450,l)
);
},
{
closed = 1;
nodes = (
(139,277,l),
(18,0,l),
(40,0,l),
(151,254,l),
(229,0,l),
(251,0,l),
(166,273,l),
(166,277,l)
);
}
);
userData = {
assembly = "NPUSHB[ ]	/* 39 values pushed */
8 4 3 9 3 10 5 6 9 6 0 1 2 3 4 5 6 7 8 9 10 11 12 11 9 4 5 5 8 10 10 0 3 7 8 114 0 2 114
SVTCA[0]	/* SetFreedomAndProjectionVectorToAxis */
CALL[ ]	/* CallFunction */
CALL[ ]	/* CallFunction */
SHP[0]	/* ShiftPointByLastPoint */
SRP2[ ]	/* SetRefPoint2 */
IP[ ]	/* InterpolatePts */
MDAP[1]	/* MoveDirectAbsPt */
SHP[1]	/* ShiftPointByLastPoint */
SHP[1]	/* ShiftPointByLastPoint */
SRP1[ ]	/* SetRefPoint1 */
SHP[1]	/* ShiftPointByLastPoint */
IP[ ]	/* InterpolatePts */
SRP1[ ]	/* SetRefPoint1 */
SRP2[ ]	/* SetRefPoint2 */
SVTCA[1]	/* SetFreedomAndProjectionVectorToAxis */
SLOOP[ ]	/* SetLoopVariable */
IP[ ]	/* InterpolatePts */
SRP0[ ]	/* SetRefPoint0 */
SPVTL[1]	/* SetPVectorToLine */
ALIGNRP[ ]	/* AlignRelativePt */
ALIGNRP[ ]	/* AlignRelativePt */
SRP0[ ]	/* SetRefPoint0 */
SPVTL[1]	/* SetPVectorToLine */
ALIGNRP[ ]	/* AlignRelativePt */
ALIGNRP[ ]	/* AlignRelativePt */
IUP[0]	/* InterpolateUntPts */
IUP[1]	/* InterpolateUntPts */";
};
width = 674;
},
{
layerId = "D2DF310C-5735-4FF3-9903-0538932FD5C7";
shapes = (
{
closed = 1;
nodes = (
(106,0,l),
(189,208,l),
(487,208,l),
(571,0,l),
(667,0,l),
(377,710,l),
(301,710,l),
(10,0,l)
);
},
{
closed = 1;
nodes = (
(339,606,l),
(467,278,l),
(207,278,l)
);
}
);
width = 677;
},
{
layerId = "F0331135-C9C8-4C09-BCAA-87CFA41CFCF0";
shapes = (
{
closed = 1;
nodes = (
(197,0,l),
(239,139,l),
(428,139,l),
(471,0,l),
(669,0,l),
(443,710,l),
(225,710,l),
(-2,0,l)
);
},
{
closed = 1;
nodes = (
(334,519,l),
(397,269,l),
(268,269,l)
);
}
);
width = 667;
}
);
note = A;
unicode = 65;
},
{
glyphname = Aringacute;
kernLeft = A;
kernRight = A;
layers = (
{
layerId = m01;
shapes = (
{
closed = 1;
nodes = (
(401,930,l),
(337,857,l),
(353,845,l),
(435,930,l)
);
},
{
closed = 1;
nodes = (
(40,0,l),
(151,254,l),
(522,254,l),
(633,0,l),
(655,0,l),
(346,710,l),
(328,710,l),
(18,0,l)
);
},
{
closed = 1;
nodes = (
(337,681,l),
(513,274,l),
(159,274,l)
);
},
{
closed = 1;
nodes = (
(306,709,o),
(337,709,qs),
(369,709,o),
(412,753,o),
(412,784,qs),
(412,816,o),
(369,859,o),
(337,859,qs),
(306,859,o),
(262,816,o),
(262,784,qs),
(262,753,o)
);
},
{
closed = 1;
nodes = (
(391,809,o),
(391,784,qs),
(391,760,o),
(357,730,o),
(337,730,qs),
(315,730,o),
(283,762,o),
(283,784,qs),
(283,809,o),
(315,838,o),
(337,838,qs),
(359,838,o)
);
}
);
userData = {
assembly = "NPUSHB[ ]	/* 44 values pushed */
8 12 13 7 9 14 13 10 13 4 5 7 8 9 10 14 13 12 9 11 6 11 12 14 14 8 9 9 4 11 8 7 8 2 0 27 18 18 33 24 24 13 4 2
SVTCA[0]	/* SetFreedomAndProjectionVectorToAxis */
MIAP[1]	/* MoveIndirectAbsPt */
SHP[1]	/* ShiftPointByLastPoint */
SHP[1]	/* ShiftPointByLastPoint */
SRP1[ ]	/* SetRefPoint1 */
SHP[1]	/* ShiftPointByLastPoint */
SHP[1]	/* ShiftPointByLastPoint */
SRP1[ ]	/* SetRefPoint1 */
SHP[1]	/* ShiftPointByLastPoint */
SHP[1]	/* ShiftPointByLastPoint */
SHP[0]	/* ShiftPointByLastPoint */
MIAP[1]	/* MoveIndirectAbsPt */
MIAP[1]	/* MoveIndirectAbsPt */
SRP2[ ]	/* SetRefPoint2 */
IP[ ]	/* InterpolatePts */
MDAP[1]	/* MoveDirectAbsPt */
SHP[1]	/* ShiftPointByLastPoint */
SHP[1]	/* ShiftPointByLastPoint */
SRP1[ ]	/* SetRefPoint1 */
SHP[1]	/* ShiftPointByLastPoint */
SVTCA[1]	/* SetFreedomAndProjectionVectorToAxis */
MDAP[1]	/* MoveDirectAbsPt */
MDAP[1]	/* MoveDirectAbsPt */
SRP2[ ]	/* SetRefPoint2 */
SLOOP[ ]	/* SetLoopVariable */
IP[ ]	/* InterpolatePts */
SRP0[ ]	/* SetRefPoint0 */
SPVTL[1]	/* SetPVectorToLine */
ALIGNRP[ ]	/* AlignRelativePt */
ALIGNRP[ ]	/* AlignRelativePt */
SPVTL[1]	/* SetPVectorToLine */
ALIGNRP[ ]	/* AlignRelativePt */
ALIGNRP[ ]	/* AlignRelativePt */
IUP[0]	/* InterpolateUntPts */
IUP[1]	/* InterpolateUntPts */";
};
width = 674;
},
{
layerId = "D2DF310C-5735-4FF3-9903-0538932FD5C7";
shapes = (
{
closed = 1;
nodes = (
(368,934,l),
(310,838,l),
(368,819,l),
(456,934,l)
);
},
{
closed = 1;
nodes = (
(106,0,l),
(189,208,l),
(487,208,l),
(571,0,l),
(667,0,l),
(377,710,l),
(301,710,l),
(10,0,l)
);
},
{
closed = 1;
nodes = (
(339,606,l),
(467,278,l),
(207,278,l)
);
},
{
closed = 1;
nodes = (
(298,684,o),
(339,684,qs),
(381,684,o),
(434,731,o),
(434,770,qs),
(434,810,o),
(381,858,o),
(339,858,qs),
(298,858,o),
(244,810,o),
(244,770,qs),
(244,731,o)
);
},
{
closed = 1;
nodes = (
(387,793,o),
(387,770,qs),
(387,749,o),
(358,723,o),
(339,723,qs),
(319,723,o),
(292,750,o),
(292,770,qs),
(292,793,o),
(320,818,o),
(339,818,qs),
(359,818,o)
);
}
);
width = 677;
},
{
layerId = "F0331135-C9C8-4C09-BCAA-87CFA41CFCF0";
shapes = (
{
closed = 1;
nodes = (
(302,935,l),
(252,811,l),
(372,783,l),
(471,935,l)
);
},
{
closed = 1;
nodes = (
(197,0,l),
(239,139,l),
(428,139,l),
(471,0,l),
(669,0,l),
(443,710,l),
(225,710,l),
(-2,0,l)
);
},
{
closed = 1;
nodes = (
(334,519,l),
(397,269,l),
(268,269,l)
);
},
{
closed = 1;
nodes = (
(281,657,o),
(334,657,qs),
(387,657,o),
(451,708,o),
(451,751,qs),
(451,795,o),
(387,845,o),
(334,845,qs),
(281,845,o),
(217,795,o),
(217,751,qs),
(217,708,o)
);
},
{
closed = 1;
nodes = (
(374,766,o),
(374,752,qs),
(374,737,o),
(351,713,o),
(334,713,qs),
(317,713,o),
(294,737,o),
(294,752,qs),
(294,766,o),
(317,789,o),
(334,789,qs),
(351,789,o)
);
}
);
width = 667;
}
);
note = Aringacute;
unicode = 506;
},
{
glyphname = AE;
kernLeft = AE;
kernRight = AE;
layers = (
{
layerId = m01;
shapes = (
{
closed = 1;
nodes = (
(-4,0,l),
(163,254,l),
(444,254,l),
(444,0,l),
(910,0,l),
(910,20,l),
(464,20,l),
(464,353,l),
(847,353,l),
(847,373,l),
(464,373,l),
(464,690,l),
(901,690,l),
(901,710,l),
(439,710,l),
(-29,0,l)
);
},
{
closed = 1;
nodes = (
(444,678,l),
(444,274,l),
(175,274,l)
);
}
);
userData = {
assembly = "NPUSHB[ ]	/* 22 values pushed */
8 11 11 15 18 13 4 7 13 7 13 7 0 15 8 114 17 3 3 0 2 114
SVTCA[0]	/* SetFreedomAndProjectionVectorToAxis */
CALL[ ]	/* CallFunction */
SHP[0]	/* ShiftPointByLastPoint */
SRP1[ ]	/* SetRefPoint1 */
SHP[1]	/* ShiftPointByLastPoint */
CALL[ ]	/* CallFunction */
SRP2[ ]	/* SetRefPoint2 */
IP[ ]	/* InterpolatePts */
IP[ ]	/* InterpolatePts */
MDAP[1]	/* MoveDirectAbsPt */
MDAP[1]	/* MoveDirectAbsPt */
SRP1[ ]	/* SetRefPoint1 */
SHP[1]	/* ShiftPointByLastPoint */
SRP1[ ]	/* SetRefPoint1 */
SHP[1]	/* ShiftPointByLastPoint */
SRP1[ ]	/* SetRefPoint1 */
SHP[1]	/* ShiftPointByLastPoint */
SRP1[ ]	/* SetRefPoint1 */
SHP[1]	/* ShiftPointByLastPoint */
IUP[0]	/* InterpolateUntPts */
IUP[1]	/* InterpolateUntPts */";
};
width = 962;
},
{
layerId = "D2DF310C-5735-4FF3-9903-0538932FD5C7";
shapes = (
{
closed = 1;
nodes = (
(73,0,l),
(203,208,l),
(452,208,l),
(452,0,l),
(925,0,l),
(925,80,l),
(541,80,l),
(541,322,l),
(862,322,l),
(862,402,l),
(541,402,l),
(541,630,l),
(916,630,l),
(916,710,l),
(428,710,l),
(-25,0,l)
);
},
{
closed = 1;
nodes = (
(446,605,l),
(446,288,l),
(243,288,l)
);
}
);
width = 961;
},
{
layerId = "F0331135-C9C8-4C09-BCAA-87CFA41CFCF0";
shapes = (
{
closed = 1;
nodes = (
(180,0,l),
(255,139,l),
(456,139,l),
(456,0,l),
(941,0,l),
(941,170,l),
(650,170,l),
(650,276,l),
(878,276,l),
(878,446,l),
(650,446,l),
(650,540,l),
(932,540,l),
(932,710,l),
(405,710,l),
(-26,0,l)
);
},
{
closed = 1;
nodes = (
(441,495,l),
(441,309,l),
(337,309,l)
);
}
);
width = 971;
}
);
note = AE;
unicode = 198;
},
{
glyphname = B;
kernLeft = B;
layers = (
{
layerId = m01;
shapes = (
{
closed = 1;
nodes = (
(534,346,o),
(473,364,q),
(520,385,o),
(575,475,o),
(575,529,qs),
(575,574,o),
(536,657,o),
(463,710,o),
(413,710,qs),
(99,710,l),
(99,0,l),
(428,0,ls),
(477,0,o),
(557,51,o),
(605,135,o),
(605,184,qs),
(605,245,o)
);
},
{
closed = 1;
nodes = (
(543,68,o),
(472,20,o),
(428,20,qs),
(119,20,l),
(119,348,l),
(435,348,ls),
(478,348,o),
(546,301,o),
(585,227,o),
(585,184,qs),
(585,143,o)
);
},
{
closed = 1;
nodes = (
(455,690,o),
(519,645,o),
(555,572,o),
(555,529,qs),
(555,490,o),
(517,416,o),
(451,368,o),
(407,368,qs),
(119,368,l),
(119,690,l),
(413,690,ls)
);
}
);
userData = {
assembly = "NPUSHB[ ]	/* 14 values pushed */
14 29 29 22 22 5 28 6 2 114 23 5 8 114
SVTCA[0]	/* SetFreedomAndProjectionVectorToAxis */
CALL[ ]	/* CallFunction */
SHP[0]	/* ShiftPointByLastPoint */
CALL[ ]	/* CallFunction */
SHP[0]	/* ShiftPointByLastPoint */
SRP1[ ]	/* SetRefPoint1 */
IP[ ]	/* InterpolatePts */
MDAP[1]	/* MoveDirectAbsPt */
SHP[1]	/* ShiftPointByLastPoint */
SRP2[ ]	/* SetRefPoint2 */
IP[ ]	/* InterpolatePts */
IUP[0]	/* InterpolateUntPts */
IUP[1]	/* InterpolateUntPts */";
};
width = 655;
},
{
layerId = "D2DF310C-5735-4FF3-9903-0538932FD5C7";
shapes = (
{
closed = 1;
nodes = (
(559,346,o),
(498,364,q),
(547,386,o),
(600,477,o),
(600,529,qs),
(600,574,o),
(561,657,o),
(488,710,o),
(438,710,qs),
(85,710,l),
(85,0,l),
(422,0,ls),
(479,0,o),
(574,46,o),
(630,128,o),
(630,183,qs),
(630,249,o)
);
},
{
closed = 1;
nodes = (
(508,112,o),
(455,78,o),
(422,78,qs),
(175,78,l),
(175,322,l),
(429,322,ls),
(461,322,o),
(510,288,o),
(539,232,o),
(539,199,qs),
(539,167,o)
);
},
{
closed = 1;
nodes = (
(437,632,o),
(484,600,o),
(511,547,o),
(511,513,qs),
(511,481,o),
(482,427,o),
(433,395,o),
(401,395,qs),
(175,395,l),
(175,632,l),
(407,632,ls)
);
}
);
width = 671;
},
{
layerId = "F0331135-C9C8-4C09-BCAA-87CFA41CFCF0";
shapes = (
{
closed = 1;
nodes = (
(594,346,o),
(533,364,q),
(584,387,o),
(635,479,o),
(635,528,qs),
(635,573,o),
(596,657,o),
(523,710,o),
(473,710,qs),
(61,710,l),
(61,0,l),
(410,0,ls),
(480,0,o),
(596,38,o),
(665,118,o),
(665,182,qs),
(665,256,o)
);
},
{
closed = 1;
nodes = (
(452,178,o),
(426,164,o),
(410,164,qs),
(256,164,l),
(256,283,l),
(417,283,ls),
(432,283,o),
(454,267,o),
(467,240,o),
(467,222,qs),
(467,204,o)
);
},
{
closed = 1;
nodes = (
(408,544,o),
(429,533,o),
(442,510,o),
(442,490,qs),
(442,468,o),
(426,444,o),
(402,435,o),
(389,435,qs),
(256,435,l),
(256,544,l),
(395,544,ls)
);
}
);
width = 690;
}
);
note = B;
unicode = 66;
},
{
glyphname = C;
kernLeft = C;
kernRight = C;
layers = (
{
layerId = m01;
shapes = (
{
closed = 1;
nodes = (
(96,162,o),
(185,57,o),
(306,-6,o),
(378,-6,qs),
(432,-6,o),
(543,32,o),
(635,106,o),
(659,159,q),
(640,164,l),
(613,112,o),
(527,46,o),
(429,14,o),
(382,14,qs),
(316,14,o),
(202,70,o),
(116,166,o),
(68,289,o),
(68,357,qs),
(68,419,o),
(109,538,o),
(189,636,o),
(305,694,o),
(379,694,qs),
(425,694,o),
(516,667,o),
(596,605,o),
(623,553,q),
(642,559,l),
(610,627,o),
(478,714,o),
(383,714,qs),
(303,714,o),
(179,652,o),
(93,549,o),
(48,424,o),
(48,360,qs),
(48,293,o)
);
}
);
userData = {
assembly = "NPUSHB[ ]	/* 12 values pushed */
28 27 23 32 9 114 8 9 13 5 3 114
SVTCA[0]	/* SetFreedomAndProjectionVectorToAxis */
CALL[ ]	/* CallFunction */
SHP[0]	/* ShiftPointByLastPoint */
MDRP[01100]	/* MoveDirectRelPt */
SHP[0]	/* ShiftPointByLastPoint */
CALL[ ]	/* CallFunction */
SHP[0]	/* ShiftPointByLastPoint */
MDRP[01100]	/* MoveDirectRelPt */
SHP[0]	/* ShiftPointByLastPoint */
IUP[0]	/* InterpolateUntPts */
IUP[1]	/* InterpolateUntPts */";
};
width = 697;
},
{
layerId = "D2DF310C-5735-4FF3-9903-0538932FD5C7";
shapes = (
{
closed = 1;
nodes = (
(88,162,o),
(177,57,o),
(299,-6,o),
(372,-6,qs),
(427,-6,o),
(540,32,o),
(632,106,o),
(654,159,q),
(579,200,l),
(559,156,o),
(491,101,o),
(413,75,o),
(376,75,qs),
(323,75,o),
(233,121,o),
(167,199,o),
(130,301,o),
(130,356,qs),
(130,406,o),
(161,505,o),
(223,585,o),
(314,633,o),
(373,633,qs),
(409,633,o),
(484,611,o),
(549,558,o),
(570,513,q),
(641,559,l),
(608,627,o),
(472,714,o),
(377,714,qs),
(297,714,o),
(171,653,o),
(84,550,o),
(39,425,o),
(39,360,qs),
(39,293,o)
);
}
);
width = 682;
},
{
layerId = "F0331135-C9C8-4C09-BCAA-87CFA41CFCF0";
shapes = (
{
closed = 1;
nodes = (
(74,162,o),
(169,57,o),
(300,-6,o),
(379,-6,qs),
(440,-6,o),
(564,33,o),
(662,107,o),
(683,159,q),
(524,254,l),
(512,222,o),
(466,184,o),
(410,167,o),
(383,167,qs),
(345,167,o),
(284,197,o),
(242,250,o),
(220,318,o),
(220,355,qs),
(220,388,o),
(239,454,o),
(278,508,o),
(339,541,o),
(381,541,qs),
(408,541,o),
(465,526,o),
(514,488,o),
(527,453,q),
(676,559,l),
(639,629,o),
(487,714,o),
(385,714,qs),
(300,714,o),
(165,653,o),
(71,551,o),
(22,426,o),
(22,361,qs),
(22,293,o)
);
}
);
width = 691;
}
);
note = C;
unicode = 67;
},
{
glyphname = D;
kernLeft = B;
kernRight = D;
layers = (
{
layerId = m01;
shapes = (
{
closed = 1;
nodes = (
(429,0,o),
(579,88,o),
(660,248,o),
(660,356,qs),
(660,454,o),
(586,615,o),
(439,710,o),
(327,710,qs),
(99,710,l),
(99,0,l),
(327,0,ls)
);
},
{
closed = 1;
nodes = (
(569,108,o),
(430,20,o),
(327,20,qs),
(119,20,l),
(119,690,l),
(327,690,ls),
(428,690,o),
(567,604,o),
(640,453,o),
(640,356,qs),
(640,261,o)
);
}
);
userData = {
assembly = "NPUSHB[ ]	/* 9 values pushed */
17 0 16 1 2 114 0 8 114
SVTCA[0]	/* SetFreedomAndProjectionVectorToAxis */
CALL[ ]	/* CallFunction */
CALL[ ]	/* CallFunction */
SHP[0]	/* ShiftPointByLastPoint */
SRP1[ ]	/* SetRefPoint1 */
SHP[1]	/* ShiftPointByLastPoint */
IUP[0]	/* InterpolateUntPts */
IUP[1]	/* InterpolateUntPts */";
};
width = 711;
},
{
layerId = "D2DF310C-5735-4FF3-9903-0538932FD5C7";
shapes = (
{
closed = 1;
nodes = (
(436,0,o),
(590,88,o),
(674,248,o),
(674,356,qs),
(674,454,o),
(598,615,o),
(445,710,o),
(331,710,qs),
(85,710,l),
(85,0,l),
(331,0,ls)
);
},
{
closed = 1;
nodes = (
(525,153,o),
(413,80,o),
(331,80,qs),
(175,80,l),
(175,630,l),
(331,630,ls),
(412,630,o),
(524,560,o),
(583,436,o),
(583,356,qs),
(583,278,o)
);
}
);
width = 716;
},
{
layerId = "F0331135-C9C8-4C09-BCAA-87CFA41CFCF0";
shapes = (
{
closed = 1;
nodes = (
(442,0,o),
(603,88,o),
(692,248,o),
(692,356,qs),
(692,454,o),
(611,615,o),
(452,710,o),
(334,710,qs),
(61,710,l),
(61,0,l),
(334,0,ls)
);
},
{
closed = 1;
nodes = (
(456,218,o),
(385,170,o),
(334,170,qs),
(256,170,l),
(256,540,l),
(334,540,ls),
(384,540,o),
(456,494,o),
(494,411,o),
(494,356,qs),
(494,303,o)
);
}
);
width = 716;
}
);
note = D;
unicode = 68;
},
{
glyphname = Eth;
kernLeft = B;
kernRight = D;
layers = (
{
layerId = m01;
shapes = (
{
closed = 1;
nodes = (
(318,367,l),
(35,367,l),
(35,347,l),
(318,347,l)
);
},
{
closed = 1;
nodes = (
(436,0,o),
(586,88,o),
(667,248,o),
(667,356,qs),
(667,454,o),
(593,615,o),
(446,710,o),
(334,710,qs),
(106,710,l),
(106,0,l),
(334,0,ls)
);
},
{
closed = 1;
nodes = (
(576,108,o),
(437,20,o),
(334,20,qs),
(126,20,l),
(126,690,l),
(334,690,ls),
(435,690,o),
(574,604,o),
(647,453,o),
(647,356,qs),
(647,261,o)
);
}
);
userData = {
assembly = "NPUSHB[ ]	/* 12 values pushed */
1 0 0 4 20 5 2 114 21 4 8 114
SVTCA[0]	/* SetFreedomAndProjectionVectorToAxis */
CALL[ ]	/* CallFunction */
SHP[0]	/* ShiftPointByLastPoint */
CALL[ ]	/* CallFunction */
SHP[0]	/* ShiftPointByLastPoint */
SRP1[ ]	/* SetRefPoint1 */
IP[ ]	/* InterpolatePts */
MDAP[1]	/* MoveDirectAbsPt */
SHP[1]	/* ShiftPointByLastPoint */
IUP[0]	/* InterpolateUntPts */
IUP[1]	/* InterpolateUntPts */";
};
width = 718;
},
{
layerId = "D2DF310C-5735-4FF3-9903-0538932FD5C7";
shapes = (
{
closed = 1;
nodes = (
(342,391,l),
(34,391,l),
(34,323,l),
(342,323,l)
);
},
{
closed = 1;
nodes = (
(442,0,o),
(596,88,o),
(680,248,o),
(680,356,qs),
(680,454,o),
(604,615,o),
(451,710,o),
(337,710,qs),
(91,710,l),
(91,0,l),
(337,0,ls)
);
},
{
closed = 1;
nodes = (
(531,153,o),
(419,80,o),
(337,80,qs),
(181,80,l),
(181,630,l),
(337,630,ls),
(418,630,o),
(530,560,o),
(589,436,o),
(589,356,qs),
(589,278,o)
);
}
);
width = 722;
},
{
layerId = "F0331135-C9C8-4C09-BCAA-87CFA41CFCF0";
shapes = (
{
closed = 1;
nodes = (
(374,427,l),
(28,427,l),
(28,287,l),
(374,287,l)
);
},
{
closed = 1;
nodes = (
(446,0,o),
(607,88,o),
(696,248,o),
(696,356,qs),
(696,454,o),
(615,615,o),
(456,710,o),
(338,710,qs),
(65,710,l),
(65,0,l),
(338,0,ls)
);
},
{
closed = 1;
nodes = (
(460,218,o),
(389,170,o),
(338,170,qs),
(260,170,l),
(260,540,l),
(338,540,ls),
(388,540,o),
(460,494,o),
(498,411,o),
(498,356,qs),
(498,303,o)
);
}
);
width = 720;
}
);
note = Eth;
unicode = 208;
},
{
glyphname = Dcroat;
kernLeft = B;
kernRight = D;
layers = (
{
layerId = m01;
shapes = (
{
closed = 1;
nodes = (
(318,367,l),
(35,367,l),
(35,347,l),
(318,347,l)
);
},
{
closed = 1;
nodes = (
(436,0,o),
(586,88,o),
(667,248,o),
(667,356,qs),
(667,454,o),
(593,615,o),
(446,710,o),
(334,710,qs),
(106,710,l),
(106,0,l),
(334,0,ls)
);
},
{
closed = 1;
nodes = (
(576,108,o),
(437,20,o),
(334,20,qs),
(126,20,l),
(126,690,l),
(334,690,ls),
(435,690,o),
(574,604,o),
(647,453,o),
(647,356,qs),
(647,261,o)
);
}
);
userData = {
assembly = "NPUSHB[ ]	/* 12 values pushed */
1 0 0 4 20 5 2 114 21 4 8 114
SVTCA[0]	/* SetFreedomAndProjectionVectorToAxis */
CALL[ ]	/* CallFunction */
SHP[0]	/* ShiftPointByLastPoint */
CALL[ ]	/* CallFunction */
SHP[0]	/* ShiftPointByLastPoint */
SRP1[ ]	/* SetRefPoint1 */
IP[ ]	/* InterpolatePts */
MDAP[1]	/* MoveDirectAbsPt */
SHP[1]	/* ShiftPointByLastPoint */
IUP[0]	/* InterpolateUntPts */
IUP[1]	/* InterpolateUntPts */";
};
width = 718;
},
{
layerId = "D2DF310C-5735-4FF3-9903-0538932FD5C7";
shapes = (
{
closed = 1;
nodes = (
(342,391,l),
(34,391,l),
(34,323,l),
(342,323,l)
);
},
{
closed = 1;
nodes = (
(442,0,o),
(596,88,o),
(680,248,o),
(680,356,qs),
(680,454,o),
(604,615,o),
(451,710,o),
(337,710,qs),
(91,710,l),
(91,0,l),
(337,0,ls)
);
},
{
closed = 1;
nodes = (
(531,153,o),
(419,80,o),
(337,80,qs),
(181,80,l),
(181,630,l),
(337,630,ls),
(418,630,o),
(530,560,o),
(589,436,o),
(589,356,qs),
(589,278,o)
);
}
);
width = 722;
},
{
layerId = "F0331135-C9C8-4C09-BCAA-87CFA41CFCF0";
shapes = (
{
closed = 1;
nodes = (
(374,427,l),
(28,427,l),
(28,287,l),
(374,287,l)
);
},
{
closed = 1;
nodes = (
(446,0,o),
(607,88,o),
(696,248,o),
(696,356,qs),
(696,454,o),
(615,615,o),
(456,710,o),
(338,710,qs),
(65,710,l),
(65,0,l),
(338,0,ls)
);
},
{
closed = 1;
nodes = (
(460,218,o),
(389,170,o),
(338,170,qs),
(260,170,l),
(260,540,l),
(338,540,ls),
(388,540,o),
(460,494,o),
(498,411,o),
(498,356,qs),
(498,303,o)
);
}
);
width = 720;
}
);
note = Dcroat;
unicode = 272;
},
{
glyphname = E;
kernLeft = B;
kernRight = AE;
layers = (
{
layerId = m01;
shapes = (
{
closed = 1;
nodes = (
(119,353,l),
(502,353,l),
(502,373,l),
(119,373,l),
(119,690,l),
(556,690,l),
(556,710,l),
(99,710,l),
(99,0,l),
(565,0,l),
(565,20,l),
(119,20,l)
);
}
);
userData = {
assembly = "NPUSHB[ ]	/* 13 values pushed */
11 2 7 10 10 2 6 3 2 114 2 8 114
SVTCA[0]	/* SetFreedomAndProjectionVectorToAxis */
CALL[ ]	/* CallFunction */
CALL[ ]	/* CallFunction */
SHP[0]	/* ShiftPointByLastPoint */
SRP1[ ]	/* SetRefPoint1 */
IP[ ]	/* InterpolatePts */
MDAP[1]	/* MoveDirectAbsPt */
SHP[1]	/* ShiftPointByLastPoint */
SRP1[ ]	/* SetRefPoint1 */
SHP[1]	/* ShiftPointByLastPoint */
IUP[0]	/* InterpolateUntPts */
IUP[1]	/* InterpolateUntPts */";
};
width = 617;
},
{
layerId = "D2DF310C-5735-4FF3-9903-0538932FD5C7";
shapes = (
{
closed = 1;
nodes = (
(175,325,l),
(508,325,l),
(508,400,l),
(175,400,l),
(175,630,l),
(558,630,l),
(558,710,l),
(85,710,l),
(85,0,l),
(567,0,l),
(567,80,l),
(175,80,l)
);
}
);
width = 605;
},
{
layerId = "F0331135-C9C8-4C09-BCAA-87CFA41CFCF0";
shapes = (
{
closed = 1;
nodes = (
(256,282,l),
(514,282,l),
(514,440,l),
(256,440,l),
(256,540,l),
(558,540,l),
(558,710,l),
(61,710,l),
(61,0,l),
(567,0,l),
(567,170,l),
(256,170,l)
);
}
);
width = 597;
}
);
note = E;
unicode = 69;
},
{
glyphname = F;
kernLeft = B;
layers = (
{
layerId = m01;
shapes = (
{
closed = 1;
nodes = (
(119,354,l),
(492,354,l),
(492,374,l),
(119,374,l),
(119,690,l),
(556,690,l),
(556,710,l),
(99,710,l),
(99,0,l),
(119,0,l)
);
}
);
userData = {
assembly = "NPUSHB[ ]	/* 11 values pushed */
5 8 8 0 4 1 2 114 0 8 114
SVTCA[0]	/* SetFreedomAndProjectionVectorToAxis */
CALL[ ]	/* CallFunction */
CALL[ ]	/* CallFunction */
SHP[0]	/* ShiftPointByLastPoint */
SRP1[ ]	/* SetRefPoint1 */
IP[ ]	/* InterpolatePts */
MDAP[1]	/* MoveDirectAbsPt */
SHP[1]	/* ShiftPointByLastPoint */
IUP[0]	/* InterpolateUntPts */
IUP[1]	/* InterpolateUntPts */";
};
width = 602;
},
{
layerId = "D2DF310C-5735-4FF3-9903-0538932FD5C7";
shapes = (
{
closed = 1;
nodes = (
(175,318,l),
(494,318,l),
(494,393,l),
(175,393,l),
(175,630,l),
(554,630,l),
(554,710,l),
(85,710,l),
(85,0,l),
(175,0,l)
);
}
);
width = 583;
},
{
layerId = "F0331135-C9C8-4C09-BCAA-87CFA41CFCF0";
shapes = (
{
closed = 1;
nodes = (
(256,264,l),
(494,264,l),
(494,422,l),
(256,422,l),
(256,540,l),
(548,540,l),
(548,710,l),
(61,710,l),
(61,0,l),
(256,0,l)
);
}
);
width = 563;
}
);
note = F;
unicode = 70;
},
{
glyphname = G;
kernLeft = C;
kernRight = G;
layers = (
{
layerId = m01;
shapes = (
{
closed = 1;
nodes = (
(651,136,q),
(651,164,l),
(589,86,o),
(457,15,o),
(383,15,qs),
(317,15,o),
(203,70,o),
(117,166,o),
(68,288,o),
(68,355,qs),
(68,418,o),
(110,539,o),
(189,637,o),
(301,695,o),
(371,695,qs),
(454,695,o),
(583,629,o),
(623,554,q),
(642,560,l),
(608,628,o),
(481,715,o),
(371,715,qs),
(300,715,o),
(182,655,o),
(95,553,o),
(48,424,o),
(48,355,qs),
(48,289,o),
(97,161,o),
(186,57,o),
(309,-5,o),
(383,-5,qs),
(537,-5,o)
);
},
{
closed = 1;
nodes = (
(659,0,l),
(659,338,l),
(472,338,l),
(472,318,l),
(639,318,l),
(639,0,l)
);
}
);
userData = {
assembly = "NPUSHB[ ]	/* 16 values pushed */
27 35 34 34 0 17 10 37 8 114 10 3 114 0 9 114
SVTCA[0]	/* SetFreedomAndProjectionVectorToAxis */
CALL[ ]	/* CallFunction */
CALL[ ]	/* CallFunction */
CALL[ ]	/* CallFunction */
SRP1[ ]	/* SetRefPoint1 */
SHP[1]	/* ShiftPointByLastPoint */
SRP2[ ]	/* SetRefPoint2 */
IP[ ]	/* InterpolatePts */
MDAP[1]	/* MoveDirectAbsPt */
SHP[1]	/* ShiftPointByLastPoint */
SHP[0]	/* ShiftPointByLastPoint */
IUP[0]	/* InterpolateUntPts */
IUP[1]	/* InterpolateUntPts */";
};
width = 720;
},
{
layerId = "D2DF310C-5735-4FF3-9903-0538932FD5C7";
shapes = (
{
closed = 1;
nodes = (
(597,109,q),
(597,202,l),
(548,138,o),
(438,76,o),
(377,76,qs),
(325,76,o),
(235,120,o),
(167,197,o),
(130,298,o),
(130,355,qs),
(130,409,o),
(163,509,o),
(226,588,o),
(314,634,o),
(368,634,qs),
(433,634,o),
(541,574,o),
(572,512,q),
(641,560,l),
(607,629,o),
(473,715,o),
(370,715,qs),
(299,715,o),
(178,658,o),
(89,558,o),
(39,429,o),
(39,357,qs),
(39,288,o),
(89,159,o),
(179,56,o),
(300,-5,o),
(370,-5,qs),
(501,-5,o)
);
},
{
closed = 1;
nodes = (
(662,0,l),
(662,354,l),
(433,354,l),
(433,286,l),
(586,286,l),
(586,0,l)
);
}
);
width = 714;
},
{
layerId = "F0331135-C9C8-4C09-BCAA-87CFA41CFCF0";
shapes = (
{
closed = 1;
nodes = (
(553,68,q),
(553,258,l),
(518,215,o),
(432,168,o),
(385,168,qs),
(348,168,o),
(288,195,o),
(245,244,o),
(221,312,o),
(221,354,qs),
(221,395,o),
(244,464,o),
(287,514,o),
(345,542,o),
(380,542,qs),
(427,542,o),
(511,491,o),
(532,449,q),
(677,560,l),
(639,632,o),
(483,715,o),
(387,715,qs),
(310,715,o),
(178,661,o),
(79,564,o),
(23,436,o),
(23,361,qs),
(23,274,o),
(78,139,o),
(174,44,o),
(299,-5,o),
(368,-5,qs),
(473,-5,o)
);
},
{
closed = 1;
nodes = (
(704,0,l),
(704,378,l),
(412,378,l),
(412,238,l),
(543,238,l),
(543,0,l)
);
}
);
width = 739;
}
);
note = G;
unicode = 71;
},
{
glyphname = H;
kernLeft = B;
kernRight = H;
layers = (
{
layerId = m01;
shapes = (
{
closed = 1;
nodes = (
(612,373,l),
(119,373,l),
(119,710,l),
(99,710,l),
(99,0,l),
(119,0,l),
(119,353,l),
(612,353,l),
(612,0,l),
(632,0,l),
(632,710,l),
(612,710,l)
);
}
);
userData = {
assembly = "NPUSHB[ ]	/* 13 values pushed */
2 6 11 9 4 4 6 7 2 114 6 8 114
SVTCA[0]	/* SetFreedomAndProjectionVectorToAxis */
CALL[ ]	/* CallFunction */
CALL[ ]	/* CallFunction */
SRP1[ ]	/* SetRefPoint1 */
IP[ ]	/* InterpolatePts */
MDAP[1]	/* MoveDirectAbsPt */
SHP[1]	/* ShiftPointByLastPoint */
SHP[0]	/* ShiftPointByLastPoint */
SRP1[ ]	/* SetRefPoint1 */
SHP[1]	/* ShiftPointByLastPoint */
IUP[0]	/* InterpolateUntPts */
IUP[1]	/* InterpolateUntPts */";
};
width = 731;
},
{
layerId = "D2DF310C-5735-4FF3-9903-0538932FD5C7";
shapes = (
{
closed = 1;
nodes = (
(566,403,l),
(175,403,l),
(175,710,l),
(85,710,l),
(85,0,l),
(175,0,l),
(175,323,l),
(566,323,l),
(566,0,l),
(656,0,l),
(656,710,l),
(566,710,l)
);
}
);
width = 741;
},
{
layerId = "F0331135-C9C8-4C09-BCAA-87CFA41CFCF0";
shapes = (
{
closed = 1;
nodes = (
(494,448,l),
(256,448,l),
(256,710,l),
(61,710,l),
(61,0,l),
(256,0,l),
(256,278,l),
(494,278,l),
(494,0,l),
(689,0,l),
(689,710,l),
(494,710,l)
);
}
);
width = 750;
}
);
note = H;
unicode = 72;
},
{
glyphname = Hbar;
kernLeft = B;
kernRight = H;
layers = (
{
layerId = m01;
shapes = (
{
closed = 1;
nodes = (
(687,574,l),
(54,574,l),
(54,554,l),
(687,554,l)
);
},
{
closed = 1;
nodes = (
(617,373,l),
(124,373,l),
(124,710,l),
(104,710,l),
(104,0,l),
(124,0,l),
(124,353,l),
(617,353,l),
(617,0,l),
(637,0,l),
(637,710,l),
(617,710,l)
);
}
);
userData = {
assembly = "NPUSHB[ ]	/* 16 values pushed */
1 0 0 13 13 8 8 10 15 11 2 114 6 10 8 114
SVTCA[0]	/* SetFreedomAndProjectionVectorToAxis */
CALL[ ]	/* CallFunction */
SHP[0]	/* ShiftPointByLastPoint */
CALL[ ]	/* CallFunction */
SHP[0]	/* ShiftPointByLastPoint */
SRP1[ ]	/* SetRefPoint1 */
IP[ ]	/* InterpolatePts */
MDAP[1]	/* MoveDirectAbsPt */
SHP[1]	/* ShiftPointByLastPoint */
SRP1[ ]	/* SetRefPoint1 */
SHP[1]	/* ShiftPointByLastPoint */
MDAP[1]	/* MoveDirectAbsPt */
SHP[1]	/* ShiftPointByLastPoint */
IUP[0]	/* InterpolateUntPts */
IUP[1]	/* InterpolateUntPts */";
};
width = 741;
},
{
layerId = "D2DF310C-5735-4FF3-9903-0538932FD5C7";
shapes = (
{
closed = 1;
nodes = (
(711,595,l),
(40,595,l),
(40,529,l),
(711,529,l)
);
},
{
closed = 1;
nodes = (
(571,403,l),
(180,403,l),
(180,710,l),
(90,710,l),
(90,0,l),
(180,0,l),
(180,323,l),
(571,323,l),
(571,0,l),
(661,0,l),
(661,710,l),
(571,710,l)
);
}
);
width = 751;
},
{
layerId = "F0331135-C9C8-4C09-BCAA-87CFA41CFCF0";
shapes = (
{
closed = 1;
nodes = (
(742,626,l),
(14,626,l),
(14,538,l),
(742,538,l)
);
},
{
closed = 1;
nodes = (
(497,448,l),
(259,448,l),
(259,710,l),
(64,710,l),
(64,0,l),
(259,0,l),
(259,278,l),
(497,278,l),
(497,0,l),
(692,0,l),
(692,710,l),
(497,710,l)
);
}
);
width = 756;
}
);
note = Hbar;
unicode = 294;
},
{
glyphname = I;
kernLeft = B;
kernRight = H;
layers = (
{
layerId = m01;
shapes = (
{
closed = 1;
nodes = (
(119,710,l),
(99,710,l),
(99,0,l),
(119,0,l)
);
}
);
userData = {
assembly = "PUSHB[ ]	/* 6 values pushed */
1 2 114 0 8 114
SVTCA[0]	/* SetFreedomAndProjectionVectorToAxis */
CALL[ ]	/* CallFunction */
CALL[ ]	/* CallFunction */
IUP[0]	/* InterpolateUntPts */
IUP[1]	/* InterpolateUntPts */";
};
width = 218;
},
{
layerId = "D2DF310C-5735-4FF3-9903-0538932FD5C7";
shapes = (
{
closed = 1;
nodes = (
(175,710,l),
(85,710,l),
(85,0,l),
(175,0,l)
);
}
);
width = 260;
},
{
layerId = "F0331135-C9C8-4C09-BCAA-87CFA41CFCF0";
shapes = (
{
closed = 1;
nodes = (
(256,710,l),
(61,710,l),
(61,0,l),
(256,0,l)
);
}
);
width = 317;
}
);
note = I;
unicode = 73;
},
{
glyphname = J;
kernLeft = J;
kernRight = J;
layers = (
{
layerId = m01;
shapes = (
{
closed = 1;
nodes = (
(51,11,o),
(127,-11,o),
(173,-11,qs),
(243,-11,o),
(327,40,o),
(369,136,o),
(383,268,o),
(383,349,qs),
(383,710,l),
(363,710,l),
(363,349,ls),
(363,270,o),
(351,144,o),
(313,55,o),
(237,9,o),
(173,9,qs),
(130,9,o),
(59,30,o),
(30,49,q),
(19,33,l)
);
}
);
userData = {
assembly = "PUSHB[ ]	/* 8 values pushed */
3 16 10 2 114 16 9 114
SVTCA[0]	/* SetFreedomAndProjectionVectorToAxis */
CALL[ ]	/* CallFunction */
CALL[ ]	/* CallFunction */
SRP1[ ]	/* SetRefPoint1 */
SHP[1]	/* ShiftPointByLastPoint */
IUP[0]	/* InterpolateUntPts */
IUP[1]	/* InterpolateUntPts */";
};
width = 473;
},
{
layerId = "D2DF310C-5735-4FF3-9903-0538932FD5C7";
shapes = (
{
closed = 1;
nodes = (
(44,11,o),
(120,-11,o),
(170,-11,qs),
(249,-11,o),
(344,41,o),
(392,138,o),
(408,270,o),
(408,349,qs),
(408,710,l),
(318,710,l),
(318,329,ls),
(318,262,o),
(306,164,o),
(274,101,o),
(214,70,o),
(167,70,qs),
(121,70,o),
(54,93,o),
(35,106,q),
(12,33,l)
);
}
);
width = 485;
},
{
layerId = "F0331135-C9C8-4C09-BCAA-87CFA41CFCF0";
shapes = (
{
closed = 1;
nodes = (
(33,11,o),
(109,-11,o),
(155,-11,qs),
(252,-11,o),
(368,40,o),
(426,136,o),
(445,268,o),
(445,349,qs),
(445,710,l),
(250,710,l),
(250,349,ls),
(250,298,o),
(243,227,o),
(224,183,o),
(186,162,o),
(155,162,qs),
(112,162,o),
(48,188,o),
(42,192,q),
(1,33,l)
);
}
);
width = 498;
}
);
note = J;
unicode = 74;
},
{
glyphname = K;
kernLeft = B;
kernRight = K;
layers = (
{
layerId = m01;
shapes = (
{
closed = 1;
nodes = (
(119,221,l),
(282,386,l),
(588,0,l),
(614,0,l),
(297,400,l),
(600,710,l),
(571,710,l),
(119,249,l),
(119,710,l),
(99,710,l),
(99,0,l),
(119,0,l)
);
}
);
userData = {
assembly = "NPUSHB[ ]	/* 14 values pushed */
10 3 9 6 4 0 5 1 2 114 8 0 8 114
SVTCA[0]	/* SetFreedomAndProjectionVectorToAxis */
CALL[ ]	/* CallFunction */
SHP[0]	/* ShiftPointByLastPoint */
CALL[ ]	/* CallFunction */
SHP[0]	/* ShiftPointByLastPoint */
SRP2[ ]	/* SetRefPoint2 */
SLOOP[ ]	/* SetLoopVariable */
IP[ ]	/* InterpolatePts */
IUP[0]	/* InterpolateUntPts */
IUP[1]	/* InterpolateUntPts */";
};
width = 621;
},
{
layerId = "D2DF310C-5735-4FF3-9903-0538932FD5C7";
shapes = (
{
closed = 1;
nodes = (
(175,217,l),
(296,343,l),
(553,0,l),
(654,0,l),
(353,397,l),
(638,710,l),
(541,710,l),
(175,317,l),
(175,709,l),
(85,709,l),
(85,0,l),
(175,0,l)
);
}
);
width = 652;
},
{
layerId = "F0331135-C9C8-4C09-BCAA-87CFA41CFCF0";
shapes = (
{
closed = 1;
nodes = (
(256,205,l),
(310,261,l),
(486,0,l),
(710,0,l),
(434,392,l),
(692,710,l),
(472,710,l),
(256,440,l),
(256,710,l),
(61,710,l),
(61,0,l),
(256,0,l)
);
}
);
width = 690;
}
);
note = K;
unicode = 75;
},
{
glyphname = L;
kernLeft = B;
kernRight = L;
layers = (
{
anchors = (
{
name = topright;
pos = (385,526);
}
);
layerId = m01;
shapes = (
{
closed = 1;
nodes = (
(565,20,l),
(119,20,l),
(119,710,l),
(99,710,l),
(99,0,l),
(565,0,l)
);
}
);
userData = {
assembly = "PUSHB[ ]	/* 8 values pushed */
3 0 1 2 114 0 8 114
SVTCA[0]	/* SetFreedomAndProjectionVectorToAxis */
CALL[ ]	/* CallFunction */
CALL[ ]	/* CallFunction */
SRP1[ ]	/* SetRefPoint1 */
SHP[1]	/* ShiftPointByLastPoint */
IUP[0]	/* InterpolateUntPts */
IUP[1]	/* InterpolateUntPts */";
};
width = 579;
},
{
layerId = "D2DF310C-5735-4FF3-9903-0538932FD5C7";
shapes = (
{
closed = 1;
nodes = (
(571,80,l),
(175,80,l),
(175,710,l),
(85,710,l),
(85,0,l),
(571,0,l)
);
}
);
width = 584;
},
{
layerId = "F0331135-C9C8-4C09-BCAA-87CFA41CFCF0";
shapes = (
{
closed = 1;
nodes = (
(578,170,l),
(256,170,l),
(256,710,l),
(61,710,l),
(61,0,l),
(578,0,l)
);
}
);
width = 585;
}
);
note = L;
unicode = 76;
},
{
glyphname = Lslash;
kernLeft = B;
kernRight = L;
layers = (
{
layerId = m01;
shapes = (
{
closed = 1;
nodes = (
(314,521,l),
(29,236,l),
(43,221,l),
(328,506,l)
);
},
{
closed = 1;
nodes = (
(572,20,l),
(126,20,l),
(126,710,l),
(106,710,l),
(106,0,l),
(572,0,l)
);
}
);
userData = {
assembly = "NPUSHB[ ]	/* 13 values pushed */
3 2 2 5 2 114 1 0 0 7 4 8 114
SVTCA[0]	/* SetFreedomAndProjectionVectorToAxis */
CALL[ ]	/* CallFunction */
SHP[0]	/* ShiftPointByLastPoint */
SHP[0]	/* ShiftPointByLastPoint */
MDAP[1]	/* MoveDirectAbsPt */
SHP[1]	/* ShiftPointByLastPoint */
CALL[ ]	/* CallFunction */
SHP[0]	/* ShiftPointByLastPoint */
MDAP[1]	/* MoveDirectAbsPt */
SHP[1]	/* ShiftPointByLastPoint */
IUP[0]	/* InterpolateUntPts */
IUP[1]	/* InterpolateUntPts */";
};
width = 586;
},
{
layerId = "D2DF310C-5735-4FF3-9903-0538932FD5C7";
shapes = (
{
closed = 1;
nodes = (
(324,523,l),
(10,283,l),
(36,233,l),
(349,474,l)
);
},
{
closed = 1;
nodes = (
(578,80,l),
(182,80,l),
(182,710,l),
(92,710,l),
(92,0,l),
(578,0,l)
);
}
);
width = 591;
},
{
layerId = "F0331135-C9C8-4C09-BCAA-87CFA41CFCF0";
shapes = (
{
closed = 1;
nodes = (
(339,527,l),
(-17,353,l),
(26,252,l),
(382,426,l)
);
},
{
closed = 1;
nodes = (
(590,170,l),
(268,170,l),
(268,710,l),
(73,710,l),
(73,0,l),
(590,0,l)
);
}
);
width = 597;
}
);
note = Lslash;
unicode = 321;
},
{
glyphname = M;
kernLeft = B;
kernRight = H;
layers = (
{
layerId = m01;
shapes = (
{
closed = 1;
nodes = (
(785,710,l),
(769,710,l),
(442,164,l),
(115,710,l),
(99,710,l),
(99,0,l),
(119,0,l),
(119,666,l),
(434,140,l),
(450,140,l),
(765,666,l),
(765,0,l),
(785,0,l)
);
}
);
userData = {
assembly = "NPUSHB[ ]	/* 14 values pushed */
3 9 1 4 4 6 11 8 2 114 12 6 8 114
SVTCA[0]	/* SetFreedomAndProjectionVectorToAxis */
CALL[ ]	/* CallFunction */
SHP[0]	/* ShiftPointByLastPoint */
CALL[ ]	/* CallFunction */
SHP[0]	/* ShiftPointByLastPoint */
SRP2[ ]	/* SetRefPoint2 */
SLOOP[ ]	/* SetLoopVariable */
IP[ ]	/* InterpolatePts */
IUP[0]	/* InterpolateUntPts */
IUP[1]	/* InterpolateUntPts */";
};
width = 884;
},
{
layerId = "D2DF310C-5735-4FF3-9903-0538932FD5C7";
shapes = (
{
closed = 1;
nodes = (
(789,710,l),
(695,710,l),
(437,249,l),
(180,710,l),
(85,710,l),
(85,0,l),
(175,0,l),
(175,542,l),
(410,125,l),
(465,125,l),
(699,542,l),
(699,0,l),
(789,0,l)
);
}
);
width = 874;
},
{
layerId = "F0331135-C9C8-4C09-BCAA-87CFA41CFCF0";
shapes = (
{
closed = 1;
nodes = (
(793,710,l),
(581,710,l),
(427,376,l),
(274,710,l),
(61,710,l),
(61,0,l),
(256,0,l),
(256,374,l),
(375,111,l),
(479,111,l),
(598,374,l),
(598,0,l),
(793,0,l)
);
}
);
width = 854;
}
);
note = M;
unicode = 77;
},
{
glyphname = N;
kernLeft = B;
kernRight = H;
layers = (
{
layerId = m01;
shapes = (
{
closed = 1;
nodes = (
(677,0,l),
(677,710,l),
(657,710,l),
(657,29,l),
(114,710,l),
(99,710,l),
(99,0,l),
(119,0,l),
(119,671,l),
(654,0,l)
);
}
);
userData = {
assembly = "NPUSHB[ ]	/* 11 values pushed */
5 0 2 7 4 2 114 9 2 8 114
SVTCA[0]	/* SetFreedomAndProjectionVectorToAxis */
CALL[ ]	/* CallFunction */
SHP[0]	/* ShiftPointByLastPoint */
CALL[ ]	/* CallFunction */
SHP[0]	/* ShiftPointByLastPoint */
SRP2[ ]	/* SetRefPoint2 */
IP[ ]	/* InterpolatePts */
IP[ ]	/* InterpolatePts */
IUP[0]	/* InterpolateUntPts */
IUP[1]	/* InterpolateUntPts */";
};
width = 776;
},
{
layerId = "D2DF310C-5735-4FF3-9903-0538932FD5C7";
shapes = (
{
closed = 1;
nodes = (
(685,0,l),
(685,709,l),
(595,709,l),
(595,155,l),
(161,710,l),
(85,710,l),
(85,0,l),
(175,0,l),
(175,544,l),
(603,0,l)
);
}
);
width = 770;
},
{
layerId = "F0331135-C9C8-4C09-BCAA-87CFA41CFCF0";
shapes = (
{
closed = 1;
nodes = (
(693,0,l),
(693,710,l),
(498,710,l),
(498,349,l),
(213,710,l),
(61,710,l),
(61,0,l),
(256,0,l),
(256,349,l),
(538,0,l)
);
}
);
width = 754;
}
);
note = N;
unicode = 78;
},
{
glyphname = Eng;
kernLeft = B;
kernRight = H;
layers = (
{
layerId = m01;
shapes = (
{
closed = 1;
nodes = (
(657,-36,ls),
(657,-68,o),
(623,-120,o),
(571,-150,o),
(543,-150,qs),
(522,-150,o),
(478,-140,o),
(460,-124,q),
(444,-136,l),
(464,-155,o),
(515,-170,o),
(544,-170,qs),
(575,-170,o),
(636,-135,o),
(677,-75,o),
(677,-36,qs),
(677,709,l),
(657,709,l),
(657,29,l),
(114,710,l),
(99,710,l),
(99,0,l),
(119,0,l),
(119,671,l),
(657,-4,l)
);
}
);
userData = {
assembly = "NPUSHB[ ]	/* 13 values pushed */
24 5 0 3 19 12 7 4 2 114 2 8 114
SVTCA[0]	/* SetFreedomAndProjectionVectorToAxis */
CALL[ ]	/* CallFunction */
CALL[ ]	/* CallFunction */
SHP[0]	/* ShiftPointByLastPoint */
MDAP[1]	/* MoveDirectAbsPt */
SHP[1]	/* ShiftPointByLastPoint */
SLOOP[ ]	/* SetLoopVariable */
IP[ ]	/* InterpolatePts */
IUP[0]	/* InterpolateUntPts */
IUP[1]	/* InterpolateUntPts */";
};
width = 776;
},
{
layerId = "D2DF310C-5735-4FF3-9903-0538932FD5C7";
shapes = (
{
closed = 1;
nodes = (
(589,-23,ls),
(589,-47,o),
(564,-86,o),
(526,-108,o),
(504,-108,qs),
(486,-108,o),
(450,-98,o),
(436,-85,q),
(395,-144,l),
(419,-166,o),
(480,-186,o),
(514,-186,qs),
(556,-186,o),
(631,-144,o),
(677,-69,o),
(677,-20,qs),
(677,709,l),
(587,709,l),
(587,161,l),
(154,710,l),
(85,710,l),
(85,0,l),
(175,0,l),
(175,540,l),
(589,15,l)
);
}
);
width = 762;
},
{
layerId = "F0331135-C9C8-4C09-BCAA-87CFA41CFCF0";
shapes = (
{
closed = 1;
nodes = (
(483,-3,ls),
(483,-16,o),
(473,-36,o),
(456,-46,o),
(443,-46,qs),
(430,-46,o),
(404,-35,o),
(396,-26,q),
(318,-155,l),
(349,-181,o),
(426,-209,o),
(467,-209,qs),
(526,-209,o),
(619,-156,o),
(673,-60,o),
(673,5,qs),
(673,709,l),
(478,709,l),
(478,359,l),
(211,710,l),
(61,710,l),
(61,0,l),
(256,0,l),
(256,343,l),
(483,44,l)
);
}
);
width = 735;
}
);
note = Eng;
unicode = 330;
},
{
glyphname = O;
kernLeft = C;
kernRight = O;
layers = (
{
layerId = m01;
shapes = (
{
closed = 1;
nodes = (
(569,53,o),
(659,154,o),
(709,283,o),
(709,355,qs),
(709,421,o),
(661,549,o),
(574,653,o),
(453,715,o),
(379,715,qs),
(309,715,o),
(188,656,o),
(98,555,o),
(48,426,o),
(48,355,qs),
(48,287,o),
(96,158,o),
(184,56,o),
(306,-5,o),
(379,-5,qs),
(449,-5,o)
);
},
{
closed = 1;
nodes = (
(113,539,o),
(195,637,o),
(310,695,o),
(379,695,qs),
(445,695,o),
(558,639,o),
(642,543,o),
(689,421,o),
(689,355,qs),
(689,292,o),
(644,171,o),
(562,73,o),
(448,15,o),
(379,15,qs),
(312,15,o),
(198,71,o),
(114,167,o),
(68,289,o),
(68,355,qs),
(68,418,o)
);
}
);
userData = {
assembly = "NPUSHB[ ]	/* 9 values pushed */
25 0 35 10 3 114 0 9 114
SVTCA[0]	/* SetFreedomAndProjectionVectorToAxis */
CALL[ ]	/* CallFunction */
CALL[ ]	/* CallFunction */
SHP[0]	/* ShiftPointByLastPoint */
SRP1[ ]	/* SetRefPoint1 */
SHP[1]	/* ShiftPointByLastPoint */
IUP[0]	/* InterpolateUntPts */
IUP[1]	/* InterpolateUntPts */";
};
width = 757;
},
{
layerId = "D2DF310C-5735-4FF3-9903-0538932FD5C7";
shapes = (
{
closed = 1;
nodes = (
(567,53,o),
(658,154,o),
(708,283,o),
(708,354,qs),
(708,421,o),
(660,549,o),
(572,653,o),
(450,715,o),
(375,715,qs),
(303,715,o),
(181,656,o),
(90,555,o),
(39,426,o),
(39,355,qs),
(39,287,o),
(87,158,o),
(176,55,o),
(298,-5,o),
(373,-5,qs),
(445,-5,o)
);
},
{
closed = 1;
nodes = (
(164,506,o),
(227,586,o),
(317,633,o),
(374,633,qs),
(428,633,o),
(517,588,o),
(582,509,o),
(617,409,o),
(617,355,qs),
(617,304,o),
(584,204,o),
(521,124,o),
(431,76,o),
(374,76,qs),
(319,76,o),
(229,122,o),
(165,200,o),
(130,301,o),
(130,355,qs),
(130,407,o)
);
}
);
width = 748;
},
{
layerId = "F0331135-C9C8-4C09-BCAA-87CFA41CFCF0";
shapes = (
{
closed = 1;
nodes = (
(593,53,o),
(690,154,o),
(743,282,o),
(743,352,qs),
(743,420,o),
(692,549,o),
(598,653,o),
(466,714,o),
(385,714,qs),
(306,714,o),
(173,656,o),
(76,555,o),
(22,427,o),
(22,356,qs),
(22,287,o),
(73,158,o),
(168,55,o),
(300,-6,o),
(381,-6,qs),
(461,-6,o)
);
},
{
closed = 1;
nodes = (
(239,456,o),
(279,509,o),
(340,541,o),
(382,541,qs),
(423,541,o),
(485,511,o),
(525,458,o),
(545,392,o),
(545,356,qs),
(545,321,o),
(526,254,o),
(487,199,o),
(425,167,o),
(383,167,qs),
(341,167,o),
(280,198,o),
(240,251,o),
(220,318,o),
(220,354,qs),
(220,389,o)
);
}
);
width = 765;
}
);
note = O;
unicode = 79;
},
{
glyphname = OE;
kernLeft = C;
kernRight = AE;
layers = (
{
layerId = m01;
shapes = (
{
closed = 1;
nodes = (
(709,353,l),
(1092,353,l),
(1092,373,l),
(709,373,l),
(709,690,l),
(1146,690,l),
(1146,710,l),
(689,710,l),
(689,475,l),
(667,541,o),
(579,650,o),
(455,715,o),
(379,715,qs),
(309,715,o),
(188,656,o),
(98,555,o),
(48,426,o),
(48,355,qs),
(48,287,o),
(96,158,o),
(185,55,o),
(307,-5,o),
(381,-5,qs),
(453,-5,o),
(576,59,o),
(666,167,o),
(689,234,q),
(689,0,l),
(1155,0,l),
(1155,20,l),
(709,20,l)
);
},
{
closed = 1;
nodes = (
(198,71,o),
(114,167,o),
(68,289,o),
(68,355,qs),
(68,418,o),
(113,539,o),
(195,637,o),
(310,695,o),
(379,695,qs),
(445,695,o),
(558,639,o),
(642,544,o),
(689,422,o),
(689,356,qs),
(689,293,o),
(644,171,o),
(562,73,o),
(448,15,o),
(379,15,qs),
(312,15,o)
);
}
);
userData = {
assembly = "NPUSHB[ ]	/* 20 values pushed */
25 22 2 114 26 29 29 7 41 17 3 114 31 7 9 114 30 2 8 114
SVTCA[0]	/* SetFreedomAndProjectionVectorToAxis */
CALL[ ]	/* CallFunction */
SHP[0]	/* ShiftPointByLastPoint */
CALL[ ]	/* CallFunction */
SHP[0]	/* ShiftPointByLastPoint */
CALL[ ]	/* CallFunction */
SHP[0]	/* ShiftPointByLastPoint */
SRP1[ ]	/* SetRefPoint1 */
IP[ ]	/* InterpolatePts */
MDAP[1]	/* MoveDirectAbsPt */
SHP[1]	/* ShiftPointByLastPoint */
CALL[ ]	/* CallFunction */
SHP[0]	/* ShiftPointByLastPoint */
IUP[0]	/* InterpolateUntPts */
IUP[1]	/* InterpolateUntPts */";
};
width = 1207;
},
{
layerId = "D2DF310C-5735-4FF3-9903-0538932FD5C7";
shapes = (
{
closed = 1;
nodes = (
(710,322,l),
(1031,322,l),
(1031,402,l),
(710,402,l),
(710,630,l),
(1085,630,l),
(1085,710,l),
(620,710,l),
(620,553,l),
(598,598,o),
(526,672,o),
(431,715,o),
(375,715,qs),
(303,715,o),
(180.609,656,o),
(89.575,555,o),
(39,426,o),
(39,355,qs),
(39,287,o),
(87,158,o),
(176,55,o),
(299.245,-5,o),
(374,-5,qs),
(429.385,-5,o),
(524,38,o),
(598,111,o),
(620,157,q),
(620,0,l),
(1094,0,l),
(1094,80,l),
(710,80,l)
);
},
{
closed = 1;
nodes = (
(229,122,o),
(165,200,o),
(130,301,o),
(130,355.052,qs),
(130,406.647,o),
(164.37,505.741,o),
(227,586,o),
(317,634,o),
(373.733,634,qs),
(428,634,o),
(517,588,o),
(582,510,o),
(617,410,o),
(617,355.833,qs),
(617,304.127,o),
(584,204,o),
(521,124,o),
(431,76,o),
(374.176,76,qs),
(319,76,o)
);
}
);
width = 1131;
},
{
layerId = "F0331135-C9C8-4C09-BCAA-87CFA41CFCF0";
shapes = (
{
closed = 1;
nodes = (
(709,276,l),
(937,276,l),
(937,446,l),
(709,446,l),
(709,540,l),
(991,540,l),
(991,710,l),
(514,710,l),
(514,670,l),
(492,684,o),
(444,704,o),
(393,715,o),
(365,715,qs),
(290,715,o),
(165,656,o),
(73,556,o),
(22,427,o),
(22,356,qs),
(22,287,o),
(70,158,o),
(160,55,o),
(285,-5,o),
(361,-5,qs),
(389,-5,o),
(442,6,o),
(492,27,o),
(514,41,q),
(514,0,l),
(1000,0,l),
(1000,170,l),
(709,170,l)
);
},
{
closed = 1;
nodes = (
(273,199,o),
(237,252,o),
(220,318,o),
(220,354,qs),
(220,389,o),
(237,456,o),
(272,510,o),
(325,542,o),
(362,542,qs),
(398,542,o),
(452,511,o),
(487,459,o),
(505,392,o),
(505,356,qs),
(505,321,o),
(488,254,o),
(454,200,o),
(400,168,o),
(363,168,qs),
(327,168,o)
);
}
);
width = 1030;
}
);
note = OE;
unicode = 338;
},
{
glyphname = P;
kernLeft = B;
layers = (
{
layerId = m01;
shapes = (
{
closed = 1;
nodes = (
(119,279,l),
(395,279,ls),
(453,279,o),
(539,341,o),
(588,440,o),
(588,495,qs),
(588,535,o),
(558,611,o),
(505,673,o),
(432,710,o),
(388,710,qs),
(99,710,l),
(99,0,l),
(119,0,l)
);
},
{
closed = 1;
nodes = (
(388,690,ls),
(438,690,o),
(520,635,o),
(568,546,o),
(568,495,qs),
(568,447,o),
(527,357,o),
(449,299,o),
(395,299,qs),
(119,299,l),
(119,690,l)
);
}
);
userData = {
assembly = "NPUSHB[ ]	/* 11 values pushed */
14 12 12 0 24 1 2 114 0 8 114
SVTCA[0]	/* SetFreedomAndProjectionVectorToAxis */
CALL[ ]	/* CallFunction */
CALL[ ]	/* CallFunction */
SHP[0]	/* ShiftPointByLastPoint */
SRP1[ ]	/* SetRefPoint1 */
IP[ ]	/* InterpolatePts */
MDAP[1]	/* MoveDirectAbsPt */
SHP[1]	/* ShiftPointByLastPoint */
IUP[0]	/* InterpolateUntPts */
IUP[1]	/* InterpolateUntPts */";
};
width = 619;
},
{
layerId = "D2DF310C-5735-4FF3-9903-0538932FD5C7";
shapes = (
{
closed = 1;
nodes = (
(175,255,l),
(387,255,ls),
(450,255,o),
(544,320,o),
(596,425,o),
(596,483,qs),
(596,525,o),
(564,606,o),
(506,671,o),
(428,710,o),
(381,710,qs),
(85,710,l),
(85,0,l),
(175,0,l)
);
},
{
closed = 1;
nodes = (
(376,630,ls),
(411,630,o),
(469,592,o),
(505,525,o),
(505,483,qs),
(505,443,o),
(474,375,o),
(419,335,o),
(382,335,qs),
(175,335,l),
(175,630,l)
);
}
);
width = 623;
},
{
layerId = "F0331135-C9C8-4C09-BCAA-87CFA41CFCF0";
shapes = (
{
closed = 1;
nodes = (
(256,218,l),
(372,218,ls),
(442.486,218,o),
(547,289,o),
(606,401.268,o),
(606,463.639,qs),
(606,509,o),
(571,597,o),
(507.063,667.768,o),
(419,710,o),
(367,710,qs),
(61,710,l),
(61,0,l),
(256,0,l)
);
},
{
closed = 1;
nodes = (
(354,540,ls),
(366,540,o),
(391,527,o),
(408,494,o),
(408,464.121,qs),
(408,436,o),
(393,402,o),
(371,388,o),
(359,388,qs),
(256,388,l),
(256,540,l)
);
}
);
width = 623;
}
);
note = P;
unicode = 80;
},
{
glyphname = Thorn;
kernLeft = B;
layers = (
{
layerId = m01;
shapes = (
{
closed = 1;
nodes = (
(119,710,l),
(99,710,l),
(99,0,l),
(119,0,l),
(119,129,l),
(375,129,ls),
(433,129,o),
(519,191,o),
(568,290,o),
(568,345,qs),
(568,385,o),
(538,461,o),
(485,523,o),
(412,560,o),
(368,560,qs),
(119,560,l)
);
},
{
closed = 1;
nodes = (
(119,540,l),
(368,540,ls),
(418,540,o),
(500,485,o),
(548,396,o),
(548,345,qs),
(548,297,o),
(507,207,o),
(429,149,o),
(375,149,qs),
(119,149,l)
);
}
);
userData = {
assembly = "NPUSHB[ ]	/* 15 values pushed */
26 10 25 15 10 15 10 15 12 13 2 114 12 8 114
SVTCA[0]	/* SetFreedomAndProjectionVectorToAxis */
CALL[ ]	/* CallFunction */
CALL[ ]	/* CallFunction */
SRP1[ ]	/* SetRefPoint1 */
IP[ ]	/* InterpolatePts */
IP[ ]	/* InterpolatePts */
MDAP[1]	/* MoveDirectAbsPt */
MDAP[1]	/* MoveDirectAbsPt */
SRP1[ ]	/* SetRefPoint1 */
SHP[1]	/* ShiftPointByLastPoint */
SRP1[ ]	/* SetRefPoint1 */
SHP[1]	/* ShiftPointByLastPoint */
IUP[0]	/* InterpolateUntPts */
IUP[1]	/* InterpolateUntPts */";
};
width = 599;
},
{
layerId = "D2DF310C-5735-4FF3-9903-0538932FD5C7";
shapes = (
{
closed = 1;
nodes = (
(175,710,l),
(85,710,l),
(85,0,l),
(175,0,l),
(175,118,l),
(369,118,ls),
(432.236,118,o),
(526,183,o),
(578,287,o),
(578,345.538,qs),
(578,388.111,o),
(546,469,o),
(488,534,o),
(410.009,573,o),
(363,573,qs),
(175,573,l)
);
},
{
closed = 1;
nodes = (
(175,493,l),
(359,493,ls),
(394,493,o),
(453,453,o),
(488,386,o),
(488,345.818,qs),
(488,308,o),
(458,240,o),
(403.045,198,o),
(365,198,qs),
(175,198,l)
);
}
);
width = 604;
},
{
layerId = "F0331135-C9C8-4C09-BCAA-87CFA41CFCF0";
shapes = (
{
closed = 1;
nodes = (
(256,710,l),
(61,710,l),
(61,0,l),
(256,0,l),
(256,101,l),
(357,101,ls),
(427,101,o),
(532,171,o),
(591,284,o),
(591,347,qs),
(591,392,o),
(556,480,o),
(492,550,o),
(404,592,o),
(352,592,qs),
(256,592,l)
);
},
{
closed = 1;
nodes = (
(256,422,l),
(342,422,ls),
(355,422,o),
(379,405,o),
(396,372,o),
(396,347,qs),
(396,324,o),
(382,289,o),
(360,271,o),
(347,271,qs),
(256,271,l)
);
}
);
width = 605;
}
);
note = Thorn;
unicode = 222;
},
{
glyphname = Q;
kernLeft = C;
kernRight = O;
layers = (
{
layerId = m01;
shapes = (
{
closed = 1;
nodes = (
(569,53,o),
(659,154,o),
(709,283,o),
(709,355,qs),
(709,421,o),
(661,549,o),
(574,653,o),
(453,715,o),
(379,715,qs),
(309,715,o),
(188,656,o),
(98,555,o),
(48,426,o),
(48,355,qs),
(48,287,o),
(96,158,o),
(184,56,o),
(306,-5,o),
(379,-5,qs),
(449,-5,o)
);
},
{
closed = 1;
nodes = (
(198,71,o),
(114,167,o),
(68,289,o),
(68,355,qs),
(68,418,o),
(113,539,o),
(195,637,o),
(310,695,o),
(379,695,qs),
(445,695,o),
(558,639,o),
(642,543,o),
(689,421,o),
(689,355,qs),
(689,292,o),
(644,171,o),
(562,73,o),
(448,15,o),
(379,15,qs),
(312,15,o)
);
},
{
closed = 1;
nodes = (
(672,0,l),
(524,186,l),
(499,186,l),
(647,0,l)
);
}
);
userData = {
assembly = "NPUSHB[ ]	/* 13 values pushed */
20 0 30 10 42 8 114 10 3 114 0 9 114
SVTCA[0]	/* SetFreedomAndProjectionVectorToAxis */
CALL[ ]	/* CallFunction */
CALL[ ]	/* CallFunction */
CALL[ ]	/* CallFunction */
SRP1[ ]	/* SetRefPoint1 */
SHP[1]	/* ShiftPointByLastPoint */
SRP1[ ]	/* SetRefPoint1 */
SHP[1]	/* ShiftPointByLastPoint */
IUP[0]	/* InterpolateUntPts */
IUP[1]	/* InterpolateUntPts */";
};
width = 757;
},
{
layerId = "D2DF310C-5735-4FF3-9903-0538932FD5C7";
shapes = (
{
closed = 1;
nodes = (
(567,53,o),
(658,154,o),
(708,283,o),
(708,354,qs),
(708,421,o),
(660,549,o),
(572,653,o),
(450,715,o),
(375,715,qs),
(303,715,o),
(181,656,o),
(90,555,o),
(39,426,o),
(39,355,qs),
(39,287,o),
(87,158,o),
(176,56,o),
(298,-5,o),
(373,-5,qs),
(445,-5,o)
);
},
{
closed = 1;
nodes = (
(229,122,o),
(165,200,o),
(130,301,o),
(130,355,qs),
(130,407,o),
(164,506,o),
(227,586,o),
(317,634,o),
(374,634,qs),
(428,634,o),
(517,588,o),
(582,510,o),
(617,409,o),
(617,355,qs),
(617,304,o),
(584,204,o),
(521,124,o),
(431,76,o),
(374,76,qs),
(319,76,o)
);
},
{
closed = 1;
nodes = (
(701,0,l),
(502,232,l),
(414,232,l),
(613,0,l)
);
}
);
width = 746;
},
{
layerId = "F0331135-C9C8-4C09-BCAA-87CFA41CFCF0";
shapes = (
{
closed = 1;
nodes = (
(593,53,o),
(690,154,o),
(743,282,o),
(743,352,qs),
(743,420,o),
(692,549,o),
(598,653,o),
(466,715,o),
(385,715,qs),
(306,715,o),
(173,656,o),
(76,556,o),
(22,427,o),
(22,356,qs),
(22,287,o),
(73,158,o),
(168,55,o),
(300,-5,o),
(381,-5,qs),
(461,-5,o)
);
},
{
closed = 1;
nodes = (
(280,199,o),
(240,252,o),
(220,318,o),
(220,354,qs),
(220,389,o),
(239,456,o),
(279,510,o),
(340,542,o),
(382,542,qs),
(423,542,o),
(485,511,o),
(525,459,o),
(545,392,o),
(545,356,qs),
(545,321,o),
(526,254,o),
(487,200,o),
(425,168,o),
(383,168,qs),
(341,168,o)
);
},
{
closed = 1;
nodes = (
(761,0,l),
(485,300,l),
(303,300,l),
(579,0,l)
);
}
);
width = 765;
}
);
note = Q;
unicode = 81;
},
{
glyphname = R;
kernLeft = B;
kernRight = R;
layers = (
{
layerId = m01;
shapes = (
{
closed = 1;
nodes = (
(119,279,l),
(383,279,l),
(563,0,l),
(587,0,l),
(407,279,l),
(461,283,o),
(542,345,o),
(588,440,o),
(588,495,qs),
(588,535,o),
(558,611,o),
(505,673,o),
(432,710,o),
(388,710,qs),
(99,710,l),
(99,0,l),
(119,0,l)
);
},
{
closed = 1;
nodes = (
(388,690,ls),
(438,690,o),
(520,635,o),
(568,546,o),
(568,495,qs),
(568,446,o),
(526,356,o),
(449,299,o),
(395,299,qs),
(119,299,l),
(119,690,l)
);
}
);
userData = {
assembly = "NPUSHB[ ]	/* 13 values pushed */
17 11 15 15 0 27 1 2 114 13 0 8 114
SVTCA[0]	/* SetFreedomAndProjectionVectorToAxis */
CALL[ ]	/* CallFunction */
SHP[0]	/* ShiftPointByLastPoint */
CALL[ ]	/* CallFunction */
SHP[0]	/* ShiftPointByLastPoint */
SRP1[ ]	/* SetRefPoint1 */
IP[ ]	/* InterpolatePts */
MDAP[1]	/* MoveDirectAbsPt */
SHP[1]	/* ShiftPointByLastPoint */
SHP[1]	/* ShiftPointByLastPoint */
IUP[0]	/* InterpolateUntPts */
IUP[1]	/* InterpolateUntPts */";
};
width = 642;
},
{
layerId = "D2DF310C-5735-4FF3-9903-0538932FD5C7";
shapes = (
{
closed = 1;
nodes = (
(175,255,l),
(363,255,l),
(525,0,l),
(627,0,l),
(455,272,l),
(500,284,o),
(567,346,o),
(604,434,o),
(604,483,qs),
(604,525,o),
(572,606,o),
(514,671,o),
(436,710,o),
(389,710,qs),
(85,710,l),
(85,0,l),
(175,0,l)
);
},
{
closed = 1;
nodes = (
(384,630,ls),
(419,630,o),
(477,590,o),
(513,523,o),
(513,483,qs),
(513,444,o),
(482,376,o),
(427,335,o),
(390,335,qs),
(175,335,l),
(175,630,l)
);
}
);
width = 657;
},
{
layerId = "F0331135-C9C8-4C09-BCAA-87CFA41CFCF0";
shapes = (
{
closed = 1;
nodes = (
(256,218,l),
(335,218,l),
(460,0,l),
(674,0,l),
(524,261,l),
(556,284,o),
(602,347,o),
(626,423,o),
(626,464,qs),
(626,509,o),
(591,597,o),
(527,668,o),
(439,710,o),
(387,710,qs),
(61,710,l),
(61,0,l),
(256,0,l)
);
},
{
closed = 1;
nodes = (
(374,540,ls),
(386,540,o),
(411,522,o),
(428,489,o),
(428,464,qs),
(428,440,o),
(413,406,o),
(391,388,o),
(379,388,qs),
(256,388,l),
(256,540,l)
);
}
);
width = 675;
}
);
note = R;
unicode = 82;
},
{
glyphname = S;
kernLeft = S;
kernRight = S;
layers = (
{
layerId = m01;
shapes = (
{
closed = 1;
nodes = (
(494,661,o),
(431,698,o),
(356,715,o),
(311,715,qs),
(236,715,o),
(124,671,o),
(63,586,o),
(63,524,qs),
(63,465,o),
(120,398,o),
(230,361,o),
(308,346,qs),
(390,330,o),
(495,289,o),
(545,224,o),
(545,171,qs),
(545,92,o),
(422,12,o),
(316,12,qs),
(276,12,o),
(204,24,o),
(139,50,o),
(81,90,o),
(54,118,q),
(39,105,l),
(77,68,o),
(161,19,o),
(258,-5,o),
(315,-5,qs),
(373,-5,o),
(466,19,o),
(531,64,o),
(565,131,o),
(565,174,qs),
(565,237,o),
(502,308,o),
(386,349,o),
(307,365,qs),
(228,381,o),
(129,416,o),
(83,475,o),
(83,526,qs),
(83,603,o),
(192,696,o),
(313,696,qs),
(345,696,o),
(398,688,o),
(445,670,o),
(488,639,o),
(509,616,q),
(522,630,l)
);
}
);
userData = {
assembly = "NPUSHB[ ]	/* 11 values pushed */
42 34 21 5 46 3 114 31 21 9 114
SVTCA[0]	/* SetFreedomAndProjectionVectorToAxis */
CALL[ ]	/* CallFunction */
SHP[0]	/* ShiftPointByLastPoint */
CALL[ ]	/* CallFunction */
SHP[0]	/* ShiftPointByLastPoint */
SRP2[ ]	/* SetRefPoint2 */
IP[ ]	/* InterpolatePts */
IP[ ]	/* InterpolatePts */
IUP[0]	/* InterpolateUntPts */
IUP[1]	/* InterpolateUntPts */";
};
width = 602;
},
{
layerId = "D2DF310C-5735-4FF3-9903-0538932FD5C7";
shapes = (
{
closed = 1;
nodes = (
(514,659,o),
(442,695,o),
(359,715,o),
(311,715,qs),
(238,715,o),
(122,667,o),
(56,573,o),
(56,505,qs),
(56,449,o),
(105,379,o),
(203,336,o),
(275,318,qs),
(341,302,o),
(433,270,o),
(480,222,o),
(480,182,qs),
(480,129,o),
(396,74,o),
(320,74,qs),
(280,74,o),
(204,91,o),
(139,119,o),
(88,152,o),
(72,169,q),
(29,93,l),
(69,60,o),
(161,16,o),
(264,-7,o),
(318,-7,qs),
(373,-7,o),
(467,16,o),
(537,65,o),
(576,140,o),
(576,191,qs),
(576,255,o),
(518,332,o),
(410,378,o),
(336,394,qs),
(272,409,o),
(189,437,o),
(149,481,o),
(149,519,qs),
(149,573,o),
(227,635,o),
(309,635,qs),
(341,635,o),
(400,622,o),
(450,601,o),
(490,575,o),
(502,561,q),
(544,634,l)
);
}
);
width = 609;
},
{
layerId = "F0331135-C9C8-4C09-BCAA-87CFA41CFCF0";
shapes = (
{
closed = 1;
nodes = (
(543,655,o),
(458,691,o),
(361,716,o),
(309,716,qs),
(239,716,o),
(118,661,o),
(44,555,o),
(44,476,qs),
(44,424,o),
(82,351,o),
(162,298,o),
(224,277,qs),
(267,263,o),
(338,242,o),
(382,219,o),
(382,198,qs),
(382,184,o),
(357,167,o),
(325,167,qs),
(284,167,o),
(203,191,o),
(137,221,o),
(97,245,o),
(97,245,q),
(13,74,l),
(56,49,o),
(160,12,o),
(271,-9,o),
(322,-9,qs),
(372,-9,o),
(468,14,o),
(546,66,o),
(592,153,o),
(592,217,qs),
(592,284,o),
(540,365,o),
(444,417,o),
(378,437,qs),
(337,450,o),
(278,468,o),
(246,490,o),
(246,508,qs),
(246,527,o),
(278,543,o),
(303,543,qs),
(335,543,o),
(401,523,o),
(457,498,o),
(491,478,o),
(491,478,q),
(575,639,l)
);
}
);
width = 617;
}
);
note = S;
unicode = 83;
},
{
glyphname = uni1E9E;
layers = (
{
layerId = m01;
shapes = (
{
closed = 1;
nodes = (
(548,71,o),
(548,139,qs),
(548,184,o),
(500,233,o),
(410,263,o),
(348,277,qs),
(302,288,o),
(240,310,o),
(208,347,o),
(208,380,qs),
(208,422,o),
(256,476,o),
(341,509,o),
(455,527,o),
(522,534,q),
(520,550,ls),
(514,599,o),
(465,672,o),
(382,714,o),
(326,714,qs),
(273,714,o),
(184,676,o),
(119,606,o),
(84,509,o),
(84,449,qs),
(84,0,l),
(104,0,l),
(104,449,ls),
(104,523,o),
(160,633,o),
(259,694,o),
(323,694,qs),
(374,694,o),
(453,656,o),
(500,587,o),
(501,539,q),
(505,551,l),
(441,544,o),
(326,524,o),
(238,489,o),
(188,428,o),
(188,378,qs),
(188,338,o),
(223,295,o),
(294,270,o),
(347,257,qs),
(406,243,o),
(487,216,o),
(528,174,o),
(528,136,qs),
(528,77,o),
(432,10,o),
(355,10,qs),
(300,10,o),
(212,48,o),
(172,87,q),
(157,74,l),
(196,31,o),
(296,-10,o),
(355,-10,qs),
(442,-10,o)
);
}
);
userData = {
assembly = "NPUSHB[ ]	/* 20 values pushed */
10 58 18 50 45 24 23 7 0 28 40 3 114 34 8 114 7 0 9 114
SVTCA[0]	/* SetFreedomAndProjectionVectorToAxis */
CALL[ ]	/* CallFunction */
SHP[0]	/* ShiftPointByLastPoint */
CALL[ ]	/* CallFunction */
CALL[ ]	/* CallFunction */
SHP[0]	/* ShiftPointByLastPoint */
SRP2[ ]	/* SetRefPoint2 */
SLOOP[ ]	/* SetLoopVariable */
IP[ ]	/* InterpolatePts */
IUP[0]	/* InterpolateUntPts */
IUP[1]	/* InterpolateUntPts */";
};
width = 591;
},
{
layerId = "D2DF310C-5735-4FF3-9903-0538932FD5C7";
shapes = (
{
closed = 1;
nodes = (
(614,73,o),
(614,147,qs),
(614,195,o),
(567,249,o),
(480,283,o),
(420,300,qs),
(382,311,o),
(329,331,o),
(302,361,o),
(302,386,qs),
(302,418,o),
(343,454,o),
(415,475,o),
(511,490,o),
(566,499,q),
(562,526,ls),
(554,583,o),
(491,667,o),
(390,714,o),
(325,714,qs),
(271,714,o),
(179,681,o),
(109,620,o),
(71,537,o),
(71,487,qs),
(71,0,l),
(155,0,l),
(155,473,ls),
(155,517,o),
(192,592,o),
(266,638,o),
(323,638,qs),
(362,638,o),
(430,615,o),
(476,567,o),
(480,531,q),
(496,556,l),
(446,551,o),
(347,532,o),
(267,495,o),
(219,430,o),
(219,379,qs),
(219,337,o),
(255,282,o),
(329,245,o),
(385,229,qs),
(429,217,o),
(493,198,o),
(528,170,o),
(528,141,qs),
(528,101,o),
(460,60,o),
(406,60,qs),
(359,60,o),
(269,96,o),
(224,138,q),
(190,76,l),
(231,33,o),
(345,-10,o),
(410,-10,qs),
(502,-10,o)
);
}
);
width = 648;
},
{
layerId = "F0331135-C9C8-4C09-BCAA-87CFA41CFCF0";
shapes = (
{
closed = 1;
nodes = (
(697,85,o),
(697,171,qs),
(697,219,o),
(662,271,o),
(585,306,o),
(522,327,qs),
(504,333,o),
(474,346,o),
(455,361,o),
(455,371,qs),
(455,385,o),
(491,406,o),
(552,424,o),
(625,438,o),
(662,444,q),
(653,496,ls),
(640,571,o),
(558,667,o),
(434,714,o),
(357,714,qs),
(296,714,o),
(184,683,o),
(98,619,o),
(48,516,o),
(48,444,qs),
(48,0,l),
(228,0,l),
(228,409,ls),
(228,459,o),
(254,528,o),
(315,564,o),
(365,564,qs),
(397,564,o),
(441,546,o),
(471,501,o),
(479,459,q),
(534,548,l),
(471,542,o),
(376,512,o),
(312,463,o),
(279,396,o),
(279,353,qs),
(279,306,o),
(320,251,o),
(403,213,o),
(465,191,qs),
(485,184,o),
(506,172,o),
(514,159,o),
(514,152,qs),
(514,139,o),
(494,127,o),
(475,127,qs),
(440,127,o),
(360,163,o),
(316,195,q),
(251,78,l),
(297,35,o),
(430,-10,o),
(496,-10,qs),
(592,-10,o)
);
}
);
width = 721;
}
);
note = uni1E9E;
unicode = 7838;
},
{
glyphname = uni018F;
kernRight = O;
layers = (
{
layerId = m01;
shapes = (
{
closed = 1;
nodes = (
(551,45,o),
(641,143,o),
(691,272,o),
(691,346,qs),
(691,422,o),
(639,555,o),
(547,657,o),
(427,715,o),
(359,715,qs),
(299,715,o),
(188,671,o),
(105,596,o),
(86,548,q),
(106,539,l),
(125,586,o),
(203,656,o),
(304,694,o),
(357,694,qs),
(419,694,o),
(527,644,o),
(612,554,o),
(664,433,o),
(669,362,q),
(33,362,l),
(33,360,o),
(33,355,o),
(33,352,qs),
(33,277,o),
(83,145,o),
(174,46,o),
(295,-10,o),
(366,-10,qs),
(434,-10,o)
);
},
{
closed = 1;
nodes = (
(146,96,o),
(63,244,o),
(56,340,q),
(669,340,l),
(665,246,o),
(582,98,o),
(447,12,o),
(364,12,qs),
(281,12,o)
);
}
);
userData = {
assembly = "NPUSHB[ ]	/* 12 values pushed */
8 38 38 0 14 23 3 114 33 0 9 114
SVTCA[0]	/* SetFreedomAndProjectionVectorToAxis */
CALL[ ]	/* CallFunction */
SHP[0]	/* ShiftPointByLastPoint */
CALL[ ]	/* CallFunction */
SHP[0]	/* ShiftPointByLastPoint */
SRP1[ ]	/* SetRefPoint1 */
IP[ ]	/* InterpolatePts */
MDAP[1]	/* MoveDirectAbsPt */
SHP[1]	/* ShiftPointByLastPoint */
IUP[0]	/* InterpolateUntPts */
IUP[1]	/* InterpolateUntPts */";
};
width = 739;
},
{
layerId = "D2DF310C-5735-4FF3-9903-0538932FD5C7";
shapes = (
{
closed = 1;
nodes = (
(554,50,o),
(645,147,o),
(696,278,o),
(696,353,qs),
(696,429,o),
(645,560,o),
(555,659,o),
(436,715,o),
(367,715,qs),
(306,715,o),
(191,670,o),
(99,591,o),
(73,538,q),
(158,499,l),
(171,538,o),
(231,598,o),
(313,632,o),
(359,632,qs),
(405,632,o),
(486,596,o),
(551,531,o),
(592,443,o),
(597,392,q),
(30,392,l),
(29,386,o),
(27,362,o),
(27,349,qs),
(27,276,o),
(79,148,o),
(172,50,o),
(294,-5,o),
(364,-5,qs),
(434,-5,o)
);
},
{
closed = 1;
nodes = (
(195,139,o),
(128,247,o),
(124,314,q),
(599,314,l),
(595,245,o),
(531,138,o),
(429,76,o),
(366,76,qs),
(302,76,o)
);
}
);
width = 736;
},
{
layerId = "F0331135-C9C8-4C09-BCAA-87CFA41CFCF0";
shapes = (
{
closed = 1;
nodes = (
(598,60,o),
(690,167,o),
(736,299,o),
(736,366,qs),
(736,425,o),
(689,547,o),
(596,651,o),
(462,714,o),
(375,714,qs),
(295,714,o),
(165,666,o),
(72,579,o),
(45,521,q),
(248,464,l),
(256,489,o),
(295,524,o),
(349,543,o),
(377,543,qs),
(403,543,o),
(453,528,o),
(493,496,o),
(520,446,o),
(523,411,q),
(18,411,l),
(16,396,o),
(12,357,o),
(12,338,qs),
(12,282,o),
(59,162,o),
(151,59,o),
(286,-5,o),
(375,-5,qs),
(464,-5,o)
);
},
{
closed = 1;
nodes = (
(275,189,o),
(234,236,o),
(228,268,q),
(518,268,l),
(513,236,o),
(475,189,o),
(416,165,o),
(378,165,qs),
(338,165,o)
);
}
);
width = 758;
}
);
note = uni018F;
unicode = 399;
},
{
glyphname = T;
kernLeft = T;
kernRight = T;
layers = (
{
layerId = m01;
shapes = (
{
closed = 1;
nodes = (
(18,710,l),
(18,690,l),
(290,690,l),
(290,0,l),
(310,0,l),
(310,690,l),
(582,690,l),
(582,710,l)
);
}
);
userData = {
assembly = "NPUSHB[ ]	/* 9 values pushed */
1 5 5 6 2 114 3 8 114
SVTCA[0]	/* SetFreedomAndProjectionVectorToAxis */
CALL[ ]	/* CallFunction */
CALL[ ]	/* CallFunction */
SHP[0]	/* ShiftPointByLastPoint */
SRP1[ ]	/* SetRefPoint1 */
SHP[1]	/* ShiftPointByLastPoint */
IUP[0]	/* InterpolateUntPts */
IUP[1]	/* InterpolateUntPts */";
};
width = 600;
},
{
layerId = "D2DF310C-5735-4FF3-9903-0538932FD5C7";
shapes = (
{
closed = 1;
nodes = (
(17,710,l),
(17,630,l),
(262,630,l),
(262,0,l),
(352,0,l),
(352,630,l),
(597,630,l),
(597,710,l)
);
}
);
width = 614;
},
{
layerId = "F0331135-C9C8-4C09-BCAA-87CFA41CFCF0";
shapes = (
{
closed = 1;
nodes = (
(10,710,l),
(10,540,l),
(215,540,l),
(215,0,l),
(410,0,l),
(410,540,l),
(614,540,l),
(614,710,l)
);
}
);
width = 624;
}
);
note = T;
unicode = 84;
},
{
glyphname = Tbar;
kernLeft = T;
kernRight = T;
layers = (
{
layerId = m01;
shapes = (
{
closed = 1;
nodes = (
(562,327,l),
(78,327,l),
(78,307,l),
(562,307,l)
);
},
{
closed = 1;
nodes = (
(38,710,l),
(38,690,l),
(310,690,l),
(310,0,l),
(330,0,l),
(330,690,l),
(602,690,l),
(602,710,l)
);
}
);
userData = {
assembly = "NPUSHB[ ]	/* 14 values pushed */
5 9 9 10 1 0 0 7 10 2 114 7 8 114
SVTCA[0]	/* SetFreedomAndProjectionVectorToAxis */
CALL[ ]	/* CallFunction */
CALL[ ]	/* CallFunction */
SRP2[ ]	/* SetRefPoint2 */
IP[ ]	/* InterpolatePts */
MDAP[1]	/* MoveDirectAbsPt */
SHP[1]	/* ShiftPointByLastPoint */
SRP1[ ]	/* SetRefPoint1 */
SHP[1]	/* ShiftPointByLastPoint */
SRP1[ ]	/* SetRefPoint1 */
SHP[1]	/* ShiftPointByLastPoint */
IUP[0]	/* InterpolateUntPts */
IUP[1]	/* InterpolateUntPts */";
};
width = 640;
},
{
layerId = "D2DF310C-5735-4FF3-9903-0538932FD5C7";
shapes = (
{
closed = 1;
nodes = (
(567,375,l),
(75,375,l),
(75,309,l),
(567,309,l)
);
},
{
closed = 1;
nodes = (
(31,710,l),
(31,630,l),
(276,630,l),
(276,0,l),
(366,0,l),
(366,630,l),
(611,630,l),
(611,710,l)
);
}
);
width = 642;
},
{
layerId = "F0331135-C9C8-4C09-BCAA-87CFA41CFCF0";
shapes = (
{
closed = 1;
nodes = (
(575,356,l),
(71,356,l),
(71,268,l),
(575,268,l)
);
},
{
closed = 1;
nodes = (
(21,710,l),
(21,540,l),
(226,540,l),
(226,0,l),
(421,0,l),
(421,540,l),
(625,540,l),
(625,710,l)
);
}
);
width = 646;
}
);
note = Tbar;
unicode = 358;
},
{
glyphname = U;
kernLeft = U;
kernRight = U;
layers = (
{
layerId = m01;
shapes = (
{
closed = 1;
nodes = (
(572,54,o),
(639,155,o),
(669,285,o),
(669,355,qs),
(669,710,l),
(649,710,l),
(649,355,ls),
(649,293,o),
(624,172,o),
(564,74,o),
(458,15,o),
(378,15,qs),
(299,15,o),
(195,72,o),
(134,169,o),
(108,291,o),
(108,355,qs),
(108,710,l),
(88,710,l),
(88,355,ls),
(88,288,o),
(116,160,o),
(182,56,o),
(295,-5,o),
(379,-5,qs),
(461,-5,o)
);
}
);
userData = {
assembly = "NPUSHB[ ]	/* 9 values pushed */
20 13 0 6 2 114 0 9 114
SVTCA[0]	/* SetFreedomAndProjectionVectorToAxis */
CALL[ ]	/* CallFunction */
CALL[ ]	/* CallFunction */
SRP1[ ]	/* SetRefPoint1 */
SHP[1]	/* ShiftPointByLastPoint */
SHP[0]	/* ShiftPointByLastPoint */
IUP[0]	/* InterpolateUntPts */
IUP[1]	/* InterpolateUntPts */";
};
width = 756;
},
{
layerId = "D2DF310C-5735-4FF3-9903-0538932FD5C7";
shapes = (
{
closed = 1;
nodes = (
(575,52,o),
(647,150,o),
(680,279,o),
(680,351,qs),
(680,710,l),
(590,710,l),
(590,351,ls),
(590,300,o),
(569,202,o),
(521,123,o),
(439,76,o),
(377,76,qs),
(316,76,o),
(234,122,o),
(186,200,o),
(165,299,o),
(165,351,qs),
(165,710,l),
(75,710,l),
(75,351,ls),
(75,283,o),
(107,155,o),
(177,54,o),
(293,-5,o),
(378,-5,qs),
(460,-5,o)
);
}
);
width = 755;
},
{
layerId = "F0331135-C9C8-4C09-BCAA-87CFA41CFCF0";
shapes = (
{
closed = 1;
nodes = (
(575,47,o),
(653,143,o),
(692,271,o),
(692,345,qs),
(692,710,l),
(497,710,l),
(497,345,ls),
(497,311,o),
(483,247,o),
(454,196,o),
(406,167,o),
(371,167,qs),
(337,167,o),
(290,196,o),
(260,246,o),
(246,310,o),
(246,345,qs),
(246,710,l),
(51,710,l),
(51,345,ls),
(51,275,o),
(87,148,o),
(164,50,o),
(286,-6,o),
(371,-6,qs),
(454,-6,o)
);
}
);
width = 743;
}
);
note = U;
unicode = 85;
},
{
glyphname = V;
layers = (
{
layerId = m01;
shapes = (
{
closed = 1;
nodes = (
(328,0,l),
(350,0,l),
(659,710,l),
(637,710,l),
(339,25,l),
(40,710,l),
(19,710,l)
);
}
);
userData = {
assembly = "NPUSHB[ ]	/* 9 values pushed */
1 5 3 6 2 114 5 8 114
SVTCA[0]	/* SetFreedomAndProjectionVectorToAxis */
CALL[ ]	/* CallFunction */
CALL[ ]	/* CallFunction */
SHP[0]	/* ShiftPointByLastPoint */
SRP2[ ]	/* SetRefPoint2 */
IP[ ]	/* InterpolatePts */
IUP[0]	/* InterpolateUntPts */
IUP[1]	/* InterpolateUntPts */";
};
width = 678;
},
{
layerId = "D2DF310C-5735-4FF3-9903-0538932FD5C7";
shapes = (
{
closed = 1;
nodes = (
(299,0,l),
(381,0,l),
(669,710,l),
(574,710,l),
(340,113,l),
(105,710,l),
(10,710,l)
);
}
);
width = 680;
},
{
layerId = "F0331135-C9C8-4C09-BCAA-87CFA41CFCF0";
shapes = (
{
closed = 1;
nodes = (
(240,0,l),
(434,0,l),
(679,710,l),
(474,710,l),
(337,225,l),
(198,710,l),
(-8,710,l)
);
}
);
width = 672;
}
);
note = V;
unicode = 86;
},
{
glyphname = W;
kernLeft = W;
kernRight = W;
layers = (
{
layerId = m01;
shapes = (
{
closed = 1;
nodes = (
(339,25,l),
(41,710,l),
(19,710,l),
(328,0,l),
(350,0,l),
(519,389,l),
(688,0,l),
(710,0,l),
(1019,710,l),
(997,710,l),
(699,25,l),
(529,414,l),
(656,704,l),
(634,704,l),
(518,438,l),
(403,704,l),
(381,704,l),
(508,414,l)
);
}
);
userData = {
assembly = "NPUSHB[ ]	/* 20 values pushed */
16 6 11 17 5 2 6 13 8 4 4 1 1 14 2 114 10 13 8 114
SVTCA[0]	/* SetFreedomAndProjectionVectorToAxis */
CALL[ ]	/* CallFunction */
SHP[0]	/* ShiftPointByLastPoint */
CALL[ ]	/* CallFunction */
SHP[0]	/* ShiftPointByLastPoint */
MDAP[1]	/* MoveDirectAbsPt */
SHP[0]	/* ShiftPointByLastPoint */
MDAP[1]	/* MoveDirectAbsPt */
SHP[0]	/* ShiftPointByLastPoint */
SRP1[ ]	/* SetRefPoint1 */
SLOOP[ ]	/* SetLoopVariable */
IP[ ]	/* InterpolatePts */
IUP[0]	/* InterpolateUntPts */
IUP[1]	/* InterpolateUntPts */";
};
width = 1038;
},
{
layerId = "D2DF310C-5735-4FF3-9903-0538932FD5C7";
shapes = (
{
closed = 1;
nodes = (
(347,104,l),
(106,710,l),
(9,710,l),
(305,0,l),
(383,0,l),
(525,335,l),
(666,0,l),
(744,0,l),
(1041,710,l),
(943,710,l),
(703,104,l),
(581,397,l),
(704,706,l),
(619,706,l),
(524,459,l),
(430,706,l),
(345,706,l),
(468,397,l)
);
}
);
width = 1049;
},
{
layerId = "F0331135-C9C8-4C09-BCAA-87CFA41CFCF0";
shapes = (
{
closed = 1;
nodes = (
(353,226,l),
(199,710,l),
(-12,710,l),
(256,0,l),
(425,0,l),
(528,254,l),
(632,0,l),
(801,0,l),
(1069,710,l),
(857,710,l),
(704,226,l),
(653,371,l),
(773,710,l),
(594,710,l),
(528,491,l),
(463,710,l),
(284,710,l),
(402,371,l)
);
}
);
width = 1057;
}
);
note = W;
unicode = 87;
},
{
glyphname = X;
layers = (
{
layerId = m01;
shapes = (
{
closed = 1;
nodes = (
(298,350,l),
(19,0,l),
(45,0,l),
(311,334,l),
(577,0,l),
(602,0,l),
(323,350,l),
(610,710,l),
(585,710,l),
(311,366,l),
(37,710,l),
(11,710,l)
);
}
);
userData = {
assembly = "NPUSHB[ ]	/* 14 values pushed */
7 4 10 1 4 9 3 11 2 114 6 9 8 114
SVTCA[0]	/* SetFreedomAndProjectionVectorToAxis */
CALL[ ]	/* CallFunction */
SHP[0]	/* ShiftPointByLastPoint */
CALL[ ]	/* CallFunction */
SHP[0]	/* ShiftPointByLastPoint */
SRP2[ ]	/* SetRefPoint2 */
SLOOP[ ]	/* SetLoopVariable */
IP[ ]	/* InterpolatePts */
IUP[0]	/* InterpolateUntPts */
IUP[1]	/* InterpolateUntPts */";
};
width = 621;
},
{
layerId = "D2DF310C-5735-4FF3-9903-0538932FD5C7";
shapes = (
{
closed = 1;
nodes = (
(268,350,l),
(11,0,l),
(113,0,l),
(319,284,l),
(525,0,l),
(626,0,l),
(369,350,l),
(634,710,l),
(533,710,l),
(319,416,l),
(105,710,l),
(3,710,l)
);
}
);
width = 637;
},
{
layerId = "F0331135-C9C8-4C09-BCAA-87CFA41CFCF0";
shapes = (
{
closed = 1;
nodes = (
(212,350,l),
(-3,0,l),
(208,0,l),
(329,214,l),
(450,0,l),
(660,0,l),
(445,350,l),
(668,710,l),
(458,710,l),
(329,486,l),
(200,710,l),
(-11,710,l)
);
}
);
width = 657;
}
);
note = X;
unicode = 88;
},
{
glyphname = Y;
kernLeft = Y;
kernRight = Y;
layers = (
{
layerId = m01;
shapes = (
{
closed = 1;
nodes = (
(310,277,l),
(310,0,l),
(330,0,l),
(330,275,l),
(618,710,l),
(595,710,l),
(320,298,l),
(46,710,l),
(23,710,l)
);
}
);
userData = {
assembly = "NPUSHB[ ]	/* 12 values pushed */
4 7 1 3 6 3 8 2 114 6 8 114
SVTCA[0]	/* SetFreedomAndProjectionVectorToAxis */
CALL[ ]	/* CallFunction */
CALL[ ]	/* CallFunction */
SHP[0]	/* ShiftPointByLastPoint */
SRP2[ ]	/* SetRefPoint2 */
SLOOP[ ]	/* SetLoopVariable */
IP[ ]	/* InterpolatePts */
IUP[0]	/* InterpolateUntPts */
IUP[1]	/* InterpolateUntPts */";
};
width = 641;
},
{
layerId = "D2DF310C-5735-4FF3-9903-0538932FD5C7";
shapes = (
{
closed = 1;
nodes = (
(282,261,l),
(282,0,l),
(372,0,l),
(372,259,l),
(642,710,l),
(544,710,l),
(327,340,l),
(112,710,l),
(13,710,l)
);
}
);
width = 655;
},
{
layerId = "F0331135-C9C8-4C09-BCAA-87CFA41CFCF0";
shapes = (
{
closed = 1;
nodes = (
(235,237,l),
(235,0,l),
(429,0,l),
(429,235,l),
(674,710,l),
(462,710,l),
(332,420,l),
(205,710,l),
(-6,710,l)
);
}
);
width = 666;
}
);
note = Y;
unicode = 89;
},
{
glyphname = Z;
kernLeft = Z;
kernRight = Z;
layers = (
{
layerId = m01;
shapes = (
{
closed = 1;
nodes = (
(591,0,l),
(591,20,l),
(53,20,l),
(595,690,l),
(595,710,l),
(33,710,l),
(33,690,l),
(570,690,l),
(28,20,l),
(28,0,l)
);
}
);
userData = {
assembly = "NPUSHB[ ]	/* 12 values pushed */
0 6 6 9 8 114 5 2 2 3 2 114
SVTCA[0]	/* SetFreedomAndProjectionVectorToAxis */
CALL[ ]	/* CallFunction */
SHP[0]	/* ShiftPointByLastPoint */
SRP1[ ]	/* SetRefPoint1 */
SHP[1]	/* ShiftPointByLastPoint */
CALL[ ]	/* CallFunction */
SHP[0]	/* ShiftPointByLastPoint */
SRP1[ ]	/* SetRefPoint1 */
SHP[1]	/* ShiftPointByLastPoint */
IUP[0]	/* InterpolateUntPts */
IUP[1]	/* InterpolateUntPts */";
};
width = 624;
},
{
layerId = "D2DF310C-5735-4FF3-9903-0538932FD5C7";
shapes = (
{
closed = 1;
nodes = (
(595,0,l),
(595,80,l),
(145,80,l),
(595,640,l),
(595,710,l),
(41,710,l),
(41,630,l),
(490,630,l),
(32,70,l),
(32,0,l)
);
}
);
width = 631;
},
{
layerId = "F0331135-C9C8-4C09-BCAA-87CFA41CFCF0";
shapes = (
{
closed = 1;
nodes = (
(590,0,l),
(590,170,l),
(282,170,l),
(584,565,l),
(584,710,l),
(42,710,l),
(42,540,l),
(349,540,l),
(27,145,l),
(27,0,l)
);
}
);
width = 622;
}
);
note = Z;
unicode = 90;
},
{
glyphname = W.ss09;
layers = (
{
layerId = m01;
shapes = (
{
closed = 1;
nodes = (
(758,25,l),
(519,710,l),
(497,710,l),
(269,25,l),
(50,710,l),
(29,710,l),
(258,0,l),
(280,0,l),
(509,678,l),
(747,0,l),
(769,0,l),
(998,710,l),
(976,710,l)
);
}
);
userData = {
assembly = "NPUSHB[ ]	/* 11 values pushed */
11 8 3 3 5 1 10 7 0 2 114
SVTCA[0]	/* SetFreedomAndProjectionVectorToAxis */
CALL[ ]	/* CallFunction */
SHP[0]	/* ShiftPointByLastPoint */
SHP[0]	/* ShiftPointByLastPoint */
MDAP[1]	/* MoveDirectAbsPt */
SHP[1]	/* ShiftPointByLastPoint */
SLOOP[ ]	/* SetLoopVariable */
IP[ ]	/* InterpolatePts */
IUP[0]	/* InterpolateUntPts */
IUP[1]	/* InterpolateUntPts */";
};
width = 1027;
},
{
layerId = "D2DF310C-5735-4FF3-9903-0538932FD5C7";
shapes = (
{
closed = 1;
nodes = (
(779,133,l),
(584,710,l),
(486,710,l),
(298,133,l),
(119,710,l),
(18,710,l),
(243,0,l),
(337,0,l),
(536,563,l),
(740,0,l),
(834,0,l),
(1059,710,l),
(957,710,l)
);
}
);
width = 1077;
},
{
layerId = "F0331135-C9C8-4C09-BCAA-87CFA41CFCF0";
shapes = (
{
closed = 1;
nodes = (
(794,291,l),
(652,710,l),
(468,710,l),
(328,290,l),
(213,710,l),
(0,710,l),
(215,0,l),
(410,0,l),
(558,396,l),
(708,1,l),
(907,1,l),
(1122,711,l),
(908,711,l)
);
}
);
width = 1122;
}
);
note = W.ss09;
},
{
glyphname = G.ss11;
kernLeft = C;
layers = (
{
layerId = m01;
shapes = (
{
closed = 1;
nodes = (
(555,46,o),
(642,134,o),
(698,247,o),
(706,308,qs),
(707,313,o),
(707,320,o),
(708,326,o),
(708,329,q),
(440,329,l),
(440,309,l),
(686,309,l),
(679,252,o),
(628,147,o),
(548,64,o),
(442,15,o),
(379,15,qs),
(312,15,o),
(198,71,o),
(114,167,o),
(68,288,o),
(68,353,qs),
(68,417,o),
(113,539,o),
(195,637,o),
(309,695,o),
(378,695,qs),
(419,695,o),
(494,673,o),
(560,633,o),
(614,577,o),
(635,544,q),
(649,558,l),
(606,626,o),
(467,715,o),
(379,715,qs),
(309,715,o),
(188,656,o),
(98,556,o),
(48,427,o),
(48,356,qs),
(48,287,o),
(97,158,o),
(185,55,o),
(305,-5,o),
(377,-5,qs),
(443,-5,o)
);
}
);
userData = {
assembly = "NPUSHB[ ]	/* 12 values pushed */
36 35 35 0 19 10 3 114 29 0 9 114
SVTCA[0]	/* SetFreedomAndProjectionVectorToAxis */
CALL[ ]	/* CallFunction */
SHP[0]	/* ShiftPointByLastPoint */
CALL[ ]	/* CallFunction */
SHP[0]	/* ShiftPointByLastPoint */
SRP1[ ]	/* SetRefPoint1 */
IP[ ]	/* InterpolatePts */
MDAP[1]	/* MoveDirectAbsPt */
SHP[1]	/* ShiftPointByLastPoint */
IUP[0]	/* InterpolateUntPts */
IUP[1]	/* InterpolateUntPts */";
};
width = 736;
},
{
layerId = "D2DF310C-5735-4FF3-9903-0538932FD5C7";
shapes = (
{
closed = 1;
nodes = (
(562,45,o),
(648,133,o),
(698,245,o),
(703,308,qs),
(703,311,o),
(704,333,o),
(704,355,o),
(704,357,q),
(414,357,l),
(414,277,l),
(606,277,l),
(599,238,o),
(559,166,o),
(499,109,o),
(420,76,o),
(374,76,qs),
(318,76,o),
(228,124,o),
(165,204,o),
(131,303,o),
(131,354,qs),
(131,406,o),
(165,506,o),
(228,586,o),
(318,634,o),
(374,634,qs),
(412,634,o),
(476,611,o),
(527,573,o),
(566,528,o),
(579,506,q),
(650,563,l),
(608,632,o),
(468,715,o),
(379,715,qs),
(304,715,o),
(179,656,o),
(89,555,o),
(40,427,o),
(40,358,qs),
(40,288,o),
(90,158,o),
(181,55,o),
(306,-5,o),
(381,-5,qs),
(449,-5,o)
);
}
);
width = 730;
},
{
layerId = "F0331135-C9C8-4C09-BCAA-87CFA41CFCF0";
shapes = (
{
closed = 1;
nodes = (
(559,44,o),
(646,131,o),
(693,245,o),
(693,309,qs),
(693,324,o),
(693,354,o),
(693,383,o),
(693,398,q),
(371,398,l),
(375,238,l),
(493,238,l),
(487,223,o),
(463,196,o),
(431,176,o),
(390,164,o),
(367,164,qs),
(326,164,o),
(269,200,o),
(235,258,o),
(220,325,o),
(220,356,qs),
(220,391,o),
(237,457,o),
(272,510,o),
(326,542,o),
(362,542,qs),
(395,542,o),
(442,518,o),
(473,484,o),
(489,454,o),
(491,449,q),
(646,570,l),
(606,641,o),
(466,715,o),
(374,715,qs),
(291,715,o),
(161,657,o),
(70,556,o),
(22,426,o),
(22,355,qs),
(22,287,o),
(66,158,o),
(153,55,o),
(281,-5,o),
(364,-5,qs),
(438,-5,o)
);
}
);
width = 711;
}
);
note = G.ss11;
},
{
glyphname = a;
kernLeft = a;
kernRight = a;
layers = (
{
layerId = m01;
shapes = (
{
closed = 1;
nodes = (
(84,32,o),
(160,-10,o),
(207,-10,qs),
(275,-10,o),
(391,42,o),
(427,88,q),
(427,40,ls),
(427,27,o),
(439,6,o),
(449,2,qs),
(451,1,o),
(457,0,o),
(463,0,q),
(463,20,l),
(456,20,o),
(447,30,o),
(447,40,qs),
(447,327,ls),
(447,419,o),
(344,527,o),
(257,527,qs),
(217,527,o),
(127,493,o),
(77,459,q),
(89,443,l),
(133,474,o),
(220,507,o),
(257,507,qs),
(334,507,o),
(427,408,o),
(427,327,qs),
(427,268,l),
(390,282,o),
(297,297,o),
(253,297,qs),
(190,297,o),
(94,259,o),
(39,193,o),
(39,149,qs),
(39,105,o)
);
},
{
closed = 1;
nodes = (
(274,10,o),
(207,10,qs),
(166,10,o),
(98,47,o),
(59,110,o),
(59,149,qs),
(59,207,o),
(166,277,o),
(253,277,qs),
(300,277,o),
(387,262,o),
(427,246,q),
(427,143,ls),
(427,134,o),
(420,113,o),
(412,102,qs),
(385,60,o)
);
}
);
userData = {
assembly = "NPUSHB[ ]	/* 22 values pushed */
33 54 54 36 47 4 4 18 36 11 114 25 26 10 114 14 15 15 11 18 7 114
SVTCA[0]	/* SetFreedomAndProjectionVectorToAxis */
CALL[ ]	/* CallFunction */
SHP[0]	/* ShiftPointByLastPoint */
SHP[0]	/* ShiftPointByLastPoint */
SRP1[ ]	/* SetRefPoint1 */
SHP[1]	/* ShiftPointByLastPoint */
CALL[ ]	/* CallFunction */
SHP[0]	/* ShiftPointByLastPoint */
CALL[ ]	/* CallFunction */
SRP2[ ]	/* SetRefPoint2 */
IP[ ]	/* InterpolatePts */
MDAP[1]	/* MoveDirectAbsPt */
SHP[1]	/* ShiftPointByLastPoint */
SRP1[ ]	/* SetRefPoint1 */
SHP[1]	/* ShiftPointByLastPoint */
SRP1[ ]	/* SetRefPoint1 */
SHP[1]	/* ShiftPointByLastPoint */
IUP[0]	/* InterpolateUntPts */
IUP[1]	/* InterpolateUntPts */";
};
width = 524;
},
{
layerId = "D2DF310C-5735-4FF3-9903-0538932FD5C7";
shapes = (
{
closed = 1;
nodes = (
(76,33,o),
(158,-10,o),
(210,-10,qs),
(264,-10,o),
(374,38,o),
(408,82,q),
(410,49,ls),
(412,30,o),
(443,-4,o),
(474,-4,qs),
(480,-4,o),
(499,-2,o),
(512,0,q),
(512,68,l),
(497,69,o),
(484,84,o),
(484,100,qs),
(484,321,ls),
(484,420,o),
(368,531,o),
(268,531,qs),
(213,531,o),
(111,496,o),
(60,461,q),
(92,399,l),
(136,428,o),
(215,459,o),
(258,459,qs),
(324,459,o),
(396,390,o),
(396,330,qs),
(396,292,l),
(366,303,o),
(288,314,o),
(253,314,qs),
(187,314,o),
(87,274,o),
(30,201,o),
(30,151,qs),
(30,106,o)
);
},
{
closed = 1;
nodes = (
(274,56,o),
(233,56,qs),
(194,56,o),
(141,86,o),
(114,133,o),
(114,158,qs),
(114,204,o),
(197,257,o),
(264,257,qs),
(297,257,o),
(365,244,o),
(396,232,q),
(396,167,ls),
(396,157,o),
(382,128,o),
(370,114,qs),
(348,89,o)
);
}
);
width = 554;
},
{
layerId = "F0331135-C9C8-4C09-BCAA-87CFA41CFCF0";
shapes = (
{
closed = 1;
nodes = (
(67,34,o),
(151,-10,o),
(203,-10,qs),
(255,-10,o),
(347,37,o),
(382,82,q),
(386,63,ls),
(394,27,o),
(447,-10,o),
(498,-10,qs),
(514,-10,o),
(555,-5,o),
(578,0,q),
(578,160,l),
(558,162,o),
(542,183,o),
(542,210,qs),
(542,312,ls),
(542,423,o),
(405,536,o),
(280,536,qs),
(213,536,o),
(96,503,o),
(43,469,q),
(98,351,l),
(140,379,o),
(217,408,o),
(261,408,qs),
(309,408,o),
(352,372,o),
(352,335,qs),
(352,319,l),
(332,329,o),
(277,339,o),
(246,339,qs),
(180,339,o),
(77,293,o),
(19,212,o),
(19,159,qs),
(19,111,o)
);
},
{
closed = 1;
nodes = (
(277,126,o),
(260,126,qs),
(242,126,o),
(214,139,o),
(198,162,o),
(198,176,qs),
(198,202,o),
(245,236,o),
(279,236,qs),
(295,236,o),
(336,228,o),
(352,222,q),
(352,183,ls),
(352,173,o),
(338,154,o),
(327,146,qs),
(314,137,o)
);
}
);
width = 599;
}
);
note = a;
unicode = 97;
},
{
glyphname = ae;
kernLeft = a;
kernRight = ae;
layers = (
{
layerId = m01;
shapes = (
{
closed = 1;
nodes = (
(342,15,o),
(420,68,o),
(441,111,q),
(475,56,o),
(584,-10,o),
(648,-10,qs),
(693,-10,o),
(777,22,o),
(840,79,o),
(854,114,q),
(835,119,l),
(813,71,o),
(709,10,o),
(649,10,qs),
(589,10,o),
(487,73,o),
(423,181,o),
(418,248,q),
(893,248,l),
(893,251,o),
(893,256,o),
(893,259,qs),
(893,334,o),
(825,455,o),
(712,527,o),
(643,527,qs),
(577,527,o),
(467,459,o),
(435,403,q),
(416,462,o),
(324,527,o),
(257,527,qs),
(177,527,o),
(77,459,q),
(89,443,l),
(133,474,o),
(220,507,o),
(257,507,qs),
(321,507,o),
(408,436,o),
(421,376,q),
(411,353,o),
(400,303,o),
(398,277,q),
(365,286,o),
(289,297,o),
(253,297,qs),
(190,297,o),
(94,259,o),
(39,193,o),
(39,149,qs),
(39,105,o),
(84,32,o),
(160,-10,o),
(207,-10,qs),
(250,-10,o)
);
},
{
closed = 1;
nodes = (
(98,47,o),
(59,110,o),
(59,149,qs),
(59,207,o),
(166,277,o),
(253,277,qs),
(291,277,o),
(364,267,o),
(398,256,q),
(399,224,o),
(414,164,o),
(427,137,q),
(424,120,o),
(412,102,qs),
(385,60,o),
(274,10,o),
(207,10,qs),
(166,10,o)
);
},
{
closed = 1;
nodes = (
(422,337,o),
(483,445,o),
(583,507,o),
(644,507,qs),
(706,507,o),
(806,445,o),
(868,338,o),
(872,268,q),
(418,268,l)
);
}
);
userData = {
assembly = "NPUSHB[ ]	/* 23 values pushed */
78 29 29 82 37 67 8 37 8 37 8 0 17 23 7 114 41 49 49 56 0 11 114
SVTCA[0]	/* SetFreedomAndProjectionVectorToAxis */
CALL[ ]	/* CallFunction */
SHP[0]	/* ShiftPointByLastPoint */
SHP[0]	/* ShiftPointByLastPoint */
SRP1[ ]	/* SetRefPoint1 */
SHP[1]	/* ShiftPointByLastPoint */
CALL[ ]	/* CallFunction */
SHP[0]	/* ShiftPointByLastPoint */
SRP1[ ]	/* SetRefPoint1 */
IP[ ]	/* InterpolatePts */
IP[ ]	/* InterpolatePts */
MDAP[1]	/* MoveDirectAbsPt */
MDAP[1]	/* MoveDirectAbsPt */
SRP1[ ]	/* SetRefPoint1 */
SHP[1]	/* ShiftPointByLastPoint */
SRP1[ ]	/* SetRefPoint1 */
SHP[1]	/* ShiftPointByLastPoint */
SHP[0]	/* ShiftPointByLastPoint */
SRP1[ ]	/* SetRefPoint1 */
SHP[1]	/* ShiftPointByLastPoint */
IUP[0]	/* InterpolateUntPts */
IUP[1]	/* InterpolateUntPts */";
};
width = 928;
},
{
layerId = "D2DF310C-5735-4FF3-9903-0538932FD5C7";
shapes = (
{
closed = 1;
nodes = (
(329,13,o),
(404,63,o),
(426,103,q),
(461,52,o),
(574,-10,o),
(644,-10,qs),
(697,-10,o),
(788,24,o),
(855,84,o),
(872,122,q),
(796,143,l),
(780,104,o),
(695,56,o),
(647,56,qs),
(599,56,o),
(517,101,o),
(465,180,o),
(461,231,q),
(904,231,l),
(905,236,o),
(906,255,o),
(906,261,qs),
(906,335,o),
(839,457,o),
(720,531,o),
(641,531,qs),
(580,531,o),
(479,479,o),
(446,436,q),
(421,481,o),
(329,531,o),
(265,531,qs),
(165,531,o),
(62,463,q),
(91,406,l),
(135,436,o),
(217,467,o),
(257,467,qs),
(315,467,o),
(385,410,o),
(392,360,q),
(386,346,o),
(380,310,o),
(378,294,q),
(350,303,o),
(283,314,o),
(249,314,qs),
(185,314,o),
(86,273,o),
(30,201,o),
(30,153,qs),
(30,107,o),
(76,33,o),
(155,-10,o),
(204,-10,qs),
(243,-10,o)
);
},
{
closed = 1;
nodes = (
(143,83,o),
(113,131,o),
(113,160,qs),
(113,205,o),
(196,261,o),
(262,261,qs),
(291,261,o),
(351,251,o),
(378,242,q),
(379,223,o),
(388,172,o),
(396,155,q),
(394,137,o),
(377,120,q),
(355,91,o),
(274,56,o),
(227,56,qs),
(195,56,o)
);
},
{
closed = 1;
nodes = (
(463,340,o),
(511,419,o),
(591,465,o),
(640,465,qs),
(690,465,o),
(769,420,o),
(818,340,o),
(822,288,q),
(460,288,l)
);
}
);
width = 933;
},
{
layerId = "F0331135-C9C8-4C09-BCAA-87CFA41CFCF0";
shapes = (
{
closed = 1;
nodes = (
(312,11,o),
(382,56,o),
(407,92,q),
(443,46,o),
(561,-10,o),
(640,-10,qs),
(704,-10,o),
(806,27,o),
(881,91,o),
(902,133,q),
(741,179,l),
(732,154,o),
(677,126,o),
(646,126,qs),
(624,126,o),
(583,142,o),
(556,177,o),
(554,205,q),
(923,205,l),
(925,217,o),
(928,248,o),
(928,263,qs),
(928,336,o),
(862,460,o),
(734,536,o),
(640,536,qs),
(586,536,o),
(499,509,o),
(465,486,q),
(431,511,o),
(339,536,o),
(280,536,qs),
(147,536,o),
(43,469,q),
(98,351,l),
(140,379,o),
(217,408,o),
(261,408,qs),
(309,408,o),
(351,372,o),
(352,335,qs),
(352,331,o),
(352,323,o),
(352,319,q),
(332,329,o),
(277,339,o),
(246,339,qs),
(180,339,o),
(77,293,o),
(19,212,o),
(19,159,qs),
(19,111,o),
(67,34,o),
(151,-10,o),
(203,-10,qs),
(237,-10,o)
);
},
{
closed = 1;
nodes = (
(214,139,o),
(198,162,o),
(198,176,qs),
(198,202,o),
(245,236,o),
(279,236,qs),
(295,236,o),
(336,228,o),
(352,222,q),
(352,212,o),
(352,193,o),
(352,183,qs),
(352,163,o),
(327,146,qs),
(314,137,o),
(277,126,o),
(260,126,qs),
(242,126,o)
);
},
{
closed = 1;
nodes = (
(553,345,o),
(576,381,o),
(613,401,o),
(637,401,qs),
(661,401,o),
(698,381,o),
(721,345,o),
(724,319,q),
(550,319,l)
);
}
);
width = 942;
}
);
note = ae;
unicode = 230;
},
{
glyphname = b;
kernRight = b;
layers = (
{
layerId = m01;
shapes = (
{
closed = 1;
nodes = (
(451,34,o),
(519,109,o),
(557,205,o),
(557,258,qs),
(557,306,o),
(525,401,o),
(462,480,o),
(373,527,o),
(316,527,qs),
(248,527,o),
(144,454,o),
(104,398,q),
(104,730,l),
(84,730,l),
(84,0,l),
(104,0,l),
(104,108,l),
(135,59,o),
(246,-10,o),
(307,-10,qs),
(360,-10,o)
);
},
{
closed = 1;
nodes = (
(208,35,o),
(146,78,o),
(106,135,o),
(104,167,q),
(104,356,l),
(124,396,o),
(185,464,o),
(267,507,o),
(316,507,qs),
(382,507,o),
(481,436,o),
(537,322,o),
(537,258,qs),
(537,212,o),
(503,124,o),
(441,52,o),
(357,10,o),
(307,10,qs),
(277,10,o)
);
}
);
userData = {
assembly = "NPUSHB[ ]	/* 14 values pushed */
30 11 7 114 6 0 114 5 10 114 21 0 11 114
SVTCA[0]	/* SetFreedomAndProjectionVectorToAxis */
CALL[ ]	/* CallFunction */
SHP[0]	/* ShiftPointByLastPoint */
CALL[ ]	/* CallFunction */
CALL[ ]	/* CallFunction */
CALL[ ]	/* CallFunction */
SHP[0]	/* ShiftPointByLastPoint */
IUP[0]	/* InterpolateUntPts */
IUP[1]	/* InterpolateUntPts */";
};
width = 603;
},
{
layerId = "D2DF310C-5735-4FF3-9903-0538932FD5C7";
shapes = (
{
closed = 1;
nodes = (
(481,32,o),
(549,107,o),
(586,204,o),
(586,259,qs),
(586,312,o),
(553,409,o),
(492,486,o),
(406,531,o),
(352,531,qs),
(288,531,o),
(192,469,o),
(159,418,q),
(159,730,l),
(71,730,l),
(71,0,l),
(149,0,l),
(149,98,l),
(178,50,o),
(278,-10,o),
(339,-10,qs),
(392,-10,o)
);
},
{
closed = 1;
nodes = (
(242,84,o),
(196,115,o),
(164,157,o),
(159,182,q),
(159,333,l),
(175,366,o),
(224,421,o),
(288,455,o),
(325,455,qs),
(376,455,o),
(453,400,o),
(496,310,o),
(496,259,qs),
(496,222,o),
(470,152,o),
(422,98,o),
(356,66,o),
(317,66,qs),
(293,66,o)
);
}
);
width = 623;
},
{
layerId = "F0331135-C9C8-4C09-BCAA-87CFA41CFCF0";
shapes = (
{
closed = 1;
nodes = (
(525,30,o),
(590,104,o),
(627,203,o),
(627,261,qs),
(627,320,o),
(593,421,o),
(532,495,o),
(450,536,o),
(402,536,qs),
(345,536,o),
(261,491,o),
(238,448,q),
(238,730,l),
(48,730,l),
(48,0,l),
(213,0,l),
(213,82,l),
(238,37,o),
(324,-10,o),
(383,-10,qs),
(436,-10,o)
);
},
{
closed = 1;
nodes = (
(290,157,o),
(268,170,o),
(247,191,o),
(238,204,q),
(238,298,l),
(247,321,o),
(278,356,o),
(316,376,o),
(336,376,qs),
(364,376,o),
(407,345,o),
(432,292,o),
(432,260,qs),
(432,235,o),
(417,195,o),
(389,166,o),
(351,150,o),
(328,150,qs),
(315,150,o)
);
}
);
width = 647;
}
);
note = b;
unicode = 98;
},
{
glyphname = c;
kernLeft = c;
kernRight = c;
layers = (
{
layerId = m01;
shapes = (
{
closed = 1;
nodes = (
(425,22,o),
(487,78,o),
(498,113,q),
(478,119,l),
(470,91,o),
(413,41,o),
(335,10,o),
(294,10,qs),
(232,10,o),
(128,79,o),
(66,194,o),
(66,262,qs),
(66,331,o),
(127,442,o),
(230,507,o),
(293,507,qs),
(350,507,o),
(446,452,o),
(471,404,q),
(491,411,l),
(465,466,o),
(361,527,o),
(296,527,qs),
(226,527,o),
(112,457,o),
(46,337,o),
(46,262,qs),
(46,206,o),
(85,108,o),
(155,33,o),
(246,-10,o),
(297,-10,qs),
(342,-10,o)
);
}
);
userData = {
assembly = "NPUSHB[ ]	/* 9 values pushed */
24 0 16 9 7 114 0 11 114
SVTCA[0]	/* SetFreedomAndProjectionVectorToAxis */
CALL[ ]	/* CallFunction */
CALL[ ]	/* CallFunction */
SHP[0]	/* ShiftPointByLastPoint */
SRP1[ ]	/* SetRefPoint1 */
SHP[1]	/* ShiftPointByLastPoint */
IUP[0]	/* InterpolateUntPts */
IUP[1]	/* InterpolateUntPts */";
};
width = 538;
},
{
layerId = "D2DF310C-5735-4FF3-9903-0538932FD5C7";
shapes = (
{
closed = 1;
nodes = (
(444,24,o),
(509,83,o),
(525,121,q),
(439,147,l),
(431,125,o),
(388,88,o),
(331,66,o),
(300,66,qs),
(252,66,o),
(173,118,o),
(126,207,o),
(126,262,qs),
(126,318,o),
(172,405,o),
(251,455,o),
(299,455,qs),
(343,455,o),
(415,414,o),
(435,377,q),
(521,404,l),
(493,462,o),
(378,531,o),
(301,531,qs),
(222,531,o),
(102,458,o),
(36,336,o),
(36,262,qs),
(36,207,o),
(75,109,o),
(146,33,o),
(243,-10,o),
(302,-10,qs),
(355,-10,o)
);
}
);
width = 554;
},
{
layerId = "F0331135-C9C8-4C09-BCAA-87CFA41CFCF0";
shapes = (
{
closed = 1;
nodes = (
(471,27,o),
(544,91,o),
(565,133,q),
(380,189,l),
(372,177,o),
(349,159,o),
(323,150,o),
(307,150,qs),
(281,150,o),
(239,177,o),
(214,228,o),
(214,263,qs),
(214,299,o),
(239,349,o),
(281,376,o),
(307,376,qs),
(330,376,o),
(367,356,o),
(380,337,q),
(565,393,l),
(533,456,o),
(403,536,o),
(308,536,qs),
(215,536,o),
(86,460,o),
(19,335,o),
(19,263,qs),
(19,209,o),
(57,111,o),
(131,34,o),
(238,-10,o),
(308,-10,qs),
(372,-10,o)
);
}
);
width = 577;
}
);
note = c;
unicode = 99;
},
{
glyphname = d;
kernLeft = d;
layers = (
{
layerId = m01;
shapes = (
{
closed = 1;
nodes = (
(83,113,o),
(150,36,o),
(242,-10,o),
(296,-10,qs),
(355,-10,o),
(466,56,o),
(499,108,q),
(499,40,ls),
(499,28,o),
(511,7,o),
(522,2,qs),
(526,0,o),
(535,0,q),
(535,20,l),
(528,20,o),
(519,31,o),
(519,40,qs),
(519,730,l),
(499,730,l),
(499,398,l),
(468,450,o),
(358,527,o),
(287,527,qs),
(218,527,o),
(109,452,o),
(46,330,o),
(46,258,qs),
(46,208,o)
);
},
{
closed = 1;
nodes = (
(457,80,o),
(395,35,o),
(326,10,o),
(296,10,qs),
(248,10,o),
(165,50,o),
(101,120,o),
(66,209,o),
(66,258,qs),
(66,305,o),
(97,393,o),
(155,465,o),
(236,507,o),
(287,507,qs),
(329,507,o),
(416,466,o),
(484,398,o),
(499,356,q),
(499,169,l),
(497,137,o)
);
}
);
userData = {
assembly = "NPUSHB[ ]	/* 17 values pushed */
16 43 23 33 4 14 10 114 4 7 114 8 0 114 23 11 114
SVTCA[0]	/* SetFreedomAndProjectionVectorToAxis */
CALL[ ]	/* CallFunction */
CALL[ ]	/* CallFunction */
CALL[ ]	/* CallFunction */
CALL[ ]	/* CallFunction */
SRP1[ ]	/* SetRefPoint1 */
SHP[1]	/* ShiftPointByLastPoint */
SRP1[ ]	/* SetRefPoint1 */
SHP[1]	/* ShiftPointByLastPoint */
SHP[0]	/* ShiftPointByLastPoint */
IUP[0]	/* InterpolateUntPts */
IUP[1]	/* InterpolateUntPts */";
};
width = 604;
},
{
layerId = "D2DF310C-5735-4FF3-9903-0538932FD5C7";
shapes = (
{
closed = 1;
nodes = (
(74,109,o),
(141,33,o),
(232,-10,o),
(286,-10,qs),
(342,-10,o),
(446,48,o),
(477,98,q),
(477,54,ls),
(477,32,o),
(516,-4,o),
(542,-4,qs),
(556,-4,o),
(581,0,q),
(581,68,l),
(566,69,o),
(553,84,o),
(553,100,qs),
(553,730,l),
(465,730,l),
(465,418,l),
(437,465,o),
(337,531,o),
(274,531,qs),
(205,531,o),
(98,457,o),
(37,334,o),
(37,260,qs),
(37,206,o)
);
},
{
closed = 1;
nodes = (
(428,116,o),
(382,84,o),
(331,66,o),
(307,66,qs),
(269,66,o),
(204,96,o),
(155,150,o),
(128,220,o),
(128,259,qs),
(128,297,o),
(152,367,o),
(197,422,o),
(260,455,o),
(299,455,qs),
(332,455,o),
(399,422,o),
(453,367,o),
(465,333,q),
(465,183,l),
(460,159,o)
);
}
);
width = 629;
},
{
layerId = "F0331135-C9C8-4C09-BCAA-87CFA41CFCF0";
shapes = (
{
closed = 1;
nodes = (
(56,103,o),
(123,30,o),
(214,-10,o),
(268,-10,qs),
(320,-10,o),
(412,34,o),
(439,82,q),
(443,63,ls),
(451,26,o),
(507,-10,o),
(555,-10,qs),
(586,-10,o),
(635,0,q),
(635,160,l),
(615,162,o),
(599,183,o),
(599,210,qs),
(599,730,l),
(409,730,l),
(409,448,l),
(387,489,o),
(301,536,o),
(250,536,qs),
(183,536,o),
(79,465,o),
(20,342,o),
(20,264,qs),
(20,204,o)
);
},
{
closed = 1;
nodes = (
(380,170,o),
(358,157,o),
(334,150,o),
(320,150,qs),
(297,150,o),
(259,166,o),
(231,195,o),
(216,235,o),
(216,260,qs),
(216,284,o),
(230,326,o),
(256,358,o),
(291,376,o),
(312,376,qs),
(332,376,o),
(370,356,o),
(401,321,o),
(410,298,q),
(410,204,l),
(401,191,o)
);
}
);
width = 665;
}
);
note = d;
unicode = 100;
},
{
glyphname = eth;
layers = (
{
layerId = m01;
shapes = (
{
closed = 1;
nodes = (
(523,435,o),
(463,555,o),
(347,672,o),
(249,730,q),
(220,730,l),
(309,679,o),
(423,577,o),
(487,476,o),
(517,378,o),
(522,330,q),
(496,394,o),
(373,475,o),
(295,475,qs),
(245,475,o),
(155,437,o),
(87,369,o),
(48,282,o),
(48,232,qs),
(48,167,o),
(114,56,o),
(227,-10,o),
(295,-10,qs),
(346,-10,o),
(435,31,o),
(504,102,o),
(542,194,o),
(542,246,qs),
(542,311,o)
);
},
{
closed = 1;
nodes = (
(130,393,o),
(234,455,o),
(295,455,qs),
(357,455,o),
(460,398,o),
(522,304,o),
(522,247,qs),
(522,183,o),
(460,75,o),
(356,10,o),
(294,10,qs),
(232,10,o),
(129,70,o),
(68,170,o),
(68,230,qs),
(68,291,o)
);
},
{
closed = 1;
nodes = (
(361,647,l),
(355,643,l),
(230,561,l),
(240,547,l),
(368,631,l),
(375,636,l),
(471,699,l),
(461,713,l)
);
}
);
userData = {
assembly = "NPUSHB[ ]	/* 19 values pushed */
40 47 48 46 45 49 50 44 51 8 22 14 14 5 22 0 32 5 11
SVTCA[0]	/* SetFreedomAndProjectionVectorToAxis */
MIAP[1]	/* MoveIndirectAbsPt */
SHP[1]	/* ShiftPointByLastPoint */
MIAP[1]	/* MoveIndirectAbsPt */
SRP2[ ]	/* SetRefPoint2 */
IP[ ]	/* InterpolatePts */
MDAP[1]	/* MoveDirectAbsPt */
SRP2[ ]	/* SetRefPoint2 */
SLOOP[ ]	/* SetLoopVariable */
IP[ ]	/* InterpolatePts */
SHP[1]	/* ShiftPointByLastPoint */
IUP[0]	/* InterpolateUntPts */
IUP[1]	/* InterpolateUntPts */";
};
width = 593;
},
{
layerId = "D2DF310C-5735-4FF3-9903-0538932FD5C7";
shapes = (
{
closed = 1;
nodes = (
(540,456,o),
(479,575,o),
(377,686,o),
(301,730,q),
(177,730,l),
(256,687,o),
(363,598,o),
(431,508,o),
(468,416,o),
(476,368,q),
(449,415,o),
(345,473,o),
(283,473,qs),
(232,473,o),
(144,435,o),
(77,369,o),
(39,282,o),
(39,233,qs),
(39,165,o),
(109,55,o),
(227,-10,o),
(297,-10,qs),
(351,-10,o),
(448,31,o),
(523,109,o),
(566,220,o),
(566,290,qs),
(566,340,o)
);
},
{
closed = 1;
nodes = (
(176,356,o),
(255,401,o),
(304,401,qs),
(352,401,o),
(430,358,o),
(476,285,o),
(476,239,qs),
(476,193,o),
(429,114,o),
(350,66,o),
(300,66,qs),
(252,66,o),
(175,111,o),
(129,187,o),
(129,233,qs),
(129,280,o)
);
},
{
closed = 1;
nodes = (
(369,647,l),
(343,639,l),
(226,569,l),
(253,532,l),
(372,604,l),
(400,614,l),
(505,676,l),
(478,713,l)
);
}
);
width = 606;
},
{
layerId = "F0331135-C9C8-4C09-BCAA-87CFA41CFCF0";
shapes = (
{
closed = 1;
nodes = (
(559,498,o),
(489,617,o),
(394,706,o),
(338,730,q),
(108,730,l),
(171,699,o),
(270,631,o),
(342,556,o),
(390,472,o),
(403,425,q),
(375,447,o),
(300,471,o),
(260,471,qs),
(210,471,o),
(123,435,o),
(58,370,o),
(22,284,o),
(22,234,qs),
(22,163,o),
(96,52,o),
(226,-10,o),
(310,-10,qs),
(377,-10,o),
(484,31,o),
(559,109,o),
(598,221,o),
(598,291,qs),
(598,362,o)
);
},
{
closed = 1;
nodes = (
(240,299,o),
(282,320,o),
(310,320,qs),
(338,320,o),
(380,299,o),
(403,261,o),
(403,235,qs),
(403,210,o),
(380,171,o),
(338,150,o),
(310,150,qs),
(282,150,o),
(240,171,o),
(217,210,o),
(217,235,qs),
(217,261,o)
);
},
{
closed = 1;
nodes = (
(376,648,l),
(322,634,l),
(216,581,l),
(268,510,l),
(375,563,l),
(433,580,l),
(551,641,l),
(499,712,l)
);
}
);
width = 621;
}
);
note = eth;
unicode = 240;
},
{
glyphname = dcroat;
kernLeft = d;
layers = (
{
layerId = m01;
shapes = (
{
closed = 1;
nodes = (
(595,653,l),
(375,653,l),
(375,633,l),
(595,633,l)
);
},
{
closed = 1;
nodes = (
(83,113,o),
(150,36,o),
(242,-10,o),
(296,-10,qs),
(355,-10,o),
(466,56,o),
(499,108,q),
(499,40,ls),
(499,28,o),
(511,7,o),
(522,2,qs),
(526,0,o),
(535,0,q),
(535,20,l),
(528,20,o),
(519,31,o),
(519,40,qs),
(519,730,l),
(499,730,l),
(499,398,l),
(468,450,o),
(358,527,o),
(287,527,qs),
(218,527,o),
(109,452,o),
(46,330,o),
(46,258,qs),
(46,208,o)
);
},
{
closed = 1;
nodes = (
(457,80,o),
(395,35,o),
(326,10,o),
(296,10,qs),
(248,10,o),
(165,50,o),
(101,120,o),
(66,209,o),
(66,258,qs),
(66,305,o),
(97,393,o),
(155,465,o),
(236,507,o),
(287,507,qs),
(329,507,o),
(416,466,o),
(484,398,o),
(499,356,q),
(499,169,l),
(497,137,o)
);
}
);
userData = {
assembly = "NPUSHB[ ]	/* 23 values pushed */
24 32 33 11 4 8 47 27 11 114 17 18 10 114 12 0 114 2 3 37 8 7 114
SVTCA[0]	/* SetFreedomAndProjectionVectorToAxis */
CALL[ ]	/* CallFunction */
SHP[0]	/* ShiftPointByLastPoint */
MDRP[01100]	/* MoveDirectRelPt */
SHP[0]	/* ShiftPointByLastPoint */
CALL[ ]	/* CallFunction */
CALL[ ]	/* CallFunction */
SHP[0]	/* ShiftPointByLastPoint */
CALL[ ]	/* CallFunction */
SHP[0]	/* ShiftPointByLastPoint */
SRP1[ ]	/* SetRefPoint1 */
SLOOP[ ]	/* SetLoopVariable */
IP[ ]	/* InterpolatePts */
IUP[0]	/* InterpolateUntPts */
IUP[1]	/* InterpolateUntPts */";
};
width = 604;
},
{
layerId = "D2DF310C-5735-4FF3-9903-0538932FD5C7";
shapes = (
{
closed = 1;
nodes = (
(621,667,l),
(355,667,l),
(355,611,l),
(621,611,l)
);
},
{
closed = 1;
nodes = (
(74,109,o),
(141,33,o),
(232,-10,o),
(286,-10,qs),
(342,-10,o),
(446,48,o),
(477,98,q),
(477,54,ls),
(477,32,o),
(516,-4,o),
(542,-4,qs),
(556,-4,o),
(581,0,q),
(581,68,l),
(566,69,o),
(553,84,o),
(553,100,qs),
(553,730,l),
(465,730,l),
(465,418,l),
(437,465,o),
(337,531,o),
(274,531,qs),
(205,531,o),
(98,457,o),
(37,334,o),
(37,260,qs),
(37,206,o)
);
},
{
closed = 1;
nodes = (
(428,116,o),
(382,84,o),
(331,66,o),
(307,66,qs),
(269,66,o),
(204,96,o),
(155,150,o),
(128,220,o),
(128,259,qs),
(128,297,o),
(152,367,o),
(197,422,o),
(260,455,o),
(299,455,qs),
(332,455,o),
(399,422,o),
(453,367,o),
(465,333,q),
(465,183,l),
(460,159,o)
);
}
);
width = 629;
},
{
layerId = "F0331135-C9C8-4C09-BCAA-87CFA41CFCF0";
shapes = (
{
closed = 1;
nodes = (
(657,688,l),
(322,688,l),
(322,579,l),
(657,579,l)
);
},
{
closed = 1;
nodes = (
(56,103,o),
(123,30,o),
(214,-10,o),
(268,-10,qs),
(320,-10,o),
(412,34,o),
(439,82,q),
(443,63,ls),
(451,26,o),
(507,-10,o),
(555,-10,qs),
(586,-10,o),
(635,0,q),
(635,160,l),
(615,162,o),
(599,183,o),
(599,210,qs),
(599,730,l),
(409,730,l),
(409,448,l),
(387,489,o),
(301,536,o),
(250,536,qs),
(183,536,o),
(79,465,o),
(20,342,o),
(20,264,qs),
(20,204,o)
);
},
{
closed = 1;
nodes = (
(380,170,o),
(358,157,o),
(334,150,o),
(320,150,qs),
(297,150,o),
(259,166,o),
(231,195,o),
(216,235,o),
(216,260,qs),
(216,284,o),
(230,326,o),
(256,358,o),
(291,376,o),
(312,376,qs),
(332,376,o),
(370,356,o),
(401,321,o),
(410,298,q),
(410,204,l),
(401,191,o)
);
}
);
width = 665;
}
);
note = dcroat;
unicode = 273;
},
{
glyphname = e;
kernLeft = c;
kernRight = ae;
layers = (
{
layerId = m01;
shapes = (
{
closed = 1;
nodes = (
(425,22,o),
(488,79,o),
(502,114,q),
(483,119,l),
(461,71,o),
(357,10,o),
(297,10,qs),
(237,10,o),
(135,73,o),
(71,181,o),
(66,248,q),
(541,248,l),
(541,251,o),
(541,256,o),
(541,259,qs),
(541,334,o),
(473,455,o),
(360,527,o),
(291,527,qs),
(223,527,o),
(112,456,o),
(46,336,o),
(46,263,qs),
(46,207,o),
(85,108,o),
(154,33,o),
(245,-10,o),
(296,-10,qs),
(341,-10,o)
);
},
{
closed = 1;
nodes = (
(131,445,o),
(231,507,o),
(292,507,qs),
(354,507,o),
(454,445,o),
(516,338,o),
(520,268,q),
(66,268,l),
(70,337,o)
);
}
);
userData = {
assembly = "NPUSHB[ ]	/* 17 values pushed */
5 29 29 105 17 1 17 17 0 34 9 7 114 21 0 11 114
SVTCA[0]	/* SetFreedomAndProjectionVectorToAxis */
CALL[ ]	/* CallFunction */
SHP[0]	/* ShiftPointByLastPoint */
CALL[ ]	/* CallFunction */
SHP[0]	/* ShiftPointByLastPoint */
SRP1[ ]	/* SetRefPoint1 */
IP[ ]	/* InterpolatePts */
MDAP[1]	/* MoveDirectAbsPt */
DELTAP1[ ]	/* DeltaExceptionP1 */
SHP[1]	/* ShiftPointByLastPoint */
SRP2[ ]	/* SetRefPoint2 */
IP[ ]	/* InterpolatePts */
IUP[0]	/* InterpolateUntPts */
IUP[1]	/* InterpolateUntPts */";
};
width = 576;
},
{
layerId = "D2DF310C-5735-4FF3-9903-0538932FD5C7";
shapes = (
{
closed = 1;
nodes = (
(446,24,o),
(513,84,o),
(530,122,q),
(454,143,l),
(438,104,o),
(353,56,o),
(305,56,qs),
(260,56,o),
(182,101,o),
(133,180,o),
(129,231,q),
(562,231,l),
(563,236,o),
(564,255,o),
(564,265,qs),
(564,335,o),
(499,456,o),
(382,531,o),
(303,531,qs),
(225,531,o),
(104,457,o),
(36,335,o),
(36,261,qs),
(36,206,o),
(75,108,o),
(146,33,o),
(243,-10,o),
(302,-10,qs),
(355,-10,o)
);
},
{
closed = 1;
nodes = (
(179,421,o),
(257,465,o),
(303,465,qs),
(350,465,o),
(428,421,o),
(478,343,o),
(482,292,q),
(126,292,l),
(130,343,o)
);
}
);
width = 591;
},
{
layerId = "F0331135-C9C8-4C09-BCAA-87CFA41CFCF0";
shapes = (
{
closed = 1;
nodes = (
(473,27,o),
(548,91,o),
(569,133,q),
(408,179,l),
(399,154,o),
(344,126,o),
(313,126,qs),
(291,126,o),
(250,142,o),
(223,177,o),
(221,205,q),
(590,205,l),
(592,217,o),
(595,248,o),
(595,263,qs),
(595,336,o),
(529,460,o),
(401,536,o),
(307,536,qs),
(213,536,o),
(85,459,o),
(19,332,o),
(19,256,qs),
(19,203,o),
(57,107,o),
(130,33,o),
(238,-10,o),
(307,-10,qs),
(371,-10,o)
);
},
{
closed = 1;
nodes = (
(243,381,o),
(280,401,o),
(304,401,qs),
(328,401,o),
(365,381,o),
(388,345,o),
(391,319,q),
(217,319,l),
(220,345,o)
);
}
);
width = 609;
}
);
note = e;
unicode = 101;
},
{
glyphname = uni0259;
kernRight = uni0259;
layers = (
{
layerId = m01;
shapes = (
{
closed = 1;
nodes = (
(464,61,o),
(530,181,o),
(530,254,qs),
(530,310,o),
(491,409,o),
(422,484,o),
(331,527,o),
(280,527,qs),
(235,527,o),
(151,495,o),
(88,439,o),
(74,403,q),
(93,398,l),
(115,446,o),
(219,507,o),
(279,507,qs),
(340,507,o),
(441,444,o),
(505,336,o),
(510,269,q),
(35,269,l),
(35,266,o),
(35,261,o),
(35,258,qs),
(36,184,o),
(103,62,o),
(216,-10,o),
(285,-10,qs),
(353,-10,o)
);
},
{
closed = 1;
nodes = (
(123,72,o),
(61,180,o),
(56,249,q),
(510,249,l),
(507,181,o),
(445,72,o),
(346,10,o),
(284,10,qs),
(223,10,o)
);
}
);
userData = {
assembly = "NPUSHB[ ]	/* 12 values pushed */
7 34 34 0 12 20 7 114 29 0 11 114
SVTCA[0]	/* SetFreedomAndProjectionVectorToAxis */
CALL[ ]	/* CallFunction */
SHP[0]	/* ShiftPointByLastPoint */
CALL[ ]	/* CallFunction */
SHP[0]	/* ShiftPointByLastPoint */
SRP1[ ]	/* SetRefPoint1 */
IP[ ]	/* InterpolatePts */
MDAP[1]	/* MoveDirectAbsPt */
SHP[1]	/* ShiftPointByLastPoint */
IUP[0]	/* InterpolateUntPts */
IUP[1]	/* InterpolateUntPts */";
};
width = 576;
},
{
layerId = "D2DF310C-5735-4FF3-9903-0538932FD5C7";
shapes = (
{
closed = 1;
nodes = (
(489,63,o),
(555,185,o),
(555,258,qs),
(555,314,o),
(516,413,o),
(446,488,o),
(349,531,o),
(290,531,qs),
(237,531,o),
(146,497,o),
(78,437,o),
(61,399,q),
(137,378,l),
(154,416,o),
(238,464,o),
(286,464,qs),
(332,464,o),
(409,420,o),
(458,342,o),
(462,290,q),
(29,290,l),
(28,285,o),
(27,266,o),
(27,260,qs),
(28,187,o),
(94,64,o),
(214,-10,o),
(292,-10,qs),
(371,-10,o)
);
},
{
closed = 1;
nodes = (
(167,101,o),
(116,180,o),
(112,232,q),
(464,232,l),
(461,181,o),
(414,102,o),
(340,56,o),
(293,56,qs),
(247,56,o)
);
}
);
width = 591;
},
{
layerId = "F0331135-C9C8-4C09-BCAA-87CFA41CFCF0";
shapes = (
{
closed = 1;
nodes = (
(524,67,o),
(590,194,o),
(590,270,qs),
(590,323,o),
(552,419,o),
(479,493,o),
(371,536,o),
(302,536,qs),
(238,536,o),
(136,500,o),
(62,435,o),
(40,393,q),
(201,347,l),
(210,372,o),
(265,400,o),
(296,400,qs),
(318,400,o),
(359,384,o),
(386,349,o),
(388,321,q),
(19,321,l),
(17,309,o),
(14,278,o),
(14,263,qs),
(14,191,o),
(80,66,o),
(208,-10,o),
(302,-10,qs),
(396,-10,o)
);
},
{
closed = 1;
nodes = (
(244,145,o),
(221,182,o),
(218,207,q),
(392,207,l),
(389,182,o),
(366,145,o),
(329,125,o),
(305,125,qs),
(281,125,o)
);
}
);
width = 609;
}
);
note = uni0259;
unicode = 601;
},
{
glyphname = f;
kernLeft = f;
kernRight = f;
layers = (
{
layerId = m01;
shapes = (
{
closed = 1;
nodes = (
(123,499,l),
(278,499,l),
(278,519,l),
(123,519,l),
(123,540,ls),
(123,628,o),
(184,721,o),
(241,721,qs),
(264,721,o),
(307,706,o),
(319,694,q),
(335,706,l),
(322,721,o),
(269,740,o),
(240,740,qs),
(197,740,o),
(136,693,o),
(103,603,o),
(103,540,qs),
(103,519,l),
(28,519,l),
(28,499,l),
(103,499,l),
(103,0,l),
(123,0,l)
);
}
);
userData = {
assembly = "NPUSHB[ ]	/* 13 values pushed */
2 23 23 3 20 6 16 9 1 114 0 10 114
SVTCA[0]	/* SetFreedomAndProjectionVectorToAxis */
CALL[ ]	/* CallFunction */
CALL[ ]	/* CallFunction */
SHP[0]	/* ShiftPointByLastPoint */
RUTG[ ]	/* RoundUpToGrid */
MIAP[1]	/* MoveIndirectAbsPt */
SHP[1]	/* ShiftPointByLastPoint */
SHP[1]	/* ShiftPointByLastPoint */
SRP1[ ]	/* SetRefPoint1 */
SHP[1]	/* ShiftPointByLastPoint */
IUP[0]	/* InterpolateUntPts */
IUP[1]	/* InterpolateUntPts */";
};
width = 299;
},
{
layerId = "D2DF310C-5735-4FF3-9903-0538932FD5C7";
shapes = (
{
closed = 1;
nodes = (
(187,453,l),
(326,453,l),
(326,522,l),
(187,522,l),
(187,536,ls),
(187,598,o),
(234,665,o),
(277,665,qs),
(297,665,o),
(338,653,o),
(352,643,q),
(374,708,l),
(350,723,o),
(290,740,o),
(259,740,qs),
(210,740,o),
(138,690,o),
(99,597,o),
(99,533,qs),
(99,522,l),
(28,522,l),
(28,453,l),
(99,453,l),
(99,0,l),
(187,0,l)
);
}
);
width = 343;
},
{
layerId = "F0331135-C9C8-4C09-BCAA-87CFA41CFCF0";
shapes = (
{
closed = 1;
nodes = (
(275,322,l),
(390,322,l),
(390,465,l),
(275,465,l),
(275,529,ls),
(275,555,o),
(298,580,o),
(321,580,qs),
(336,580,o),
(376,572,o),
(392,566,q),
(424,710,l),
(384,725,o),
(312,740,o),
(278,740,qs),
(220,740,o),
(133,686,o),
(85,588,o),
(85,522,qs),
(85,465,l),
(20,465,l),
(20,322,l),
(85,322,l),
(85,0,l),
(275,0,l)
);
}
);
width = 402;
}
);
note = f;
unicode = 102;
},
{
glyphname = g;
kernLeft = d;
kernRight = g;
layers = (
{
layerId = m01;
shapes = (
{
closed = 1;
nodes = (
(466,56,o),
(499,108,q),
(499,-22,ls),
(499,-81,o),
(442,-162,o),
(347,-203,o),
(290,-203,qs),
(227,-203,o),
(116,-151,o),
(84,-93,q),
(65,-99,l),
(94,-154,o),
(198,-223,o),
(290,-223,qs),
(349,-223,o),
(454,-180,o),
(519,-90,o),
(519,-22,qs),
(519,519,l),
(499,519,l),
(499,398,l),
(462,451,o),
(358,527,o),
(287,527,qs),
(234,527,o),
(145,483,o),
(81,407,o),
(46,310,o),
(46,258,qs),
(46,208,o),
(83,113,o),
(150,36,o),
(242,-10,o),
(296,-10,qs),
(355,-10,o)
);
},
{
closed = 1;
nodes = (
(165,50,o),
(101,120,o),
(66,209,o),
(66,258,qs),
(66,302,o),
(96,390,o),
(152,463,o),
(235,507,o),
(287,507,qs),
(332,507,o),
(416,468,o),
(483,400,o),
(499,356,q),
(499,169,l),
(497,141,o),
(461,85,o),
(403,38,o),
(333,10,o),
(296,10,qs),
(248,10,o)
);
}
);
userData = {
assembly = "NPUSHB[ ]	/* 18 values pushed */
27 20 35 0 45 10 15 6 114 0 11 114 10 7 114 20 15 114
SVTCA[0]	/* SetFreedomAndProjectionVectorToAxis */
CALL[ ]	/* CallFunction */
CALL[ ]	/* CallFunction */
CALL[ ]	/* CallFunction */
CALL[ ]	/* CallFunction */
SRP1[ ]	/* SetRefPoint1 */
SHP[1]	/* ShiftPointByLastPoint */
SRP1[ ]	/* SetRefPoint1 */
SHP[1]	/* ShiftPointByLastPoint */
SRP1[ ]	/* SetRefPoint1 */
SHP[1]	/* ShiftPointByLastPoint */
IUP[0]	/* InterpolateUntPts */
IUP[1]	/* InterpolateUntPts */";
};
width = 603;
},
{
layerId = "D2DF310C-5735-4FF3-9903-0538932FD5C7";
shapes = (
{
closed = 1;
nodes = (
(436,50,o),
(465,98,q),
(465,6,ls),
(465,-48,o),
(416,-120,o),
(335,-155,o),
(287,-155,qs),
(231,-155,o),
(132,-109,o),
(101,-63,q),
(50,-108,l),
(87,-161,o),
(199,-223,o),
(287,-223,qs),
(361,-223,o),
(482,-170,o),
(553,-68,o),
(553,6,qs),
(553,522,l),
(475,522,l),
(475,418,l),
(442,467,o),
(345,531,o),
(280,531,qs),
(226,531,o),
(138,488,o),
(73,413,o),
(38,315,o),
(38,260,qs),
(38,208,o),
(73,112,o),
(137,37,o),
(226,-6,o),
(279,-6,qs),
(335,-6,o)
);
},
{
closed = 1;
nodes = (
(203,96,o),
(155,150,o),
(127,219,o),
(127,258,qs),
(127,294,o),
(151,364,o),
(195,421,o),
(258,455,o),
(298,455,qs),
(333,455,o),
(399,424,o),
(451,369,o),
(465,333,q),
(465,183,l),
(460,161,o),
(430,119,o),
(386,86,o),
(334,66,o),
(306,66,qs),
(269,66,o)
);
}
);
width = 624;
},
{
layerId = "F0331135-C9C8-4C09-BCAA-87CFA41CFCF0";
shapes = (
{
closed = 1;
nodes = (
(387,41,o),
(409,82,q),
(409,48,ls),
(409,1,o),
(373,-56,o),
(314,-82,o),
(279,-82,qs),
(233,-82,o),
(152,-45,o),
(123,-18,q),
(23,-122,l),
(71,-171,o),
(196,-223,o),
(279,-223,qs),
(375,-223,o),
(519,-156,o),
(599,-34,o),
(599,48,qs),
(599,526,l),
(434,526,l),
(434,448,l),
(409,491,o),
(322,536,o),
(266,536,qs),
(212,536,o),
(122,496,o),
(57,422,o),
(21,323,o),
(21,264,qs),
(21,208,o),
(54,112,o),
(114,40,o),
(199,0,o),
(250,0,qs),
(300,0,o)
);
},
{
closed = 1;
nodes = (
(258,166,o),
(230,195,o),
(215,235,o),
(215,259,qs),
(215,283,o),
(229,325,o),
(255,358,o),
(290,376,o),
(310,376,qs),
(330,376,o),
(368,357,o),
(400,322,o),
(409,298,q),
(409,204,l),
(400,191,o),
(379,170,o),
(357,157,o),
(332,150,o),
(318,150,qs),
(296,150,o)
);
}
);
width = 647;
}
);
note = g;
unicode = 103;
},
{
glyphname = h;
kernRight = h;
layers = (
{
layerId = m01;
shapes = (
{
closed = 1;
nodes = (
(487,348,o),
(466,436,o),
(424,497,o),
(363,527,o),
(322,527,qs),
(255,527,o),
(136,450,o),
(104,385,q),
(104,730,l),
(84,730,l),
(84,0,l),
(104,0,l),
(104,328,l),
(118,379,o),
(184,460,o),
(275,507,o),
(323,507,qs),
(394,507,o),
(467,397,o),
(467,289,qs),
(467,0,l),
(487,0,l),
(487,289,ls)
);
}
);
userData = {
assembly = "NPUSHB[ ]	/* 14 values pushed */
14 9 11 5 17 7 114 12 0 114 1 11 10 114
SVTCA[0]	/* SetFreedomAndProjectionVectorToAxis */
CALL[ ]	/* CallFunction */
SHP[0]	/* ShiftPointByLastPoint */
CALL[ ]	/* CallFunction */
CALL[ ]	/* CallFunction */
SHP[0]	/* ShiftPointByLastPoint */
SRP2[ ]	/* SetRefPoint2 */
IP[ ]	/* InterpolatePts */
IP[ ]	/* InterpolatePts */
IUP[0]	/* InterpolateUntPts */
IUP[1]	/* InterpolateUntPts */";
};
width = 565;
},
{
layerId = "D2DF310C-5735-4FF3-9903-0538932FD5C7";
shapes = (
{
closed = 1;
nodes = (
(524,359,o),
(507,438,o),
(469,498,o),
(406,531,o),
(359,531,qs),
(297,531,o),
(190,466,o),
(159,410,q),
(159,730,l),
(71,730,l),
(71,0,l),
(159,0,l),
(159,315,l),
(171,355,o),
(223,416,o),
(292,452,o),
(326,452,qs),
(379,452,o),
(436,372,o),
(436,292,qs),
(436,0,l),
(524,0,l),
(524,312,ls)
);
}
);
width = 590;
},
{
layerId = "F0331135-C9C8-4C09-BCAA-87CFA41CFCF0";
shapes = (
{
closed = 1;
nodes = (
(577,375,o),
(566,441,o),
(534,499,o),
(468,536,o),
(412,536,qs),
(357,536,o),
(266,491,o),
(238,448,q),
(238,730,l),
(48,730,l),
(48,0,l),
(238,0,l),
(238,295,l),
(247,318,o),
(279,352,o),
(314,370,o),
(326,370,qs),
(352,370,o),
(387,335,o),
(387,296,qs),
(387,0,l),
(577,0,l),
(577,346,ls)
);
}
);
width = 621;
}
);
note = h;
unicode = 104;
},
{
glyphname = hbar;
kernRight = h;
layers = (
{
layerId = m01;
shapes = (
{
closed = 1;
nodes = (
(230,653,l),
(10,653,l),
(10,633,l),
(230,633,l)
);
},
{
closed = 1;
nodes = (
(487,348,o),
(466,436,o),
(424,497,o),
(363,527,o),
(322,527,qs),
(255,527,o),
(136,450,o),
(104,385,q),
(104,730,l),
(84,730,l),
(84,0,l),
(104,0,l),
(104,328,l),
(118,379,o),
(184,460,o),
(275,507,o),
(323,507,qs),
(394,507,o),
(467,397,o),
(467,289,qs),
(467,0,l),
(487,0,l),
(487,289,ls)
);
}
);
userData = {
assembly = "NPUSHB[ ]	/* 16 values pushed */
18 13 5 1 0 9 21 7 114 16 0 114 5 15 10 114
SVTCA[0]	/* SetFreedomAndProjectionVectorToAxis */
CALL[ ]	/* CallFunction */
SHP[0]	/* ShiftPointByLastPoint */
CALL[ ]	/* CallFunction */
CALL[ ]	/* CallFunction */
SHP[0]	/* ShiftPointByLastPoint */
MDRP[01100]	/* MoveDirectRelPt */
SHP[0]	/* ShiftPointByLastPoint */
SRP2[ ]	/* SetRefPoint2 */
IP[ ]	/* InterpolatePts */
IP[ ]	/* InterpolatePts */
IUP[0]	/* InterpolateUntPts */
IUP[1]	/* InterpolateUntPts */";
};
width = 565;
},
{
layerId = "D2DF310C-5735-4FF3-9903-0538932FD5C7";
shapes = (
{
closed = 1;
nodes = (
(281,667,l),
(15,667,l),
(15,611,l),
(281,611,l)
);
},
{
closed = 1;
nodes = (
(524,359,o),
(507,438,o),
(469,498,o),
(406,531,o),
(359,531,qs),
(297,531,o),
(190,466,o),
(159,410,q),
(159,730,l),
(71,730,l),
(71,0,l),
(159,0,l),
(159,315,l),
(171,355,o),
(223,416,o),
(292,452,o),
(326,452,qs),
(379,452,o),
(436,372,o),
(436,292,qs),
(436,0,l),
(524,0,l),
(524,312,ls)
);
}
);
width = 590;
},
{
layerId = "F0331135-C9C8-4C09-BCAA-87CFA41CFCF0";
shapes = (
{
closed = 1;
nodes = (
(353,688,l),
(18,688,l),
(18,579,l),
(353,579,l)
);
},
{
closed = 1;
nodes = (
(577,375,o),
(566,441,o),
(534,499,o),
(468,536,o),
(412,536,qs),
(357,536,o),
(266,491,o),
(238,448,q),
(238,730,l),
(48,730,l),
(48,0,l),
(238,0,l),
(238,295,l),
(247,318,o),
(279,352,o),
(314,370,o),
(326,370,qs),
(352,370,o),
(387,335,o),
(387,296,qs),
(387,0,l),
(577,0,l),
(577,346,ls)
);
}
);
width = 621;
}
);
note = hbar;
unicode = 295;
},
{
glyphname = i;
kernLeft = i;
kernRight = i;
layers = (
{
layerId = m01;
shapes = (
{
closed = 1;
nodes = (
(104,519,l),
(84,519,l),
(84,0,l),
(104,0,l)
);
},
{
closed = 1;
nodes = (
(104,730,l),
(84,730,l),
(84,653,l),
(104,653,l)
);
}
);
userData = {
assembly = "PUSHB[ ]	/* 6 values pushed */
5 4 1 6 0 10
SVTCA[0]	/* SetFreedomAndProjectionVectorToAxis */
MIAP[1]	/* MoveIndirectAbsPt */
MIAP[1]	/* MoveIndirectAbsPt */
MDRP[01110]	/* MoveDirectRelPt */
SHP[0]	/* ShiftPointByLastPoint */
IUP[0]	/* InterpolateUntPts */
IUP[1]	/* InterpolateUntPts */";
};
width = 188;
},
{
layerId = "D2DF310C-5735-4FF3-9903-0538932FD5C7";
shapes = (
{
closed = 1;
nodes = (
(159,522,l),
(71,522,l),
(71,0,l),
(159,0,l)
);
},
{
closed = 1;
nodes = (
(159,730,l),
(71,730,l),
(71,620,l),
(159,620,l)
);
}
);
width = 230;
},
{
layerId = "F0331135-C9C8-4C09-BCAA-87CFA41CFCF0";
shapes = (
{
closed = 1;
nodes = (
(238,526,l),
(48,526,l),
(48,0,l),
(238,0,l)
);
},
{
closed = 1;
nodes = (
(238,730,l),
(48,730,l),
(48,570,l),
(238,570,l)
);
}
);
width = 286;
}
);
note = i;
unicode = 105;
},
{
glyphname = dotlessi;
kernLeft = i;
kernRight = i;
layers = (
{
layerId = m01;
shapes = (
{
closed = 1;
nodes = (
(104,519,l),
(84,519,l),
(84,0,l),
(104,0,l)
);
}
);
userData = {
assembly = "PUSHB[ ]	/* 6 values pushed */
1 6 114 0 10 114
SVTCA[0]	/* SetFreedomAndProjectionVectorToAxis */
CALL[ ]	/* CallFunction */
CALL[ ]	/* CallFunction */
IUP[0]	/* InterpolateUntPts */
IUP[1]	/* InterpolateUntPts */";
};
width = 188;
},
{
layerId = "D2DF310C-5735-4FF3-9903-0538932FD5C7";
shapes = (
{
closed = 1;
nodes = (
(159,522,l),
(71,522,l),
(71,0,l),
(159,0,l)
);
}
);
width = 230;
},
{
layerId = "F0331135-C9C8-4C09-BCAA-87CFA41CFCF0";
shapes = (
{
closed = 1;
nodes = (
(238,526,l),
(48,526,l),
(48,0,l),
(238,0,l)
);
}
);
width = 286;
}
);
note = dotlessi;
unicode = 305;
},
{
glyphname = j;
kernLeft = i;
kernRight = i;
layers = (
{
layerId = m01;
shapes = (
{
closed = 1;
nodes = (
(71,-135,o),
(112,-75,o),
(112,-36,qs),
(112,519,l),
(92,519,l),
(92,-36,ls),
(92,-68,o),
(58,-120,o),
(6,-150,o),
(-22,-150,qs),
(-43,-150,o),
(-87,-140,o),
(-105,-124,q),
(-121,-136,l),
(-101,-155,o),
(-50,-170,o),
(-21,-170,qs),
(10,-170,o)
);
},
{
closed = 1;
nodes = (
(112,730,l),
(92,730,l),
(92,653,l),
(112,653,l)
);
}
);
userData = {
assembly = "PUSHB[ ]	/* 7 values pushed */
20 18 13 6 114 7 0
SVTCA[0]	/* SetFreedomAndProjectionVectorToAxis */
MDAP[1]	/* MoveDirectAbsPt */
SHP[0]	/* ShiftPointByLastPoint */
CALL[ ]	/* CallFunction */
MDRP[01110]	/* MoveDirectRelPt */
SHP[0]	/* ShiftPointByLastPoint */
IUP[0]	/* InterpolateUntPts */
IUP[1]	/* InterpolateUntPts */";
};
width = 196;
},
{
layerId = "D2DF310C-5735-4FF3-9903-0538932FD5C7";
shapes = (
{
closed = 1;
nodes = (
(120,-143,o),
(166,-66,o),
(166,-17,qs),
(166,522,l),
(78,522,l),
(78,-23,ls),
(78,-47,o),
(54,-86,o),
(16,-108,o),
(-6,-108,qs),
(-24,-108,o),
(-61,-98,o),
(-75,-85,q),
(-116,-144,l),
(-92,-166,o),
(-30,-186,o),
(4,-186,qs),
(47,-186,o)
);
},
{
closed = 1;
nodes = (
(166,730,l),
(78,730,l),
(78,620,l),
(166,620,l)
);
}
);
width = 237;
},
{
layerId = "F0331135-C9C8-4C09-BCAA-87CFA41CFCF0";
shapes = (
{
closed = 1;
nodes = (
(189,-153,o),
(242,-53,o),
(242,12,qs),
(242,526,l),
(52,526,l),
(52,-3,ls),
(52,-16,o),
(42,-36,o),
(25,-46,o),
(12,-46,qs),
(-1,-46,o),
(-27,-35,o),
(-35,-26,q),
(-113,-155,l),
(-82,-181,o),
(-5,-209,o),
(36,-209,qs),
(97,-209,o)
);
},
{
closed = 1;
nodes = (
(242,730,l),
(52,730,l),
(52,570,l),
(242,570,l)
);
}
);
width = 290;
}
);
note = j;
unicode = 106;
},
{
glyphname = uni0237;
kernLeft = i;
kernRight = i;
layers = (
{
layerId = m01;
shapes = (
{
closed = 1;
nodes = (
(63,-135,o),
(104,-75,o),
(104,-36,qs),
(104,519,l),
(84,519,l),
(84,-36,ls),
(84,-68,o),
(50,-120,o),
(-2,-150,o),
(-30,-150,qs),
(-51,-150,o),
(-95,-140,o),
(-113,-124,q),
(-129,-136,l),
(-109,-155,o),
(-58,-170,o),
(-29,-170,qs),
(2,-170,o)
);
}
);
userData = {
assembly = "PUSHB[ ]	/* 6 values pushed */
7 0 13 6 114 0
SVTCA[0]	/* SetFreedomAndProjectionVectorToAxis */
MDAP[1]	/* MoveDirectAbsPt */
CALL[ ]	/* CallFunction */
SRP1[ ]	/* SetRefPoint1 */
SHP[1]	/* ShiftPointByLastPoint */
IUP[0]	/* InterpolateUntPts */
IUP[1]	/* InterpolateUntPts */";
};
width = 188;
},
{
layerId = "D2DF310C-5735-4FF3-9903-0538932FD5C7";
shapes = (
{
closed = 1;
nodes = (
(113,-143,o),
(159,-66,o),
(159,-17,qs),
(159,522,l),
(71,522,l),
(71,-23,ls),
(71,-47,o),
(47,-86,o),
(9,-108,o),
(-13,-108,qs),
(-31,-108,o),
(-68,-98,o),
(-82,-85,q),
(-123,-144,l),
(-99,-166,o),
(-37,-186,o),
(-3,-186,qs),
(40,-186,o)
);
}
);
width = 230;
},
{
layerId = "F0331135-C9C8-4C09-BCAA-87CFA41CFCF0";
shapes = (
{
closed = 1;
nodes = (
(185,-153,o),
(238,-53,o),
(238,12,qs),
(238,526,l),
(48,526,l),
(48,-3,ls),
(48,-16,o),
(38,-36,o),
(21,-46,o),
(8,-46,qs),
(-5,-46,o),
(-31,-35,o),
(-39,-26,q),
(-117,-155,l),
(-86,-181,o),
(-9,-209,o),
(32,-209,qs),
(93,-209,o)
);
}
);
width = 286;
}
);
note = uni0237;
unicode = 567;
},
{
glyphname = k;
kernRight = k;
layers = (
{
layerId = m01;
shapes = (
{
closed = 1;
nodes = (
(260,311,l),
(485,517,l),
(458,517,l),
(104,196,l),
(104,730,l),
(84,730,l),
(84,0,l),
(104,0,l),
(104,169,l),
(245,297,l),
(466,0,l),
(490,0,l)
);
}
);
userData = {
assembly = "NPUSHB[ ]	/* 16 values pushed */
2 7 1 10 4 4 9 6 114 5 0 114 11 4 10 114
SVTCA[0]	/* SetFreedomAndProjectionVectorToAxis */
CALL[ ]	/* CallFunction */
SHP[0]	/* ShiftPointByLastPoint */
CALL[ ]	/* CallFunction */
CALL[ ]	/* CallFunction */
SRP2[ ]	/* SetRefPoint2 */
SLOOP[ ]	/* SetLoopVariable */
IP[ ]	/* InterpolatePts */
IUP[0]	/* InterpolateUntPts */
IUP[1]	/* InterpolateUntPts */";
};
width = 508;
},
{
layerId = "D2DF310C-5735-4FF3-9903-0538932FD5C7";
shapes = (
{
closed = 1;
nodes = (
(316,305,l),
(524,521,l),
(429,521,l),
(159,253,l),
(159,730,l),
(71,730,l),
(71,0,l),
(159,0,l),
(159,161,l),
(258,254,l),
(439,0,l),
(534,0,l)
);
}
);
width = 539;
},
{
layerId = "F0331135-C9C8-4C09-BCAA-87CFA41CFCF0";
shapes = (
{
closed = 1;
nodes = (
(397,296,l),
(578,526,l),
(378,526,l),
(238,331,l),
(238,730,l),
(48,730,l),
(48,0,l),
(238,0,l),
(238,150,l),
(276,192,l),
(395,0,l),
(596,0,l)
);
}
);
width = 582;
}
);
note = k;
unicode = 107;
},
{
glyphname = kgreenlandic;
layers = (
{
layerId = m01;
shapes = (
{
closed = 1;
nodes = (
(260,311,l),
(485,517,l),
(458,517,l),
(104,196,l),
(104,519,l),
(84,519,l),
(84,0,l),
(104,0,l),
(104,169,l),
(245,297,l),
(466,0,l),
(490,0,l)
);
}
);
userData = {
assembly = "NPUSHB[ ]	/* 14 values pushed */
2 7 1 10 4 4 9 5 6 114 11 4 10 114
SVTCA[0]	/* SetFreedomAndProjectionVectorToAxis */
CALL[ ]	/* CallFunction */
SHP[0]	/* ShiftPointByLastPoint */
CALL[ ]	/* CallFunction */
SHP[0]	/* ShiftPointByLastPoint */
SRP2[ ]	/* SetRefPoint2 */
SLOOP[ ]	/* SetLoopVariable */
IP[ ]	/* InterpolatePts */
IUP[0]	/* InterpolateUntPts */
IUP[1]	/* InterpolateUntPts */";
};
width = 508;
},
{
layerId = "D2DF310C-5735-4FF3-9903-0538932FD5C7";
shapes = (
{
closed = 1;
nodes = (
(316,305,l),
(524,521,l),
(427,521,l),
(159,250,l),
(159,522,l),
(71,522,l),
(71,0,l),
(159,0,l),
(159,161,l),
(259,255,l),
(439,0,l),
(534,0,l)
);
}
);
width = 539;
},
{
layerId = "F0331135-C9C8-4C09-BCAA-87CFA41CFCF0";
shapes = (
{
closed = 1;
nodes = (
(397,296,l),
(578,526,l),
(378,526,l),
(238,331,l),
(238,526,l),
(48,526,l),
(48,0,l),
(238,0,l),
(238,150,l),
(276,192,l),
(395,0,l),
(596,0,l)
);
}
);
width = 582;
}
);
note = kgreenlandic;
unicode = 312;
},
{
glyphname = l;
kernLeft = l;
kernRight = l;
layers = (
{
layerId = m01;
shapes = (
{
closed = 1;
nodes = (
(90,40,o),
(134,-5,o),
(169,-5,qs),
(183,-5,o),
(225,3,o),
(238,7,q),
(231,23,l),
(218,19,o),
(187,14,o),
(176,14,qs),
(146,14,o),
(110,48,o),
(110,77,qs),
(110,730,l),
(90,730,l),
(90,77,ls)
);
}
);
userData = {
assembly = "PUSHB[ ]	/* 7 values pushed */
5 12 11 114 0 0 114
SVTCA[0]	/* SetFreedomAndProjectionVectorToAxis */
CALL[ ]	/* CallFunction */
CALL[ ]	/* CallFunction */
SHP[0]	/* ShiftPointByLastPoint */
IUP[0]	/* InterpolateUntPts */
IUP[1]	/* InterpolateUntPts */";
};
width = 238;
},
{
layerId = "D2DF310C-5735-4FF3-9903-0538932FD5C7";
shapes = (
{
closed = 1;
nodes = (
(73,51,o),
(132,-7,o),
(183,-7,qs),
(206,-7,o),
(266,5,o),
(288,14,q),
(274,86,l),
(261,81,o),
(223,72,o),
(202,72,qs),
(185,72,o),
(161,92,o),
(161,135,qs),
(161,730,l),
(73,730,l),
(73,103,ls)
);
}
);
width = 286;
},
{
layerId = "F0331135-C9C8-4C09-BCAA-87CFA41CFCF0";
shapes = (
{
closed = 1;
nodes = (
(44,69,o),
(126,-10,o),
(202,-10,qs),
(240,-10,o),
(325,8,o),
(359,24,q),
(335,164,l),
(323,157,o),
(295,149,o),
(283,149,qs),
(259,149,o),
(234,180,o),
(234,209,qs),
(234,730,l),
(44,730,l),
(44,142,ls)
);
}
);
width = 355;
}
);
note = l;
unicode = 108;
},
{
glyphname = lslash;
kernLeft = l;
kernRight = l;
layers = (
{
layerId = m01;
shapes = (
{
closed = 1;
nodes = (
(216,518,l),
(16,318,l),
(31,304,l),
(231,504,l)
);
},
{
closed = 1;
nodes = (
(104,40,o),
(148,-5,o),
(183,-5,qs),
(197,-5,o),
(239,3,o),
(252,7,q),
(245,23,l),
(232,19,o),
(201,14,o),
(190,14,qs),
(160,14,o),
(124,48,o),
(124,77,qs),
(124,730,l),
(104,730,l),
(104,77,ls)
);
}
);
userData = {
assembly = "NPUSHB[ ]	/* 13 values pushed */
1 0 0 9 16 11 114 3 2 2 4 0 114
SVTCA[0]	/* SetFreedomAndProjectionVectorToAxis */
CALL[ ]	/* CallFunction */
SHP[0]	/* ShiftPointByLastPoint */
SRP1[ ]	/* SetRefPoint1 */
SHP[1]	/* ShiftPointByLastPoint */
CALL[ ]	/* CallFunction */
SHP[0]	/* ShiftPointByLastPoint */
SHP[0]	/* ShiftPointByLastPoint */
SRP1[ ]	/* SetRefPoint1 */
SHP[1]	/* ShiftPointByLastPoint */
IUP[0]	/* InterpolateUntPts */
IUP[1]	/* InterpolateUntPts */";
};
width = 253;
},
{
layerId = "D2DF310C-5735-4FF3-9903-0538932FD5C7";
shapes = (
{
closed = 1;
nodes = (
(270,522,l),
(8,332,l),
(34,283,l),
(297,473,l)
);
},
{
closed = 1;
nodes = (
(94,51,o),
(153,-7,o),
(204,-7,qs),
(227,-7,o),
(287,5,o),
(309,14,q),
(295,86,l),
(282,81,o),
(244,72,o),
(223,72,qs),
(206,72,o),
(182,92,o),
(182,135,qs),
(182,730,l),
(94,730,l),
(94,103,ls)
);
}
);
width = 308;
},
{
layerId = "F0331135-C9C8-4C09-BCAA-87CFA41CFCF0";
shapes = (
{
closed = 1;
nodes = (
(345,527,l),
(-11,353,l),
(32,252,l),
(388,426,l)
);
},
{
closed = 1;
nodes = (
(72,69,o),
(154,-10,o),
(230,-10,qs),
(268,-10,o),
(353,8,o),
(387,24,q),
(363,164,l),
(351,157,o),
(323,149,o),
(311,149,qs),
(287,149,o),
(262,180,o),
(262,209,qs),
(262,730,l),
(72,730,l),
(72,142,ls)
);
}
);
width = 387;
}
);
note = lslash;
unicode = 322;
},
{
glyphname = m;
kernLeft = m;
kernRight = m;
layers = (
{
layerId = m01;
shapes = (
{
closed = 1;
nodes = (
(830,349,o),
(811,439,o),
(771,498,o),
(712,527,o),
(671,527,qs),
(605,527,o),
(502,452,o),
(463,376,q),
(456,445,o),
(370,527,o),
(305,527,qs),
(244,527,o),
(138,453,o),
(104,385,q),
(104,519,l),
(84,519,l),
(84,0,l),
(104,0,l),
(104,328,l),
(127,408,o),
(236,507,o),
(309,507,qs),
(380,507,o),
(447,402,o),
(447,289,qs),
(447,0,l),
(467,0,l),
(467,327,l),
(488,406,o),
(597,507,o),
(671,507,qs),
(742,507,o),
(810,400,o),
(810,289,qs),
(810,0,l),
(830,0,l),
(830,289,ls)
);
}
);
userData = {
assembly = "NPUSHB[ ]	/* 20 values pushed */
5 31 31 17 28 22 3 19 14 25 7 114 20 6 114 10 1 19 10 114
SVTCA[0]	/* SetFreedomAndProjectionVectorToAxis */
CALL[ ]	/* CallFunction */
SHP[0]	/* ShiftPointByLastPoint */
SHP[0]	/* ShiftPointByLastPoint */
CALL[ ]	/* CallFunction */
CALL[ ]	/* CallFunction */
SHP[0]	/* ShiftPointByLastPoint */
SRP2[ ]	/* SetRefPoint2 */
SLOOP[ ]	/* SetLoopVariable */
IP[ ]	/* InterpolatePts */
SHP[1]	/* ShiftPointByLastPoint */
SRP1[ ]	/* SetRefPoint1 */
SHP[1]	/* ShiftPointByLastPoint */
IUP[0]	/* InterpolateUntPts */
IUP[1]	/* InterpolateUntPts */";
};
width = 908;
},
{
layerId = "D2DF310C-5735-4FF3-9903-0538932FD5C7";
shapes = (
{
closed = 1;
nodes = (
(858,359,o),
(842,439,o),
(806,498,o),
(745,531,o),
(700,531,qs),
(636,531,o),
(536,466,o),
(501,404,q),
(492,460,o),
(414,531,o),
(349,531,qs),
(285,531,o),
(183,468,o),
(151,410,q),
(151,522,l),
(71,522,l),
(71,0,l),
(159,0,l),
(159,315,l),
(177,377,o),
(264,452,o),
(316,452,qs),
(368,452,o),
(420,375,o),
(420,292,qs),
(420,0,l),
(508,0,l),
(508,314,l),
(526,375,o),
(612,452,o),
(665,452,qs),
(717,452,o),
(770,374,o),
(770,292,qs),
(770,0,l),
(858,0,l),
(858,312,ls)
);
}
);
width = 924;
},
{
layerId = "F0331135-C9C8-4C09-BCAA-87CFA41CFCF0";
shapes = (
{
closed = 1;
nodes = (
(896,373,o),
(886,438,o),
(855,498,o),
(793,536,o),
(741,536,qs),
(680,536,o),
(582,488,o),
(554,445,q),
(543,480,o),
(477,536,o),
(412,536,qs),
(345,536,o),
(247,491,o),
(219,448,q),
(219,526,l),
(48,526,l),
(48,0,l),
(238,0,l),
(238,295,l),
(250,328,o),
(302,370,o),
(324,370,qs),
(346,370,o),
(377,335,o),
(377,296,qs),
(377,0,l),
(567,0,l),
(567,295,l),
(579,328,o),
(631,370,o),
(653,370,qs),
(675,370,o),
(706,335,o),
(706,296,qs),
(706,0,l),
(896,0,l),
(896,346,ls)
);
}
);
width = 940;
}
);
note = m;
unicode = 109;
},
{
glyphname = n;
kernLeft = m;
kernRight = m;
layers = (
{
layerId = m01;
shapes = (
{
closed = 1;
nodes = (
(487,350,o),
(469,440,o),
(431,498,o),
(373,527,o),
(333,527,qs),
(287,527,o),
(198,491,o),
(126,427,o),
(104,385,q),
(104,519,l),
(84,519,l),
(84,0,l),
(104,0,l),
(104,328,l),
(119,379,o),
(189,460,o),
(284,507,o),
(334,507,qs),
(404,507,o),
(467,402,o),
(467,289,qs),
(467,0,l),
(487,0,l),
(487,289,ls)
);
}
);
userData = {
assembly = "NPUSHB[ ]	/* 14 values pushed */
14 9 11 5 18 7 114 12 6 114 1 11 10 114
SVTCA[0]	/* SetFreedomAndProjectionVectorToAxis */
CALL[ ]	/* CallFunction */
SHP[0]	/* ShiftPointByLastPoint */
CALL[ ]	/* CallFunction */
CALL[ ]	/* CallFunction */
SHP[0]	/* ShiftPointByLastPoint */
SRP2[ ]	/* SetRefPoint2 */
IP[ ]	/* InterpolatePts */
IP[ ]	/* InterpolatePts */
IUP[0]	/* InterpolateUntPts */
IUP[1]	/* InterpolateUntPts */";
};
width = 565;
},
{
layerId = "D2DF310C-5735-4FF3-9903-0538932FD5C7";
shapes = (
{
closed = 1;
nodes = (
(524,359,o),
(509,439,o),
(474,498,o),
(413,531,o),
(368,531,qs),
(322,531,o),
(238,501,o),
(172,447,o),
(151,410,q),
(151,522,l),
(71,522,l),
(71,0,l),
(159,0,l),
(159,315,l),
(171,355,o),
(226,416,o),
(297,452,o),
(333,452,qs),
(385,452,o),
(436,375,o),
(436,292,qs),
(436,0,l),
(524,0,l),
(524,312,ls)
);
}
);
width = 590;
},
{
layerId = "F0331135-C9C8-4C09-BCAA-87CFA41CFCF0";
shapes = (
{
closed = 1;
nodes = (
(577,373,o),
(567,438,o),
(535,498,o),
(471,536,o),
(417,536,qs),
(372,536,o),
(296,516,o),
(238,477,o),
(219,448,q),
(219,526,l),
(48,526,l),
(48,0,l),
(238,0,l),
(238,295,l),
(247,317,o),
(277,351,o),
(313,370,o),
(329,370,qs),
(352,370,o),
(387,335,o),
(387,296,qs),
(387,0,l),
(577,0,l),
(577,346,ls)
);
}
);
width = 621;
}
);
note = n;
unicode = 110;
},
{
glyphname = eng;
kernLeft = m;
kernRight = m;
layers = (
{
layerId = m01;
shapes = (
{
closed = 1;
nodes = (
(446,-135,o),
(487,-75,o),
(487,-36,qs),
(487,289,ls),
(487,350,o),
(469,440,o),
(431,498,o),
(373,527,o),
(333,527,qs),
(287,527,o),
(198,491,o),
(126,427,o),
(104,385,q),
(104,519,l),
(84,519,l),
(84,0,l),
(104,0,l),
(104,328,l),
(119,379,o),
(189,460,o),
(284,507,o),
(334,507,qs),
(404,507,o),
(467,402,o),
(467,289,qs),
(467,-36,ls),
(467,-68,o),
(433,-120,o),
(381,-150,o),
(353,-150,qs),
(332,-150,o),
(288,-140,o),
(270,-124,q),
(254,-136,l),
(274,-155,o),
(325,-170,o),
(354,-170,qs),
(385,-170,o)
);
}
);
userData = {
assembly = "NPUSHB[ ]	/* 15 values pushed */
24 19 0 15 28 7 114 22 6 114 21 10 114 7 0
SVTCA[0]	/* SetFreedomAndProjectionVectorToAxis */
MDAP[1]	/* MoveDirectAbsPt */
SHP[0]	/* ShiftPointByLastPoint */
CALL[ ]	/* CallFunction */
CALL[ ]	/* CallFunction */
CALL[ ]	/* CallFunction */
SHP[0]	/* ShiftPointByLastPoint */
SRP2[ ]	/* SetRefPoint2 */
IP[ ]	/* InterpolatePts */
IP[ ]	/* InterpolatePts */
IUP[0]	/* InterpolateUntPts */
IUP[1]	/* InterpolateUntPts */";
};
width = 565;
},
{
layerId = "D2DF310C-5735-4FF3-9903-0538932FD5C7";
shapes = (
{
closed = 1;
nodes = (
(478,-143,o),
(524,-66,o),
(524,-17,qs),
(524,312,ls),
(524,359,o),
(509,439,o),
(474,498,o),
(413,531,o),
(368,531,qs),
(322,531,o),
(238,501,o),
(172,447,o),
(151,410,q),
(151,522,l),
(71,522,l),
(71,0,l),
(159,0,l),
(159,315,l),
(171,355,o),
(226,416,o),
(297,452,o),
(333,452,qs),
(385,452,o),
(436,375,o),
(436,292,qs),
(436,-23,ls),
(436,-47,o),
(412,-86,o),
(374,-108,o),
(352,-108,qs),
(334,-108,o),
(297,-98,o),
(283,-85,q),
(242,-144,l),
(266,-166,o),
(328,-186,o),
(362,-186,qs),
(405,-186,o)
);
}
);
width = 590;
},
{
layerId = "F0331135-C9C8-4C09-BCAA-87CFA41CFCF0";
shapes = (
{
closed = 1;
nodes = (
(523,-153,o),
(576,-53,o),
(576,12,qs),
(576,346,ls),
(576,373,o),
(566,438,o),
(535,498,o),
(471,536,o),
(417,536,qs),
(372,536,o),
(296,516,o),
(238,477,o),
(219,448,q),
(219,526,l),
(48,526,l),
(48,0,l),
(238,0,l),
(238,295,l),
(247,317,o),
(277,351,o),
(313,370,o),
(329,370,qs),
(352,370,o),
(387,335,o),
(387,296,qs),
(387,-3,ls),
(387,-16,o),
(377,-36,o),
(359,-46,o),
(346,-46,qs),
(333,-46,o),
(307,-35,o),
(299,-26,q),
(221,-155,l),
(252,-181,o),
(329,-209,o),
(370,-209,qs),
(430,-209,o)
);
}
);
width = 620;
}
);
note = eng;
unicode = 331;
},
{
glyphname = o;
kernLeft = c;
kernRight = uni0259;
layers = (
{
layerId = m01;
shapes = (
{
closed = 1;
nodes = (
(433,32,o),
(502,107,o),
(540,204,o),
(540,258,qs),
(540,313,o),
(501,410,o),
(433,485,o),
(343,527,o),
(293,527,qs),
(243,527,o),
(153,485,o),
(85,410,o),
(46,313,o),
(46,258,qs),
(46,204,o),
(84,107,o),
(152,32,o),
(242,-10,o),
(293,-10,qs),
(344,-10,o)
);
},
{
closed = 1;
nodes = (
(128,438,o),
(232,507,o),
(293,507,qs),
(355,507,o),
(458,439,o),
(520,326,o),
(520,259,qs),
(520,192,o),
(458,78,o),
(354,10,o),
(292,10,qs),
(230,10,o),
(127,77,o),
(66,189,o),
(66,256,qs),
(66,324,o)
);
}
);
userData = {
assembly = "NPUSHB[ ]	/* 9 values pushed */
24 0 32 10 7 114 0 11 114
SVTCA[0]	/* SetFreedomAndProjectionVectorToAxis */
CALL[ ]	/* CallFunction */
CALL[ ]	/* CallFunction */
SHP[0]	/* ShiftPointByLastPoint */
SRP1[ ]	/* SetRefPoint1 */
SHP[1]	/* ShiftPointByLastPoint */
IUP[0]	/* InterpolateUntPts */
IUP[1]	/* InterpolateUntPts */";
};
width = 586;
},
{
layerId = "D2DF310C-5735-4FF3-9903-0538932FD5C7";
shapes = (
{
closed = 1;
nodes = (
(455,33,o),
(525,108,o),
(563,205.64,o),
(563,259.997,qs),
(563,315.36,o),
(525,413,o),
(454,488,o),
(358,531,o),
(299.5,531,qs),
(241,531,o),
(144,488,o),
(74,413,o),
(36,315.36,o),
(36,259.997,qs),
(36,205.64,o),
(74,108,o),
(144,33,o),
(240,-10,o),
(299,-10,qs),
(358,-10,o)
);
},
{
closed = 1;
nodes = (
(172.687,401.836,o),
(251,455,o),
(299,455,qs),
(346.721,455,o),
(426,403,o),
(473,315,o),
(473,261,qs),
(473,207,o),
(426,118,o),
(347,66,o),
(299,66,qs),
(251,66,o),
(173,117,o),
(126,205,o),
(126,259.096,qs),
(126,314,o)
);
}
);
width = 599;
},
{
layerId = "F0331135-C9C8-4C09-BCAA-87CFA41CFCF0";
shapes = (
{
closed = 1;
nodes = (
(485,34,o),
(558,111,o),
(595,209,o),
(595,263,qs),
(595,317,o),
(558,416,o),
(485,492,o),
(378,536,o),
(307,536,qs),
(237,536,o),
(129,492,o),
(56,416,o),
(19,317,o),
(19,263,qs),
(19,209,o),
(56,111,o),
(129,34,o),
(237,-10,o),
(307,-10,qs),
(378,-10,o)
);
},
{
closed = 1;
nodes = (
(238,349,o),
(280,376,o),
(307,376,qs),
(334,376,o),
(376,349,o),
(400,298,o),
(400,263,qs),
(400,228,o),
(376,177,o),
(334,150,o),
(307,150,qs),
(280,150,o),
(238,177,o),
(214,228,o),
(214,263,qs),
(214,298,o)
);
}
);
width = 614;
}
);
note = o;
unicode = 111;
},
{
glyphname = oslash;
kernLeft = c;
kernRight = uni0259;
layers = (
{
layerId = m01;
shapes = (
{
closed = 1;
nodes = (
(433,32,o),
(502,107,o),
(540,204,o),
(540,258,qs),
(540,313,o),
(501,410,o),
(433,485,o),
(343,527,o),
(293,527,qs),
(243,527,o),
(153,485,o),
(85,410,o),
(46,313,o),
(46,258,qs),
(46,204,o),
(84,107,o),
(152,32,o),
(242,-10,o),
(293,-10,qs),
(344,-10,o)
);
},
{
closed = 1;
nodes = (
(127,77,o),
(66,189,o),
(66,256,qs),
(66,324,o),
(128,438,o),
(232,507,o),
(293,507,qs),
(355,507,o),
(458,439,o),
(520,326,o),
(520,259,qs),
(520,192,o),
(458,78,o),
(354,10,o),
(292,10,qs),
(230,10,o)
);
},
{
closed = 1;
nodes = (
(171,38,l),
(154,51,l),
(123,0,l),
(148,0,l)
);
},
{
closed = 1;
nodes = (
(416,479,l),
(154,51,l),
(171,38,l),
(434,466,l)
);
},
{
closed = 1;
nodes = (
(440,519,l),
(416,479,l),
(434,466,l),
(466,519,l)
);
}
);
userData = {
assembly = "NPUSHB[ ]	/* 22 values pushed */
43 45 44 42 37 38 41 40 8 0 47 47 28 10 7 114 39 39 20 0 11 114
SVTCA[0]	/* SetFreedomAndProjectionVectorToAxis */
CALL[ ]	/* CallFunction */
SHP[0]	/* ShiftPointByLastPoint */
SHP[0]	/* ShiftPointByLastPoint */
MDAP[1]	/* MoveDirectAbsPt */
CALL[ ]	/* CallFunction */
SHP[0]	/* ShiftPointByLastPoint */
SHP[0]	/* ShiftPointByLastPoint */
MDAP[1]	/* MoveDirectAbsPt */
SRP1[ ]	/* SetRefPoint1 */
SLOOP[ ]	/* SetLoopVariable */
IP[ ]	/* InterpolatePts */
IUP[0]	/* InterpolateUntPts */
IUP[1]	/* InterpolateUntPts */";
};
width = 586;
},
{
layerId = "D2DF310C-5735-4FF3-9903-0538932FD5C7";
shapes = (
{
closed = 1;
nodes = (
(455,33,o),
(525,108,o),
(563,206,o),
(563,260,qs),
(563,315,o),
(525,413,o),
(454,488,o),
(358,531,o),
(299,531,qs),
(241,531,o),
(144,488,o),
(74,413,o),
(36,315,o),
(36,260,qs),
(36,206,o),
(74,108,o),
(144,33,o),
(240,-10,o),
(299,-10,qs),
(358,-10,o)
);
},
{
closed = 1;
nodes = (
(173,117,o),
(126,205,o),
(126,259,qs),
(126,314,o),
(173,402,o),
(251,455,o),
(299,455,qs),
(347,455,o),
(426,403,o),
(473,315,o),
(473,261,qs),
(473,207,o),
(426,118,o),
(347,66,o),
(299,66,qs),
(251,66,o)
);
},
{
closed = 1;
nodes = (
(193,64,l),
(142,94,l),
(65,-2,l),
(140,-2,l)
);
},
{
closed = 1;
nodes = (
(398,455,l),
(153,98,l),
(202,71,l),
(452,432,l)
);
},
{
closed = 1;
nodes = (
(456,524,l),
(407,461,l),
(463,437,l),
(532,524,l)
);
}
);
width = 599;
},
{
layerId = "F0331135-C9C8-4C09-BCAA-87CFA41CFCF0";
shapes = (
{
closed = 1;
nodes = (
(485,34,o),
(558,111,o),
(595,209,o),
(595,263,qs),
(595,317,o),
(558,416,o),
(485,492,o),
(378,536,o),
(307,536,qs),
(237,536,o),
(129,492,o),
(56,416,o),
(19,317,o),
(19,263,qs),
(19,209,o),
(56,111,o),
(129,34,o),
(237,-10,o),
(307,-10,qs),
(378,-10,o)
);
},
{
closed = 1;
nodes = (
(238,177,o),
(214,228,o),
(214,263,qs),
(214,298,o),
(238,349,o),
(280,376,o),
(307,376,qs),
(334,376,o),
(376,349,o),
(400,298,o),
(400,263,qs),
(400,228,o),
(376,177,o),
(334,150,o),
(307,150,qs),
(280,150,o)
);
},
{
closed = 1;
nodes = (
(211,104,l),
(149,158,l),
(14,-6,l),
(114,-6,l)
);
},
{
closed = 1;
nodes = (
(395,418,l),
(174,169,l),
(221,121,l),
(452,381,l)
);
},
{
closed = 1;
nodes = (
(490,532,l),
(404,435,l),
(477,393,l),
(591,532,l)
);
}
);
width = 614;
}
);
note = oslash;
unicode = 248;
},
{
glyphname = oe;
kernLeft = c;
kernRight = ae;
layers = (
{
layerId = m01;
shapes = (
{
closed = 1;
nodes = (
(443,39,o),
(514,127,o),
(530,185,q),
(546,129,o),
(621,40,o),
(723,-10,o),
(779,-10,qs),
(824,-10,o),
(907,22,o),
(971,78,o),
(986,114,q),
(967,119,l),
(948,71,o),
(843,10,o),
(781,10,qs),
(718,10,o),
(612,74,o),
(545,182,o),
(540,248,q),
(1015,248,l),
(1015,251,o),
(1014,256,o),
(1014,259,qs),
(1007,342,o),
(941,462,o),
(835,527,o),
(766,527,qs),
(678,527,o),
(549,422,o),
(528,332,q),
(514,391,o),
(445,478,o),
(350,527,o),
(295,527,qs),
(226,527,o),
(113,454,o),
(46,332,o),
(46,257,qs),
(46,183,o),
(112,62,o),
(223,-10,o),
(291,-10,qs),
(347,-10,o)
);
},
{
closed = 1;
nodes = (
(127,76,o),
(66,187,o),
(66,255,qs),
(66,324,o),
(128,439,o),
(232,507,o),
(294,507,qs),
(356,507,o),
(459,440,o),
(520,327,o),
(520,258,qs),
(520,190,o),
(458,77,o),
(355,10,o),
(292,10,qs),
(230,10,o)
);
},
{
closed = 1;
nodes = (
(544,337,o),
(605,445,o),
(705,507,o),
(766,507,qs),
(828,507,o),
(928,445,o),
(990,338,o),
(994,268,q),
(540,268,l)
);
}
);
userData = {
assembly = "NPUSHB[ ]	/* 18 values pushed */
67 23 23 0 63 15 15 51 8 7 114 27 35 35 43 0 11 114
SVTCA[0]	/* SetFreedomAndProjectionVectorToAxis */
CALL[ ]	/* CallFunction */
SHP[0]	/* ShiftPointByLastPoint */
SHP[0]	/* ShiftPointByLastPoint */
SRP1[ ]	/* SetRefPoint1 */
SHP[1]	/* ShiftPointByLastPoint */
CALL[ ]	/* CallFunction */
SHP[0]	/* ShiftPointByLastPoint */
SHP[0]	/* ShiftPointByLastPoint */
SRP1[ ]	/* SetRefPoint1 */
SHP[1]	/* ShiftPointByLastPoint */
SRP1[ ]	/* SetRefPoint1 */
IP[ ]	/* InterpolatePts */
MDAP[1]	/* MoveDirectAbsPt */
SHP[1]	/* ShiftPointByLastPoint */
IUP[0]	/* InterpolateUntPts */
IUP[1]	/* InterpolateUntPts */";
};
width = 1050;
},
{
layerId = "D2DF310C-5735-4FF3-9903-0538932FD5C7";
shapes = (
{
closed = 1;
nodes = (
(427,25,o),
(494,92,o),
(518,139,q),
(543,94,o),
(612,27,o),
(698,-10,o),
(745,-10,qs),
(795,-10,o),
(886,23,o),
(955,83,o),
(973,122,q),
(899,143,l),
(884,104,o),
(799,55,o),
(749,55,qs),
(701,55,o),
(621,102,o),
(570,182,o),
(566,231,q),
(999,231,l),
(1000,236,o),
(1000,255,o),
(1000,261,qs),
(996,342,o),
(927,464,o),
(813,531,o),
(738,531,qs),
(662,531,o),
(548,452,o),
(517,379,q),
(498,426,o),
(433,494,o),
(348,531,o),
(299,531,qs),
(225,531,o),
(105,459,o),
(36,336,o),
(36,259,qs),
(36,183,o),
(105,61,o),
(224,-10,o),
(298,-10,qs),
(345,-10,o)
);
},
{
closed = 1;
nodes = (
(172,117,o),
(126,204,o),
(126,258,qs),
(126,313,o),
(173,402,o),
(252,455,o),
(300,455,qs),
(349,455,o),
(427,403,o),
(473,315,o),
(473,260,qs),
(473,206,o),
(427,118,o),
(348,66,o),
(299,66,qs),
(251,66,o)
);
},
{
closed = 1;
nodes = (
(567,340,o),
(613,419,o),
(689,465,o),
(736,465,qs),
(783,465,o),
(861,420,o),
(912,340,o),
(915,288,q),
(564,288,l)
);
}
);
width = 1028;
},
{
layerId = "F0331135-C9C8-4C09-BCAA-87CFA41CFCF0";
shapes = (
{
closed = 1;
nodes = (
(399,5,o),
(460,40,o),
(497,70,q),
(534,41,o),
(596,5,o),
(657,-10,o),
(692,-10,qs),
(750,-10,o),
(850,24,o),
(928,89,o),
(951,133,q),
(795,179,l),
(785,154,o),
(730,122,o),
(698,122,qs),
(672,122,o),
(630,144,o),
(605,181,o),
(603,205,q),
(972,205,l),
(974,217,o),
(977,248,o),
(977,263,qs),
(977,343,o),
(904,466,o),
(776,536,o),
(693,536,qs),
(635,536,o),
(544,496,o),
(497,450,q),
(470,480,o),
(411,518,o),
(343,536,o),
(303,536,qs),
(220,536,o),
(92,466,o),
(19,343,o),
(19,263,qs),
(19,183,o),
(92,60,o),
(221,-10,o),
(305,-10,qs),
(340,-10,o)
);
},
{
closed = 1;
nodes = (
(237,178,o),
(214,229,o),
(214,263,qs),
(214,297,o),
(237,348,o),
(279,376,o),
(307,376,qs),
(335,376,o),
(377,348,o),
(400,297,o),
(400,263,qs),
(400,229,o),
(377,178,o),
(335,150,o),
(307,150,qs),
(279,150,o)
);
},
{
closed = 1;
nodes = (
(600,344,o),
(623,381,o),
(662,401,o),
(687,401,qs),
(712,401,o),
(750,381,o),
(774,344,o),
(777,319,q),
(597,319,l)
);
}
);
width = 991;
}
);
note = oe;
unicode = 339;
},
{
glyphname = p;
kernLeft = m;
kernRight = b;
layers = (
{
layerId = m01;
shapes = (
{
closed = 1;
nodes = (
(497,65,o),
(557,187,o),
(557,258,qs),
(557,308,o),
(520,404,o),
(453,481,o),
(362,527,o),
(307,527,qs),
(248,527,o),
(137,461,o),
(104,409,q),
(104,519,l),
(84,519,l),
(84,-213,l),
(104,-213,l),
(104,119,l),
(138,67,o),
(247,-10,o),
(316,-10,qs),
(389,-10,o)
);
},
{
closed = 1;
nodes = (
(187,51,o),
(123,119,o),
(104,161,q),
(104,348,l),
(106,379,o),
(146,436,o),
(208,481,o),
(277,507,o),
(307,507,qs),
(355,507,o),
(438,466,o),
(502,396,o),
(537,307,o),
(537,258,qs),
(537,212,o),
(506,124,o),
(448,52,o),
(367,10,o),
(316,10,qs),
(270,10,o)
);
}
);
userData = {
assembly = "NPUSHB[ ]	/* 20 values pushed */
3 36 35 8 4 0 30 11 7 114 6 6 114 5 14 114 20 0 11 114
SVTCA[0]	/* SetFreedomAndProjectionVectorToAxis */
CALL[ ]	/* CallFunction */
SHP[0]	/* ShiftPointByLastPoint */
CALL[ ]	/* CallFunction */
CALL[ ]	/* CallFunction */
CALL[ ]	/* CallFunction */
SHP[0]	/* ShiftPointByLastPoint */
SRP2[ ]	/* SetRefPoint2 */
SLOOP[ ]	/* SetLoopVariable */
IP[ ]	/* InterpolatePts */
IUP[0]	/* InterpolateUntPts */
IUP[1]	/* InterpolateUntPts */";
};
width = 603;
},
{
layerId = "D2DF310C-5735-4FF3-9903-0538932FD5C7";
shapes = (
{
closed = 1;
nodes = (
(527,63,o),
(586,187,o),
(586,261,qs),
(586,314,o),
(549,411,o),
(483,487,o),
(393,531,o),
(339,531,qs),
(280,531,o),
(180,472,o),
(149,424,q),
(149,522,l),
(71,522,l),
(71,-213,l),
(159,-213,l),
(159,103,l),
(188,54,o),
(288,-10,o),
(352,-10,qs),
(421,-10,o)
);
},
{
closed = 1;
nodes = (
(224,99,o),
(174,155,o),
(159,189,q),
(159,338,l),
(164,362,o),
(196,404,o),
(242,437,o),
(293,455,o),
(317,455,qs),
(355,455,o),
(420,424,o),
(469,370,o),
(496,300,o),
(496,261,qs),
(496,224,o),
(472,154,o),
(427,99,o),
(364,66,o),
(325,66,qs),
(290,66,o)
);
}
);
width = 623;
},
{
layerId = "F0331135-C9C8-4C09-BCAA-87CFA41CFCF0";
shapes = (
{
closed = 1;
nodes = (
(568,62,o),
(626,186,o),
(626,265,qs),
(626,324,o),
(590,422,o),
(524,496,o),
(436,536,o),
(383,536,qs),
(324,536,o),
(241,490,o),
(213,447,q),
(213,526,l),
(48,526,l),
(48,-213,l),
(238,-213,l),
(238,78,l),
(261,35,o),
(345,-10,o),
(402,-10,qs),
(467,-10,o)
);
},
{
closed = 1;
nodes = (
(278,171,o),
(247,208,o),
(238,231,q),
(238,322,l),
(247,336,o),
(268,356,o),
(290,369,o),
(315,376,o),
(328,376,qs),
(351,376,o),
(389,360,o),
(417,331,o),
(432,291,o),
(432,266,qs),
(432,242,o),
(418,200,o),
(392,168,o),
(357,150,o),
(336,150,qs),
(316,150,o)
);
}
);
width = 647;
}
);
note = p;
unicode = 112;
},
{
glyphname = thorn;
kernRight = b;
layers = (
{
layerId = m01;
shapes = (
{
closed = 1;
nodes = (
(525,401,o),
(462,480,o),
(373,527,o),
(316,527,qs),
(248,527,o),
(144,454,o),
(104,398,q),
(104,710,l),
(84,710,l),
(84,-213,l),
(104,-213,l),
(104,108,l),
(135,59,o),
(246,-10,o),
(307,-10,qs),
(360,-10,o),
(450,34,o),
(517,109,o),
(556,205,o),
(557,258,qs),
(557,306,o)
);
},
{
closed = 1;
nodes = (
(503,124,o),
(441,52,o),
(357,10,o),
(307,10,qs),
(277,10,o),
(206,35,o),
(144,80,o),
(104,137,o),
(104,169,qs),
(104,356,l),
(124,396,o),
(185,464,o),
(267,507,o),
(316,507,qs),
(382,507,o),
(481,436,o),
(537,322,o),
(537,258,qs),
(537,212,o)
);
}
);
userData = {
assembly = "NPUSHB[ ]	/* 14 values pushed */
25 16 7 114 11 2 114 10 14 114 35 5 11 114
SVTCA[0]	/* SetFreedomAndProjectionVectorToAxis */
CALL[ ]	/* CallFunction */
SHP[0]	/* ShiftPointByLastPoint */
CALL[ ]	/* CallFunction */
CALL[ ]	/* CallFunction */
CALL[ ]	/* CallFunction */
SHP[0]	/* ShiftPointByLastPoint */
IUP[0]	/* InterpolateUntPts */
IUP[1]	/* InterpolateUntPts */";
};
width = 603;
},
{
layerId = "D2DF310C-5735-4FF3-9903-0538932FD5C7";
shapes = (
{
closed = 1;
nodes = (
(534,405,o),
(469,485,o),
(377,534,o),
(319,534,qs),
(261,534,o),
(185,483,o),
(161,449,q),
(161,710,l),
(71,710,l),
(71,-213,l),
(161,-213,l),
(161,60,l),
(180,29,o),
(258,-18,o),
(310,-18,qs),
(364,-18,o),
(457,27,o),
(527,104,o),
(567,203,o),
(568,257,qs),
(568,307,o)
);
},
{
closed = 1;
nodes = (
(453,149,o),
(407,94,o),
(345,62,o),
(308,62,qs),
(284,62,o),
(233,81,o),
(189,112,o),
(161,152,o),
(161,173,qs),
(161,344,l),
(176,374,o),
(220,424,o),
(278,454,o),
(314,454,qs),
(364,454,o),
(437,399,o),
(478,310,o),
(478,258,qs),
(478,220,o)
);
}
);
width = 603;
},
{
layerId = "F0331135-C9C8-4C09-BCAA-87CFA41CFCF0";
shapes = (
{
closed = 1;
nodes = (
(544,409,o),
(475,493,o),
(379,544,o),
(319,544,qs),
(276,544,o),
(243,525,o),
(243,525,q),
(243,710,l),
(48,710,l),
(48,-213,l),
(243,-213,l),
(243,-13,ls),
(243,-14,o),
(275,-31,o),
(312,-31,qs),
(366,-31,o),
(463,15,o),
(538,95,o),
(581,198,o),
(581,255,qs),
(581,307,o)
);
},
{
closed = 1;
nodes = (
(374,188,o),
(352,156,o),
(323,139,o),
(305,139,qs),
(292,139,o),
(269,148,o),
(252,161,o),
(243,174,o),
(243,179,qs),
(243,327,l),
(251,342,o),
(269,363,o),
(292,374,o),
(307,374,qs),
(333,374,o),
(368,343,o),
(386,291,o),
(386,259,qs),
(386,232,o)
);
}
);
width = 599;
}
);
note = thorn;
unicode = 254;
},
{
glyphname = q;
kernLeft = d;
kernRight = g;
layers = (
{
layerId = m01;
shapes = (
{
closed = 1;
nodes = (
(499,119,q),
(499,-213,l),
(519,-213,l),
(519,519,l),
(499,519,l),
(499,409,l),
(468,459,o),
(358,527,o),
(296,527,qs),
(244,527,o),
(153,483,o),
(85,408,o),
(46,311,o),
(46,258,qs),
(46,207,o),
(80,112,o),
(143,35,o),
(232,-10,o),
(287,-10,qs),
(410,-10,o)
);
},
{
closed = 1;
nodes = (
(123,79,o),
(66,193,o),
(66,258,qs),
(66,304,o),
(100,393,o),
(161,464,o),
(245,507,o),
(296,507,qs),
(329,507,o),
(398,481,o),
(457,436,o),
(496,379,o),
(499,348,q),
(499,161,l),
(479,121,o),
(418,53,o),
(337,10,o),
(287,10,qs),
(223,10,o)
);
}
);
userData = {
assembly = "NPUSHB[ ]	/* 20 values pushed */
16 14 114 15 6 114 18 24 25 13 4 0 30 10 7 114 20 0 11 114
SVTCA[0]	/* SetFreedomAndProjectionVectorToAxis */
CALL[ ]	/* CallFunction */
SHP[0]	/* ShiftPointByLastPoint */
CALL[ ]	/* CallFunction */
SHP[0]	/* ShiftPointByLastPoint */
SRP2[ ]	/* SetRefPoint2 */
SLOOP[ ]	/* SetLoopVariable */
IP[ ]	/* InterpolatePts */
CALL[ ]	/* CallFunction */
CALL[ ]	/* CallFunction */
IUP[0]	/* InterpolateUntPts */
IUP[1]	/* InterpolateUntPts */";
};
width = 603;
},
{
layerId = "D2DF310C-5735-4FF3-9903-0538932FD5C7";
shapes = (
{
closed = 1;
nodes = (
(464,103,q),
(464,-213,l),
(552,-213,l),
(552,522,l),
(474,522,l),
(474,423,l),
(445,470,o),
(345,531,o),
(284,531,qs),
(232,531,o),
(142,488,o),
(75,414,o),
(37,316,o),
(37,261,qs),
(37,207,o),
(71,109,o),
(133,34,o),
(219,-10,o),
(271,-10,qs),
(392,-10,o)
);
},
{
closed = 1;
nodes = (
(172,119,o),
(127,207,o),
(127,259,qs),
(127,296,o),
(153,366,o),
(200,422,o),
(264,455,o),
(303,455,qs),
(329,455,o),
(382,435,o),
(428,399,o),
(460,354,o),
(464,328,q),
(464,178,l),
(447,147,o),
(399,96,o),
(338,66,o),
(301,66,qs),
(250,66,o)
);
}
);
width = 623;
},
{
layerId = "F0331135-C9C8-4C09-BCAA-87CFA41CFCF0";
shapes = (
{
closed = 1;
nodes = (
(409,78,q),
(409,-214,l),
(599,-214,l),
(599,526,l),
(434,526,l),
(434,445,l),
(406,488,o),
(323,536,o),
(264,536,qs),
(212,536,o),
(123,496,o),
(57,422,o),
(21,324,o),
(21,265,qs),
(21,206,o),
(54,105,o),
(115,31,o),
(197,-10,o),
(245,-10,qs),
(363,-10,o)
);
},
{
closed = 1;
nodes = (
(241,178,o),
(215,227,o),
(215,260,qs),
(215,284,o),
(229,326,o),
(255,358,o),
(290,376,o),
(311,376,qs),
(326,376,o),
(355,365,o),
(381,344,o),
(402,315,o),
(409,298,q),
(409,204,l),
(397,186,o),
(369,162,o),
(337,150,o),
(319,150,qs),
(288,150,o)
);
}
);
width = 647;
}
);
note = q;
unicode = 113;
},
{
glyphname = r;
kernLeft = m;
kernRight = r;
layers = (
{
layerId = m01;
shapes = (
{
closed = 1;
nodes = (
(300,519,o),
(283,518,o),
(273,517,qs),
(222,511,o),
(131,440,o),
(104,385,q),
(104,519,l),
(84,519,l),
(84,0,l),
(104,0,l),
(104,328,l),
(125,405,o),
(233,496,o),
(306,499,q),
(306,519,l)
);
}
);
userData = {
assembly = "NPUSHB[ ]	/* 13 values pushed */
3 8 8 0 0 14 6 6 6 114 5 10 114
SVTCA[0]	/* SetFreedomAndProjectionVectorToAxis */
CALL[ ]	/* CallFunction */
CALL[ ]	/* CallFunction */
MIAP[1]	/* MoveIndirectAbsPt */
SHP[1]	/* ShiftPointByLastPoint */
SRP1[ ]	/* SetRefPoint1 */
SHP[1]	/* ShiftPointByLastPoint */
SRP1[ ]	/* SetRefPoint1 */
SHP[1]	/* ShiftPointByLastPoint */
IUP[0]	/* InterpolateUntPts */
IUP[1]	/* InterpolateUntPts */";
};
width = 323;
},
{
layerId = "D2DF310C-5735-4FF3-9903-0538932FD5C7";
shapes = (
{
closed = 1;
nodes = (
(342,526,o),
(328,526,o),
(318,526,qs),
(269,522,o),
(180,455,o),
(153,401,q),
(153,522,l),
(71,522,l),
(71,0,l),
(159,0,l),
(159,322,l),
(180,379,o),
(281,444,o),
(347,445,q),
(347,525,l)
);
}
);
width = 363;
},
{
layerId = "F0331135-C9C8-4C09-BCAA-87CFA41CFCF0";
shapes = (
{
closed = 1;
nodes = (
(401,536,o),
(392,536,o),
(381,536,qs),
(334,536,o),
(250,479,o),
(222,426,q),
(222,526,l),
(48,526,l),
(48,0,l),
(238,0,l),
(238,312,l),
(260,340,o),
(350,364,o),
(405,364,q),
(405,535,l)
);
}
);
width = 416;
}
);
note = r;
unicode = 114;
},
{
glyphname = s;
kernLeft = s;
kernRight = s;
layers = (
{
layerId = m01;
shapes = (
{
closed = 1;
nodes = (
(428,71,o),
(428,139,qs),
(428,184,o),
(380,233,o),
(290,263,o),
(228,277,qs),
(180,289,o),
(118,311,o),
(88,349,o),
(88,383,qs),
(88,427,o),
(132,481,o),
(204,507,o),
(247,507,qs),
(297,507,o),
(383,475,o),
(402,444,q),
(420,452,l),
(403,484,o),
(314,527,o),
(251,527,qs),
(202,527,o),
(119,496,o),
(68,432,o),
(68,380,qs),
(68,339,o),
(103,295,o),
(174,270,o),
(227,257,qs),
(285,244,o),
(366,217,o),
(408,174,o),
(408,136,qs),
(408,77,o),
(312,10,o),
(235,10,qs),
(180,10,o),
(92,48,o),
(52,87,q),
(37,74,l),
(76,31,o),
(176,-10,o),
(235,-10,qs),
(322,-10,o)
);
}
);
userData = {
assembly = "NPUSHB[ ]	/* 11 values pushed */
18 10 0 29 22 7 114 7 0 11 114
SVTCA[0]	/* SetFreedomAndProjectionVectorToAxis */
CALL[ ]	/* CallFunction */
SHP[0]	/* ShiftPointByLastPoint */
CALL[ ]	/* CallFunction */
SHP[0]	/* ShiftPointByLastPoint */
SRP2[ ]	/* SetRefPoint2 */
IP[ ]	/* InterpolatePts */
IP[ ]	/* InterpolatePts */
IUP[0]	/* InterpolateUntPts */
IUP[1]	/* InterpolateUntPts */";
};
width = 471;
},
{
layerId = "D2DF310C-5735-4FF3-9903-0538932FD5C7";
shapes = (
{
closed = 1;
nodes = (
(454,73,o),
(454,147,qs),
(454,195,o),
(406,249,o),
(319,283,o),
(260,300,qs),
(222,312,o),
(169,332,o),
(142,361,o),
(142,386,qs),
(142,416,o),
(176,449,o),
(228,462,o),
(255,462,qs),
(301,462,o),
(375,431,o),
(406,399,q),
(446,460,l),
(412,495,o),
(318,531,o),
(260,531,qs),
(202,531,o),
(111,495,o),
(59,426,o),
(59,376,qs),
(59,335,o),
(97,281,o),
(171,245,o),
(225,229,qs),
(269,217,o),
(333,198,o),
(368,170,o),
(368,141,qs),
(368,101,o),
(300,60,o),
(246,60,qs),
(199,60,o),
(109,96,o),
(64,138,q),
(30,76,l),
(71,33,o),
(185,-10,o),
(250,-10,qs),
(342,-10,o)
);
}
);
width = 488;
},
{
layerId = "F0331135-C9C8-4C09-BCAA-87CFA41CFCF0";
shapes = (
{
closed = 1;
nodes = (
(477,84,o),
(477,167,qs),
(477,214,o),
(436,272,o),
(350,313,o),
(282,333,qs),
(259,340,o),
(229,351,o),
(215,364,o),
(215,374,qs),
(215,384,o),
(225,396,o),
(244,402,o),
(257,402,qs),
(284,402,o),
(353,376,o),
(403,345,q),
(475,461,l),
(425,504,o),
(318,537,o),
(265,537,qs),
(194,537,o),
(93,489,o),
(39,406,o),
(39,352,qs),
(39,306,o),
(80,251,o),
(163,213,o),
(225,191,qs),
(249,184,o),
(280,172,o),
(294,160,o),
(294,151,qs),
(294,138,o),
(274,127,o),
(253,127,qs),
(216,127,o),
(125,163,o),
(76,195,q),
(11,78,l),
(57,35,o),
(190,-10,o),
(259,-10,qs),
(360,-10,o)
);
}
);
width = 501;
}
);
note = s;
unicode = 115;
},
{
glyphname = germandbls;
layers = (
{
layerId = m01;
shapes = (
{
closed = 1;
nodes = (
(296,-4,o),
(396,26,o),
(465,79,o),
(500,155,o),
(500,203,qs),
(500,282,o),
(411,387,o),
(328,404,q),
(362,411,o),
(416,456,o),
(448,521,o),
(448,557,qs),
(448,602,o),
(401,673,o),
(319,714,o),
(268,714,qs),
(214,714,o),
(131,663,o),
(84,571,o),
(84,509,qs),
(84,0,l),
(104,0,l),
(104,509,ls),
(104,565,o),
(144,648,o),
(218,694,o),
(267,694,qs),
(313,694,o),
(385,657,o),
(428,593,o),
(428,552,qs),
(428,513,o),
(388,450,o),
(318,413,o),
(274,413,qs),
(258,413,l),
(258,393,l),
(275,393,ls),
(336,393,o),
(428,345,o),
(480,259,o),
(480,202,qs),
(480,114,o),
(350,15,o),
(230,13,q),
(230,-6,l)
);
}
);
userData = {
assembly = "NPUSHB[ ]	/* 14 values pushed */
37 8 9 9 29 0 45 11 114 18 29 24 10 114
SVTCA[0]	/* SetFreedomAndProjectionVectorToAxis */
CALL[ ]	/* CallFunction */
MDAP[1]	/* MoveDirectAbsPt */
SHP[1]	/* ShiftPointByLastPoint */
CALL[ ]	/* CallFunction */
SHP[0]	/* ShiftPointByLastPoint */
SRP2[ ]	/* SetRefPoint2 */
IP[ ]	/* InterpolatePts */
MDAP[1]	/* MoveDirectAbsPt */
SHP[1]	/* ShiftPointByLastPoint */
SHP[1]	/* ShiftPointByLastPoint */
IUP[0]	/* InterpolateUntPts */
IUP[1]	/* InterpolateUntPts */";
};
width = 546;
},
{
layerId = "D2DF310C-5735-4FF3-9903-0538932FD5C7";
shapes = (
{
closed = 1;
nodes = (
(301,-4,o),
(403,25,o),
(477,78,o),
(518,157,o),
(518,208,qs),
(518,279,o),
(438,387,o),
(367,402,q),
(395,410,o),
(440,454,o),
(467,518,o),
(467,553,qs),
(467,601,o),
(417,674,o),
(332,714,o),
(278,714,qs),
(218,714,o),
(125,664,o),
(71,575,o),
(71,517,qs),
(71,0,l),
(155,0,l),
(155,503,ls),
(155,539,o),
(180,600,o),
(234,638,o),
(275,638,qs),
(304,638,o),
(353,617,o),
(383,574,o),
(383,540,qs),
(383,509,o),
(356,463,o),
(307,437,o),
(275,437,qs),
(257,437,l),
(257,357,l),
(276,357,ls),
(321,357,o),
(389,322,o),
(427,258,o),
(427,215,qs),
(427,142,o),
(323,77,o),
(241,75,q),
(241,-6,l)
);
}
);
width = 553;
},
{
layerId = "F0331135-C9C8-4C09-BCAA-87CFA41CFCF0";
shapes = (
{
closed = 1;
nodes = (
(305,-6,o),
(407,14,o),
(492,63,o),
(544,148,o),
(544,213,qs),
(544,285,o),
(477,381,o),
(421,403,q),
(440,413,o),
(472,455,o),
(492,513,o),
(492,546,qs),
(492,600,o),
(439,675,o),
(347,714,o),
(288,714,qs),
(221,714,o),
(112,666,o),
(48,582,o),
(48,529,qs),
(48,0,l),
(228,0,l),
(228,494,ls),
(228,501,o),
(231,529,o),
(249,554,o),
(269,554,qs),
(270,554,o),
(291,551,o),
(312,533,o),
(312,512,qs),
(312,501,o),
(304,483,o),
(287,473,o),
(273,473,qs),
(252,473,l),
(252,303,l),
(275,303,ls),
(287,303,o),
(319,290,o),
(344,261,o),
(344,237,qs),
(344,203,o),
(291,168,o),
(254,168,q),
(254,-6,l)
);
}
);
width = 563;
}
);
note = germandbls;
unicode = 223;
},
{
glyphname = t;
kernLeft = t;
kernRight = t;
layers = (
{
layerId = m01;
shapes = (
{
closed = 1;
nodes = (
(274,39,o),
(226,15,o),
(191,15,qs),
(165,15,o),
(123,46,o),
(121,75,q),
(121,499,l),
(246,499,l),
(246,519,l),
(121,519,l),
(121,700,l),
(101,700,l),
(101,519,l),
(26,519,l),
(26,499,l),
(101,499,l),
(101,75,ls),
(101,51,o),
(126,15,o),
(167,-5,o),
(191,-5,qs),
(219,-5,o),
(261,9,o),
(286,24,o),
(286,24,q),
(275,40,l)
);
}
);
userData = {
assembly = "NPUSHB[ ]	/* 12 values pushed */
10 18 18 13 11 15 6 114 22 4 11 114
SVTCA[0]	/* SetFreedomAndProjectionVectorToAxis */
CALL[ ]	/* CallFunction */
SHP[0]	/* ShiftPointByLastPoint */
CALL[ ]	/* CallFunction */
SHP[0]	/* ShiftPointByLastPoint */
MDRP[01101]	/* MoveDirectRelPt */
SHP[1]	/* ShiftPointByLastPoint */
SRP1[ ]	/* SetRefPoint1 */
SHP[1]	/* ShiftPointByLastPoint */
IUP[0]	/* InterpolateUntPts */
IUP[1]	/* InterpolateUntPts */";
};
width = 295;
},
{
layerId = "D2DF310C-5735-4FF3-9903-0538932FD5C7";
shapes = (
{
closed = 1;
nodes = (
(313,92,o),
(269,74,o),
(243,74,qs),
(220,74,o),
(186,101,o),
(184,129,q),
(184,453,l),
(301,453,l),
(301,522,l),
(184,522,l),
(184,696,l),
(96,696,l),
(96,522,l),
(25,522,l),
(25,453,l),
(96,453,l),
(96,102,ls),
(96,65,o),
(128,16,o),
(182,-7,o),
(214,-7,qs),
(242,-7,o),
(292,5,o),
(330,21,o),
(341,26,q),
(320,96,l)
);
}
);
width = 352;
},
{
layerId = "F0331135-C9C8-4C09-BCAA-87CFA41CFCF0";
shapes = (
{
closed = 1;
nodes = (
(365,172,o),
(329,162,o),
(315,162,qs),
(296,162,o),
(274,183,o),
(274,209,qs),
(274,383,l),
(377,383,l),
(377,526,l),
(274,526,l),
(274,691,l),
(84,691,l),
(84,526,l),
(19,526,l),
(19,383,l),
(84,383,l),
(84,142,ls),
(84,85,o),
(127,18,o),
(199,-11,o),
(242,-11,qs),
(271,-11,o),
(332,-1,o),
(391,18,o),
(417,29,q),
(383,179,l)
);
}
);
width = 423;
}
);
note = t;
unicode = 116;
},
{
glyphname = tbar;
kernLeft = t;
kernRight = t;
layers = (
{
layerId = m01;
shapes = (
{
closed = 1;
nodes = (
(237,319,l),
(27,319,l),
(27,299,l),
(237,299,l)
);
},
{
closed = 1;
nodes = (
(275,39,o),
(227,15,o),
(192,15,qs),
(166,15,o),
(124,46,o),
(122,75,q),
(122,499,l),
(247,499,l),
(247,519,l),
(122,519,l),
(122,700,l),
(102,700,l),
(102,519,l),
(27,519,l),
(27,499,l),
(102,499,l),
(102,75,ls),
(102,51,o),
(127,15,o),
(168,-5,o),
(192,-5,qs),
(220,-5,o),
(262,9,o),
(287,24,o),
(287,24,q),
(276,40,l)
);
}
);
userData = {
assembly = "NPUSHB[ ]	/* 14 values pushed */
0 1 1 22 13 13 19 17 16 6 26 8 11 114
SVTCA[0]	/* SetFreedomAndProjectionVectorToAxis */
CALL[ ]	/* CallFunction */
SHP[0]	/* ShiftPointByLastPoint */
MIAP[1]	/* MoveIndirectAbsPt */
MDRP[01101]	/* MoveDirectRelPt */
SHP[1]	/* ShiftPointByLastPoint */
SHP[1]	/* ShiftPointByLastPoint */
SRP1[ ]	/* SetRefPoint1 */
SHP[1]	/* ShiftPointByLastPoint */
SHP[1]	/* ShiftPointByLastPoint */
MDAP[1]	/* MoveDirectAbsPt */
SHP[1]	/* ShiftPointByLastPoint */
IUP[0]	/* InterpolateUntPts */
IUP[1]	/* InterpolateUntPts */";
};
width = 297;
},
{
layerId = "D2DF310C-5735-4FF3-9903-0538932FD5C7";
shapes = (
{
closed = 1;
nodes = (
(289,328,l),
(36,328,l),
(36,272,l),
(289,272,l)
);
},
{
closed = 1;
nodes = (
(314,92,o),
(270,74,o),
(244,74,qs),
(221,74,o),
(187,101,o),
(185,129,q),
(185,453,l),
(302,453,l),
(302,522,l),
(185,522,l),
(185,696,l),
(97,696,l),
(97,522,l),
(26,522,l),
(26,453,l),
(97,453,l),
(97,102,ls),
(97,65,o),
(129,16,o),
(183,-7,o),
(215,-7,qs),
(243,-7,o),
(293,5,o),
(331,21,o),
(342,26,q),
(321,96,l)
);
}
);
width = 353;
},
{
layerId = "F0331135-C9C8-4C09-BCAA-87CFA41CFCF0";
shapes = (
{
closed = 1;
nodes = (
(368,336,l),
(27,336,l),
(27,227,l),
(368,227,l)
);
},
{
closed = 1;
nodes = (
(366,172,o),
(330,162,o),
(316,162,qs),
(297,162,o),
(275,183,o),
(275,209,qs),
(275,383,l),
(378,383,l),
(378,526,l),
(275,526,l),
(275,691,l),
(85,691,l),
(85,526,l),
(20,526,l),
(20,383,l),
(85,383,l),
(85,142,ls),
(85,85,o),
(128,18,o),
(200,-11,o),
(243,-11,qs),
(272,-11,o),
(333,-1,o),
(392,18,o),
(418,29,q),
(384,179,l)
);
}
);
width = 424;
}
);
note = tbar;
unicode = 359;
},
{
glyphname = u;
kernLeft = u;
kernRight = u;
layers = (
{
layerId = m01;
shapes = (
{
closed = 1;
nodes = (
(163,-10,o),
(245,-10,qs),
(315,-10,o),
(437,67,o),
(471,132,q),
(471,40,ls),
(471,27,o),
(483,6,o),
(493,2,qs),
(495,1,o),
(501,0,o),
(507,0,q),
(507,20,l),
(500,20,o),
(491,31,o),
(491,40,qs),
(491,519,l),
(471,519,l),
(471,189,l),
(456,137,o),
(387,56,o),
(295,10,o),
(245,10,qs),
(171,10,o),
(98,118,o),
(98,228,qs),
(98,519,l),
(78,519,l),
(78,228,ls),
(78,110,o)
);
}
);
userData = {
assembly = "NPUSHB[ ]	/* 15 values pushed */
10 24 1 6 27 11 114 16 17 10 114 12 1 6 114
SVTCA[0]	/* SetFreedomAndProjectionVectorToAxis */
CALL[ ]	/* CallFunction */
SHP[0]	/* ShiftPointByLastPoint */
CALL[ ]	/* CallFunction */
SHP[0]	/* ShiftPointByLastPoint */
CALL[ ]	/* CallFunction */
SHP[0]	/* ShiftPointByLastPoint */
SRP1[ ]	/* SetRefPoint1 */
IP[ ]	/* InterpolatePts */
IP[ ]	/* InterpolatePts */
IUP[0]	/* InterpolateUntPts */
IUP[1]	/* InterpolateUntPts */";
};
width = 576;
},
{
layerId = "D2DF310C-5735-4FF3-9903-0538932FD5C7";
shapes = (
{
closed = 1;
nodes = (
(150,-10,o),
(232,-10,qs),
(300,-10,o),
(415,54,o),
(449,112,q),
(451,51,ls),
(452,28,o),
(488,-3,o),
(513,-3,qs),
(521,-3,o),
(538,-2,o),
(553,0,q),
(553,68,l),
(538,69,o),
(525,84,o),
(525,100,qs),
(525,522,l),
(437,522,l),
(437,195,l),
(422,155,o),
(368,97,o),
(301,66,o),
(265,66,qs),
(210,66,o),
(154,146,o),
(154,226,qs),
(154,522,l),
(66,522,l),
(66,209,ls),
(66,101,o)
);
}
);
width = 601;
},
{
layerId = "F0331135-C9C8-4C09-BCAA-87CFA41CFCF0";
shapes = (
{
closed = 1;
nodes = (
(128,-10,o),
(207,-10,qs),
(272,-10,o),
(375,33,o),
(412,82,q),
(416,63,ls),
(424,26,o),
(480,-10,o),
(528,-10,qs),
(543,-10,o),
(583,-5,o),
(608,0,q),
(608,160,l),
(588,162,o),
(572,183,o),
(572,210,qs),
(572,526,l),
(382,526,l),
(382,204,l),
(367,182,o),
(336,158,o),
(306,150,o),
(291,150,qs),
(264,150,o),
(233,189,o),
(233,223,qs),
(233,526,l),
(43,526,l),
(43,180,ls),
(43,88,o)
);
}
);
width = 638;
}
);
note = u;
unicode = 117;
},
{
glyphname = v;
layers = (
{
layerId = m01;
shapes = (
{
closed = 1;
nodes = (
(495,519,l),
(473,519,l),
(260,29,l),
(47,519,l),
(25,519,l),
(251,0,l),
(269,0,l)
);
}
);
userData = {
assembly = "NPUSHB[ ]	/* 9 values pushed */
3 0 5 1 6 114 0 10 114
SVTCA[0]	/* SetFreedomAndProjectionVectorToAxis */
CALL[ ]	/* CallFunction */
CALL[ ]	/* CallFunction */
SHP[0]	/* ShiftPointByLastPoint */
SRP2[ ]	/* SetRefPoint2 */
IP[ ]	/* InterpolatePts */
IUP[0]	/* InterpolateUntPts */
IUP[1]	/* InterpolateUntPts */";
};
width = 520;
},
{
layerId = "D2DF310C-5735-4FF3-9903-0538932FD5C7";
shapes = (
{
closed = 1;
nodes = (
(522,522,l),
(436,522,l),
(272,84,l),
(108,522,l),
(16,522,l),
(221,0,l),
(317,0,l)
);
}
);
width = 539;
},
{
layerId = "F0331135-C9C8-4C09-BCAA-87CFA41CFCF0";
shapes = (
{
closed = 1;
nodes = (
(562,526,l),
(385,526,l),
(290,169,l),
(196,526,l),
(1,526,l),
(178,0,l),
(385,0,l)
);
}
);
width = 563;
}
);
note = v;
unicode = 118;
},
{
glyphname = w;
kernLeft = w;
kernRight = w;
layers = (
{
layerId = m01;
shapes = (
{
closed = 1;
nodes = (
(408,316,l),
(495,518,l),
(474,518,l),
(397,342,l),
(320,518,l),
(299,518,l),
(386,316,l),
(261,29,l),
(47,519,l),
(25,519,l),
(252,0,l),
(270,0,l),
(397,291,l),
(524,0,l),
(542,0,l),
(769,519,l),
(747,519,l),
(533,29,l)
);
}
);
userData = {
assembly = "NPUSHB[ ]	/* 18 values pushed */
17 9 4 16 10 13 6 6 15 12 1 7 6 114 3 6 10 114
SVTCA[0]	/* SetFreedomAndProjectionVectorToAxis */
CALL[ ]	/* CallFunction */
SHP[0]	/* ShiftPointByLastPoint */
CALL[ ]	/* CallFunction */
SHP[0]	/* ShiftPointByLastPoint */
SHP[0]	/* ShiftPointByLastPoint */
SHP[0]	/* ShiftPointByLastPoint */
SRP2[ ]	/* SetRefPoint2 */
SLOOP[ ]	/* SetLoopVariable */
IP[ ]	/* InterpolatePts */
IUP[0]	/* InterpolateUntPts */
IUP[1]	/* InterpolateUntPts */";
};
width = 794;
},
{
layerId = "D2DF310C-5735-4FF3-9903-0538932FD5C7";
shapes = (
{
closed = 1;
nodes = (
(462,301,l),
(549,521,l),
(472,521,l),
(410,355,l),
(348,521,l),
(271,521,l),
(359,301,l),
(275,87,l),
(95,522,l),
(11,522,l),
(233,0,l),
(310,0,l),
(410,246,l),
(511,0,l),
(588,0,l),
(810,522,l),
(725,522,l),
(546,87,l)
);
}
);
width = 821;
},
{
layerId = "F0331135-C9C8-4C09-BCAA-87CFA41CFCF0";
shapes = (
{
closed = 1;
nodes = (
(533,296,l),
(629,526,l),
(476,526,l),
(431,372,l),
(386,526,l),
(233,526,l),
(329,296,l),
(294,178,l),
(169,526,l),
(-10,526,l),
(205,0,l),
(360,0,l),
(431,200,l),
(502,0,l),
(657,0,l),
(872,526,l),
(693,526,l),
(568,178,l)
);
}
);
width = 862;
}
);
note = w;
unicode = 119;
},
{
glyphname = x;
layers = (
{
layerId = m01;
shapes = (
{
closed = 1;
nodes = (
(228,258,l),
(22,0,l),
(48,0,l),
(233,232,l),
(241,244,l),
(249,232,l),
(434,0,l),
(460,0,l),
(254,258,l),
(462,519,l),
(436,519,l),
(249,285,l),
(241,273,l),
(233,285,l),
(46,519,l),
(20,519,l)
);
}
);
userData = {
assembly = "NPUSHB[ ]	/* 14 values pushed */
10 6 14 2 4 13 5 15 6 114 8 13 10 114
SVTCA[0]	/* SetFreedomAndProjectionVectorToAxis */
CALL[ ]	/* CallFunction */
SHP[0]	/* ShiftPointByLastPoint */
CALL[ ]	/* CallFunction */
SHP[0]	/* ShiftPointByLastPoint */
SRP2[ ]	/* SetRefPoint2 */
SLOOP[ ]	/* SetLoopVariable */
IP[ ]	/* InterpolatePts */
IUP[0]	/* InterpolateUntPts */
IUP[1]	/* InterpolateUntPts */";
};
width = 482;
},
{
layerId = "D2DF310C-5735-4FF3-9903-0538932FD5C7";
shapes = (
{
closed = 1;
nodes = (
(206,260,l),
(12,0,l),
(110,0,l),
(248,191,l),
(256,206,l),
(265,191,l),
(403,0,l),
(501,0,l),
(307,260,l),
(500,522,l),
(402,522,l),
(265,330,l),
(256,314,l),
(248,330,l),
(110,522,l),
(13,522,l)
);
}
);
width = 513;
},
{
layerId = "F0331135-C9C8-4C09-BCAA-87CFA41CFCF0";
shapes = (
{
closed = 1;
nodes = (
(168,261,l),
(-6,0,l),
(187,0,l),
(268,129,l),
(277,149,l),
(286,129,l),
(367,0,l),
(560,0,l),
(386,266,l),
(555,526,l),
(362,526,l),
(287,397,l),
(277,376,l),
(267,397,l),
(192,526,l),
(-1,526,l)
);
}
);
width = 554;
}
);
note = x;
unicode = 120;
},
{
glyphname = y;
kernLeft = y;
kernRight = y;
layers = (
{
layerId = m01;
shapes = (
{
closed = 1;
nodes = (
(139,-223,o),
(160,-220,o),
(169,-218,qs),
(177,-216,o),
(188,-208,o),
(198,-195,o),
(202,-186,qs),
(511,519,l),
(489,519,l),
(272,25,l),
(43,519,l),
(21,519,l),
(262,0,l),
(228,-79,o),
(193,-159,o),
(179,-188,o),
(175,-193,qs),
(170,-200,o),
(145,-203,o),
(128,-203,q),
(128,-223,l)
);
}
);
userData = {
assembly = "NPUSHB[ ]	/* 9 values pushed */
10 7 0 20 15 12 8 6 114
SVTCA[0]	/* SetFreedomAndProjectionVectorToAxis */
CALL[ ]	/* CallFunction */
SHP[0]	/* ShiftPointByLastPoint */
MIAP[1]	/* MoveIndirectAbsPt */
SHP[1]	/* ShiftPointByLastPoint */
IP[ ]	/* InterpolatePts */
IP[ ]	/* InterpolatePts */
IUP[0]	/* InterpolateUntPts */
IUP[1]	/* InterpolateUntPts */";
};
width = 536;
},
{
layerId = "D2DF310C-5735-4FF3-9903-0538932FD5C7";
shapes = (
{
closed = 1;
nodes = (
(109,-223,o),
(128,-225,o),
(137,-225,qs),
(175,-225,o),
(229,-201,o),
(264,-160,o),
(273,-137,qs),
(527,522,l),
(440,522,l),
(281,89,l),
(105,522,l),
(12,522,l),
(233,0,l),
(210,-61,o),
(181,-124,o),
(157,-146,o),
(141,-146,qs),
(134,-146,o),
(108,-143,o),
(95,-142,q),
(95,-220,l)
);
}
);
width = 545;
},
{
layerId = "F0331135-C9C8-4C09-BCAA-87CFA41CFCF0";
shapes = (
{
closed = 1;
nodes = (
(68,-225,o),
(117,-234,o),
(142,-234,qs),
(196,-234,o),
(290,-191,o),
(358,-114,o),
(373,-63,qs),
(551,526,l),
(374,526,l),
(293,195,l),
(193,526,l),
(-2,526,l),
(189,0,l),
(187,-23,o),
(171,-55,o),
(143,-70,o),
(122,-70,qs),
(106,-70,o),
(67,-61,o),
(44,-53,q),
(44,-215,l)
);
}
);
width = 555;
}
);
note = y;
unicode = 121;
},
{
glyphname = z;
kernLeft = z;
kernRight = z;
layers = (
{
layerId = m01;
shapes = (
{
closed = 1;
nodes = (
(450,0,l),
(450,20,l),
(59,20,l),
(454,499,l),
(454,519,l),
(38,519,l),
(38,499,l),
(429,499,l),
(33,20,l),
(33,0,l)
);
}
);
userData = {
assembly = "NPUSHB[ ]	/* 12 values pushed */
0 6 6 9 10 114 5 2 2 3 6 114
SVTCA[0]	/* SetFreedomAndProjectionVectorToAxis */
CALL[ ]	/* CallFunction */
SHP[0]	/* ShiftPointByLastPoint */
SRP1[ ]	/* SetRefPoint1 */
SHP[1]	/* ShiftPointByLastPoint */
CALL[ ]	/* CallFunction */
SHP[0]	/* ShiftPointByLastPoint */
SRP1[ ]	/* SetRefPoint1 */
SHP[1]	/* ShiftPointByLastPoint */
IUP[0]	/* InterpolateUntPts */
IUP[1]	/* InterpolateUntPts */";
};
width = 488;
},
{
layerId = "D2DF310C-5735-4FF3-9903-0538932FD5C7";
shapes = (
{
closed = 1;
nodes = (
(459,0,l),
(459,64,l),
(131,64,l),
(458,465,l),
(458,522,l),
(39,522,l),
(39,458,l),
(359,458,l),
(30,57,l),
(30,0,l)
);
}
);
width = 493;
},
{
layerId = "F0331135-C9C8-4C09-BCAA-87CFA41CFCF0";
shapes = (
{
closed = 1;
nodes = (
(469,0,l),
(469,130,l),
(221,130,l),
(460,414,l),
(460,526,l),
(37,526,l),
(37,396,l),
(262,396,l),
(22,112,l),
(22,0,l)
);
}
);
width = 494;
}
);
note = z;
unicode = 122;
},
{
glyphname = a.ss01;
kernLeft = a;
layers = (
{
layerId = m01;
shapes = (
{
closed = 1;
nodes = (
(448,327,ls),
(448,383,o),
(405,474,o),
(321,527,o),
(258,527,qs),
(210,527,o),
(119,487,o),
(78,459,q),
(90,443,l),
(134,474,o),
(221,507,o),
(258,507,qs),
(335,507,o),
(428,407,o),
(428,327,qs),
(428,268,l),
(408,276,o),
(318,297,o),
(254,297,qs),
(220,297,o),
(146,282,o),
(81,248,o),
(40,191,o),
(40,149,qs),
(40,105,o),
(85,32,o),
(161,-10,o),
(208,-10,qs),
(269,-10,o),
(388,37,o),
(428,88,q),
(428,0,l),
(448,0,l)
);
},
{
closed = 1;
nodes = (
(325,29,o),
(246,10,o),
(208,10,qs),
(170,10,o),
(102,45,o),
(60,107,o),
(60,149,qs),
(60,185,o),
(96,235,o),
(154,264,o),
(222,277,o),
(254,277,qs),
(298,277,o),
(385,263,o),
(428,246,q),
(428,143,ls),
(428,125,o),
(413,102,qs),
(393,70,o)
);
}
);
userData = {
assembly = "NPUSHB[ ]	/* 15 values pushed */
32 10 114 39 13 13 4 20 27 7 114 48 4 11 114
SVTCA[0]	/* SetFreedomAndProjectionVectorToAxis */
CALL[ ]	/* CallFunction */
SHP[0]	/* ShiftPointByLastPoint */
CALL[ ]	/* CallFunction */
SHP[0]	/* ShiftPointByLastPoint */
SRP1[ ]	/* SetRefPoint1 */
IP[ ]	/* InterpolatePts */
MDAP[1]	/* MoveDirectAbsPt */
SHP[1]	/* ShiftPointByLastPoint */
CALL[ ]	/* CallFunction */
IUP[0]	/* InterpolateUntPts */
IUP[1]	/* InterpolateUntPts */";
};
width = 526;
},
{
layerId = "D2DF310C-5735-4FF3-9903-0538932FD5C7";
shapes = (
{
closed = 1;
nodes = (
(484,321,ls),
(484,384,o),
(434,479,o),
(337,531,o),
(266,531,qs),
(210,531,o),
(108,493,o),
(63,463,q),
(92,406,l),
(135,436,o),
(218,467,o),
(258,467,qs),
(323,467,o),
(396,392,o),
(396,330,qs),
(396,288,l),
(376,297,o),
(300,314,o),
(250,314,qs),
(210,314,o),
(131,295,o),
(68,255,o),
(30,194,o),
(30,153,qs),
(30,107,o),
(76,33,o),
(156,-10,o),
(205,-10,qs),
(262,-10,o),
(365,33,o),
(399,79,q),
(399,0,l),
(484,0,l)
);
},
{
closed = 1;
nodes = (
(312,70,o),
(255,56,o),
(228,56,qs),
(198,56,o),
(146,82,o),
(114,129,o),
(114,160,qs),
(114,187,o),
(140,225,o),
(184,250,o),
(237,261,o),
(263,261,qs),
(295,261,o),
(364,249,o),
(396,236,q),
(396,159,ls),
(396,141,o),
(377,120,q),
(362,98,o)
);
}
);
width = 549;
},
{
layerId = "F0331135-C9C8-4C09-BCAA-87CFA41CFCF0";
shapes = (
{
closed = 1;
nodes = (
(542,312,ls),
(542,386,o),
(481,486,o),
(364,536,o),
(280,536,qs),
(213,536,o),
(96,503,o),
(43,469,q),
(98,351,l),
(140,379,o),
(217,408,o),
(261,408,qs),
(309,408,o),
(352,372,o),
(352,335,qs),
(352,319,l),
(332,329,o),
(277,339,o),
(246,339,qs),
(196,339,o),
(113,313,o),
(52,265,o),
(19,199,o),
(19,159,qs),
(19,111,o),
(67,34,o),
(151,-10,o),
(203,-10,qs),
(255,-10,o),
(334,28,o),
(359,65,q),
(359,0,l),
(542,0,l)
);
},
{
closed = 1;
nodes = (
(296,131,o),
(272,126,o),
(260,126,qs),
(242,126,o),
(214,139,o),
(198,162,o),
(198,176,qs),
(198,189,o),
(210,211,o),
(232,227,o),
(262,236,o),
(279,236,qs),
(295,236,o),
(336,228,o),
(352,222,q),
(352,183,ls),
(352,163,o),
(327,146,qs),
(318,140,o)
);
}
);
width = 584;
}
);
note = a.ss01;
},
{
glyphname = a.ss02;
kernLeft = d;
kernRight = g;
layers = (
{
layerId = m01;
shapes = (
{
closed = 1;
nodes = (
(471,63,o),
(503,119,q),
(503,0,l),
(523,0,l),
(523,517,l),
(503,517,l),
(503,397,l),
(472,453,o),
(364,527,o),
(293,527,qs),
(242,527,o),
(153,484,o),
(84,409,o),
(46,312,o),
(46,258,qs),
(46,207,o),
(82,112,o),
(148,35,o),
(238,-10,o),
(293,-10,qs),
(361,-10,o)
);
},
{
closed = 1;
nodes = (
(487,124,o),
(427,53,o),
(344,10,o),
(293,10,qs),
(227,10,o),
(125,80,o),
(66,194,o),
(66,258,qs),
(66,302,o),
(98,390,o),
(158,463,o),
(242,507,o),
(293,507,qs),
(341,507,o),
(424,466,o),
(486,395,o),
(503,351,q),
(503,167,l)
);
}
);
userData = {
assembly = "NPUSHB[ ]	/* 20 values pushed */
17 10 114 14 6 114 18 38 21 13 4 0 25 10 7 114 34 0 11 114
SVTCA[0]	/* SetFreedomAndProjectionVectorToAxis */
CALL[ ]	/* CallFunction */
SHP[0]	/* ShiftPointByLastPoint */
CALL[ ]	/* CallFunction */
SHP[0]	/* ShiftPointByLastPoint */
SRP2[ ]	/* SetRefPoint2 */
SLOOP[ ]	/* SetLoopVariable */
IP[ ]	/* InterpolatePts */
CALL[ ]	/* CallFunction */
CALL[ ]	/* CallFunction */
IUP[0]	/* InterpolateUntPts */
IUP[1]	/* InterpolateUntPts */";
};
width = 607;
},
{
layerId = "D2DF310C-5735-4FF3-9903-0538932FD5C7";
shapes = (
{
closed = 1;
nodes = (
(439,50,o),
(467,99,q),
(467,0,l),
(555,0,l),
(555,517,l),
(467,517,l),
(467,417,l),
(439,467,o),
(340,531,o),
(277,531,qs),
(226,531,o),
(139,489,o),
(74,414,o),
(37,316,o),
(37,260,qs),
(37,206,o),
(73,108,o),
(139,33,o),
(230,-10,o),
(285,-10,qs),
(346,-10,o)
);
},
{
closed = 1;
nodes = (
(453,149,o),
(406,96,o),
(343,66,o),
(305,66,qs),
(254,66,o),
(174,119,o),
(128,207,o),
(128,259,qs),
(128,295,o),
(153,365,o),
(199,421,o),
(263,455,o),
(302,455,qs),
(339,455,o),
(403,423,o),
(453,366,o),
(467,330,q),
(467,182,l)
);
}
);
width = 625;
},
{
layerId = "F0331135-C9C8-4C09-BCAA-87CFA41CFCF0";
shapes = (
{
closed = 1;
nodes = (
(388,29,o),
(410,69,q),
(410,0,l),
(599,0,l),
(599,518,l),
(409,518,l),
(409,448,l),
(387,489,o),
(302,536,o),
(249,536,qs),
(199,536,o),
(115,495,o),
(54,421,o),
(20,322,o),
(20,264,qs),
(20,204,o),
(56,103,o),
(123,30,o),
(214,-10,o),
(268,-10,qs),
(320,-10,o)
);
},
{
closed = 1;
nodes = (
(398,186,o),
(370,162,o),
(338,150,o),
(319,150,qs),
(289,150,o),
(242,178,o),
(216,227,o),
(216,260,qs),
(216,284,o),
(230,326,o),
(256,358,o),
(291,376,o),
(311,376,qs),
(331,376,o),
(369,357,o),
(401,322,o),
(410,298,q),
(410,204,l)
);
}
);
width = 647;
}
);
note = a.ss02;
},
{
glyphname = d.ss03;
kernLeft = d;
layers = (
{
layerId = m01;
shapes = (
{
closed = 1;
nodes = (
(519,730,l),
(499,730,l),
(499,398,l),
(463,450,o),
(358,527,o),
(287,527,qs),
(218,527,o),
(109,452,o),
(46,330,o),
(46,258,qs),
(46,208,o),
(83,113,o),
(150,36,o),
(242,-10,o),
(296,-10,qs),
(355,-10,o),
(466,56,o),
(499,108,q),
(499,0,l),
(519,0,l)
);
},
{
closed = 1;
nodes = (
(498,137,o),
(458,80,o),
(396,35,o),
(326,10,o),
(296,10,qs),
(248,10,o),
(165,50,o),
(101,120,o),
(66,209,o),
(66,258,qs),
(66,305,o),
(97,393,o),
(155,465,o),
(236,507,o),
(287,507,qs),
(329,507,o),
(416,466,o),
(485,398,o),
(499,356,q),
(499,169,ls)
);
}
);
userData = {
assembly = "NPUSHB[ ]	/* 20 values pushed */
17 0 114 1 39 20 16 4 4 24 13 7 114 34 4 11 114 0 10 114
SVTCA[0]	/* SetFreedomAndProjectionVectorToAxis */
CALL[ ]	/* CallFunction */
CALL[ ]	/* CallFunction */
SHP[0]	/* ShiftPointByLastPoint */
CALL[ ]	/* CallFunction */
SHP[0]	/* ShiftPointByLastPoint */
SRP2[ ]	/* SetRefPoint2 */
SLOOP[ ]	/* SetLoopVariable */
IP[ ]	/* InterpolatePts */
CALL[ ]	/* CallFunction */
IUP[0]	/* InterpolateUntPts */
IUP[1]	/* InterpolateUntPts */";
};
width = 603;
},
{
layerId = "D2DF310C-5735-4FF3-9903-0538932FD5C7";
shapes = (
{
closed = 1;
nodes = (
(553,730,l),
(465,730,l),
(465,418,l),
(434,465,o),
(337,531,o),
(273,531,qs),
(205,531,o),
(98,457,o),
(37,334,o),
(37,260,qs),
(37,206,o),
(74,109,o),
(141,33,o),
(232,-10,o),
(286,-10,qs),
(342,-10,o),
(437,46,o),
(465,92,q),
(465,0,l),
(553,0,l)
);
},
{
closed = 1;
nodes = (
(461,159,o),
(429,116,o),
(383,84,o),
(331,66,o),
(307,66,qs),
(269,66,o),
(204,96,o),
(155,150,o),
(128,220,o),
(128,259,qs),
(128,296,o),
(152,366,o),
(197,422,o),
(260,455,o),
(298,455,qs),
(332,455,o),
(399,423,o),
(453,368,o),
(465,333,q),
(465,183,l)
);
}
);
width = 624;
},
{
layerId = "F0331135-C9C8-4C09-BCAA-87CFA41CFCF0";
shapes = (
{
closed = 1;
nodes = (
(599,730,l),
(409,730,l),
(409,448,l),
(387,489,o),
(302,536,o),
(249,536,qs),
(183,536,o),
(79,465,o),
(20,342,o),
(20,264,qs),
(20,204,o),
(56,103,o),
(123,30,o),
(214,-10,o),
(268,-10,qs),
(320,-10,o),
(388,29,o),
(410,69,q),
(410,0,l),
(599,0,l)
);
},
{
closed = 1;
nodes = (
(401,191,o),
(380,170,o),
(358,157,o),
(333,150,o),
(319,150,qs),
(297,150,o),
(259,166,o),
(231,195,o),
(216,235,o),
(216,260,qs),
(216,284,o),
(230,326,o),
(256,358,o),
(291,376,o),
(311,376,qs),
(331,376,o),
(369,357,o),
(401,322,o),
(410,298,q),
(410,204,l)
);
}
);
width = 647;
}
);
note = d.ss03;
},
{
glyphname = j.ss04;
kernLeft = i;
kernRight = i;
layers = (
{
layerId = m01;
shapes = (
{
closed = 1;
nodes = (
(104,-213,l),
(104,517,l),
(84,517,l),
(84,-213,l)
);
},
{
closed = 1;
nodes = (
(104,653,l),
(104,717,l),
(84,717,l),
(84,653,l)
);
}
);
userData = {
assembly = "PUSHB[ ]	/* 7 values pushed */
3 14 4 7 0 6 114
SVTCA[0]	/* SetFreedomAndProjectionVectorToAxis */
CALL[ ]	/* CallFunction */
MDRP[01110]	/* MoveDirectRelPt */
SHP[0]	/* ShiftPointByLastPoint */
MIAP[1]	/* MoveIndirectAbsPt */
IUP[0]	/* InterpolateUntPts */
IUP[1]	/* InterpolateUntPts */";
};
width = 188;
},
{
layerId = "D2DF310C-5735-4FF3-9903-0538932FD5C7";
shapes = (
{
closed = 1;
nodes = (
(159,-213,l),
(159,517,l),
(71,517,l),
(71,-213,l)
);
},
{
closed = 1;
nodes = (
(159,620,l),
(159,722,l),
(71,722,l),
(71,620,l)
);
}
);
width = 230;
},
{
layerId = "F0331135-C9C8-4C09-BCAA-87CFA41CFCF0";
shapes = (
{
closed = 1;
nodes = (
(238,-213,l),
(238,517,l),
(48,517,l),
(48,-213,l)
);
},
{
closed = 1;
nodes = (
(237,570,l),
(237,730,l),
(48,730,l),
(48,570,l)
);
}
);
width = 286;
}
);
note = j.ss04;
},
{
glyphname = l.ss05;
layers = (
{
layerId = m01;
shapes = (
{
closed = 1;
nodes = (
(95,0,o),
(101,0,o),
(108,0,o),
(112,0,o),
(112,0,q),
(112,730,l),
(92,730,l),
(92,0,l)
);
}
);
userData = {
assembly = "PUSHB[ ]	/* 6 values pushed */
7 10 114 0 0 114
SVTCA[0]	/* SetFreedomAndProjectionVectorToAxis */
CALL[ ]	/* CallFunction */
CALL[ ]	/* CallFunction */
IUP[0]	/* InterpolateUntPts */
IUP[1]	/* InterpolateUntPts */";
};
width = 204;
},
{
layerId = "D2DF310C-5735-4FF3-9903-0538932FD5C7";
shapes = (
{
closed = 1;
nodes = (
(88,0,o),
(118,0,o),
(146,0,o),
(164,0,o),
(164,0,q),
(164,730,l),
(76,730,l),
(76,0,l)
);
}
);
width = 240;
},
{
layerId = "F0331135-C9C8-4C09-BCAA-87CFA41CFCF0";
shapes = (
{
closed = 1;
nodes = (
(74,0,o),
(138,0,o),
(199,0,o),
(238,0,o),
(238,0,q),
(238,730,l),
(48,730,l),
(48,0,l)
);
}
);
width = 286;
}
);
note = l.ss05;
},
{
glyphname = q.ss06;
kernLeft = d;
kernRight = g;
layers = (
{
layerId = m01;
shapes = (
{
closed = 1;
nodes = (
(499,119,q),
(499,-173,ls),
(499,-185,o),
(511,-206,o),
(521,-211,qs),
(524,-212,o),
(531,-213,o),
(535,-213,q),
(535,-193,l),
(527,-193,o),
(519,-182,o),
(519,-173,qs),
(519,519,l),
(499,519,l),
(499,409,l),
(468,459,o),
(358,527,o),
(296,527,qs),
(244,527,o),
(153,483,o),
(85,408,o),
(46,311,o),
(46,258,qs),
(46,207,o),
(80,112,o),
(143,35,o),
(232,-10,o),
(287,-10,qs),
(410,-10,o)
);
},
{
closed = 1;
nodes = (
(123,79,o),
(66,193,o),
(66,258,qs),
(66,304,o),
(100,393,o),
(161,464,o),
(245,507,o),
(296,507,qs),
(329,507,o),
(398,481,o),
(457,436,o),
(496,379,o),
(499,348,q),
(499,161,l),
(479,121,o),
(418,53,o),
(337,10,o),
(287,10,qs),
(223,10,o)
);
}
);
userData = {
assembly = "NPUSHB[ ]	/* 21 values pushed */
19 20 14 114 14 6 114 27 33 34 13 4 0 39 10 7 114 29 0 11 114
SVTCA[0]	/* SetFreedomAndProjectionVectorToAxis */
CALL[ ]	/* CallFunction */
SHP[0]	/* ShiftPointByLastPoint */
CALL[ ]	/* CallFunction */
SHP[0]	/* ShiftPointByLastPoint */
SRP2[ ]	/* SetRefPoint2 */
SLOOP[ ]	/* SetLoopVariable */
IP[ ]	/* InterpolatePts */
CALL[ ]	/* CallFunction */
CALL[ ]	/* CallFunction */
SHP[0]	/* ShiftPointByLastPoint */
IUP[0]	/* InterpolateUntPts */
IUP[1]	/* InterpolateUntPts */";
};
width = 603;
},
{
layerId = "D2DF310C-5735-4FF3-9903-0538932FD5C7";
shapes = (
{
closed = 1;
nodes = (
(464,103,q),
(464,-142,ls),
(464,-170,o),
(505,-212,o),
(533,-212,qs),
(544,-212,o),
(568,-210,o),
(580,-209,q),
(580,-133,l),
(565,-132,o),
(552,-117,o),
(552,-101,qs),
(552,522,l),
(474,522,l),
(474,423,l),
(445,470,o),
(345,531,o),
(284,531,qs),
(232,531,o),
(142,488,o),
(75,414,o),
(37,316,o),
(37,261,qs),
(37,207,o),
(71,109,o),
(133,34,o),
(219,-10,o),
(271,-10,qs),
(392,-10,o)
);
},
{
closed = 1;
nodes = (
(172,119,o),
(127,207,o),
(127,259,qs),
(127,296,o),
(153,366,o),
(200,422,o),
(264,455,o),
(303,455,qs),
(329,455,o),
(382,435,o),
(428,399,o),
(460,354,o),
(464,328,q),
(464,178,l),
(447,147,o),
(399,96,o),
(338,66,o),
(301,66,qs),
(250,66,o)
);
}
);
width = 623;
},
{
layerId = "F0331135-C9C8-4C09-BCAA-87CFA41CFCF0";
shapes = (
{
closed = 1;
nodes = (
(409,78,q),
(409,-96,ls),
(409,-149,o),
(487,-213,o),
(540,-213,qs),
(562,-213,o),
(620,-207,o),
(645,-203,q),
(645,-43,l),
(619,-41,o),
(599,-20,o),
(599,7,qs),
(599,526,l),
(434,526,l),
(434,445,l),
(406,488,o),
(323,536,o),
(264,536,qs),
(212,536,o),
(123,496,o),
(57,422,o),
(21,324,o),
(21,265,qs),
(21,206,o),
(54,105,o),
(115,31,o),
(197,-10,o),
(245,-10,qs),
(363,-10,o)
);
},
{
closed = 1;
nodes = (
(241,178,o),
(215,227,o),
(215,260,qs),
(215,284,o),
(229,326,o),
(255,358,o),
(290,376,o),
(311,376,qs),
(326,376,o),
(355,365,o),
(381,344,o),
(402,315,o),
(409,298,q),
(409,204,l),
(397,186,o),
(369,162,o),
(337,150,o),
(319,150,qs),
(288,150,o)
);
}
);
width = 647;
}
);
note = q.ss06;
},
{
glyphname = t.ss07;
layers = (
{
layerId = m01;
shapes = (
{
closed = 1;
nodes = (
(123,499,l),
(248,499,l),
(248,519,l),
(123,519,l),
(123,701,l),
(103,701,l),
(103,519,l),
(28,519,l),
(28,499,l),
(103,499,l),
(103,0,l),
(123,0,l)
);
}
);
userData = {
assembly = "NPUSHB[ ]	/* 12 values pushed */
10 1 1 7 5 5 4 6 114 0 10 114
SVTCA[0]	/* SetFreedomAndProjectionVectorToAxis */
CALL[ ]	/* CallFunction */
CALL[ ]	/* CallFunction */
SHP[0]	/* ShiftPointByLastPoint */
MDAP[1]	/* MoveDirectAbsPt */
SHP[0]	/* ShiftPointByLastPoint */
SHP[0]	/* ShiftPointByLastPoint */
SRP1[ ]	/* SetRefPoint1 */
SHP[1]	/* ShiftPointByLastPoint */
IUP[0]	/* InterpolateUntPts */
IUP[1]	/* InterpolateUntPts */";
};
width = 269;
},
{
layerId = "D2DF310C-5735-4FF3-9903-0538932FD5C7";
shapes = (
{
closed = 1;
nodes = (
(194,442,l),
(317,442,l),
(317,522,l),
(194,522,l),
(194,696,l),
(104,696,l),
(104,522,l),
(27,522,l),
(27,442,l),
(104,442,l),
(104,0,l),
(194,0,l)
);
}
);
width = 336;
},
{
layerId = "F0331135-C9C8-4C09-BCAA-87CFA41CFCF0";
shapes = (
{
closed = 1;
nodes = (
(300,356,l),
(420,356,l),
(420,526,l),
(300,526,l),
(300,691,l),
(105,691,l),
(105,526,l),
(25,526,l),
(25,356,l),
(105,356,l),
(105,0,l),
(300,0,l)
);
}
);
width = 431;
}
);
note = t.ss07;
},
{
glyphname = u.ss08;
kernLeft = u;
kernRight = g;
layers = (
{
layerId = m01;
shapes = (
{
closed = 1;
nodes = (
(491,519,l),
(471,519,l),
(471,189,l),
(458,143,o),
(393,61,o),
(301,10,o),
(248,10,qs),
(186,10,o),
(121,70,o),
(98,170,o),
(98,228,qs),
(98,519,l),
(78,519,l),
(78,228,ls),
(78,185,o),
(91,100,o),
(126,31,o),
(194,-10,o),
(248,-10,qs),
(294,-10,o),
(380,26,o),
(450,90,o),
(471,132,q),
(471,0,l),
(491,0,l)
);
}
);
userData = {
assembly = "NPUSHB[ ]	/* 14 values pushed */
21 1 5 23 11 6 114 17 5 11 114 0 10 114
SVTCA[0]	/* SetFreedomAndProjectionVectorToAxis */
CALL[ ]	/* CallFunction */
CALL[ ]	/* CallFunction */
SHP[0]	/* ShiftPointByLastPoint */
CALL[ ]	/* CallFunction */
SHP[0]	/* ShiftPointByLastPoint */
SRP2[ ]	/* SetRefPoint2 */
IP[ ]	/* InterpolatePts */
IP[ ]	/* InterpolatePts */
IUP[0]	/* InterpolateUntPts */
IUP[1]	/* InterpolateUntPts */";
};
width = 575;
},
{
layerId = "D2DF310C-5735-4FF3-9903-0538932FD5C7";
shapes = (
{
closed = 1;
nodes = (
(525,522,l),
(437,522,l),
(437,195,l),
(423,159,o),
(372,100,o),
(306,66,o),
(269,66,qs),
(223,66,o),
(173,109,o),
(154,182,o),
(154,226,qs),
(154,522,l),
(66,522,l),
(66,209,ls),
(66,164,o),
(82,84,o),
(121,24,o),
(188,-10,o),
(238,-10,qs),
(279,-10,o),
(357,18,o),
(420,70,o),
(440,107,q),
(440,0,l),
(525,0,l)
);
}
);
width = 596;
},
{
layerId = "F0331135-C9C8-4C09-BCAA-87CFA41CFCF0";
shapes = (
{
closed = 1;
nodes = (
(572,526,l),
(382,526,l),
(382,204,l),
(367,182,o),
(336,158,o),
(307,150,o),
(295,150,qs),
(274,150,o),
(246,167,o),
(233,200,o),
(233,223,qs),
(233,526,l),
(43,526,l),
(43,180,ls),
(43,132,o),
(65,60,o),
(108,13,o),
(174,-10,o),
(218,-10,qs),
(252,-10,o),
(317,5,o),
(372,41,o),
(390,70,q),
(390,0,l),
(572,0,l)
);
}
);
width = 620;
}
);
note = u.ss08;
},
{
glyphname = w.ss09;
layers = (
{
layerId = m01;
shapes = (
{
closed = 1;
nodes = (
(768,519,l),
(746,519,l),
(573,30,l),
(410,519,l),
(388,519,l),
(225,30,l),
(52,519,l),
(30,519,l),
(216,0,l),
(234,0,l),
(399,493,l),
(564,0,l),
(582,0,l)
);
}
);
userData = {
assembly = "NPUSHB[ ]	/* 15 values pushed */
10 7 7 9 6 1 3 3 4 6 114 0 3 10 114
SVTCA[0]	/* SetFreedomAndProjectionVectorToAxis */
CALL[ ]	/* CallFunction */
SHP[0]	/* ShiftPointByLastPoint */
CALL[ ]	/* CallFunction */
SRP2[ ]	/* SetRefPoint2 */
SLOOP[ ]	/* SetLoopVariable */
IP[ ]	/* InterpolatePts */
SHP[1]	/* ShiftPointByLastPoint */
SRP1[ ]	/* SetRefPoint1 */
SHP[1]	/* ShiftPointByLastPoint */
IUP[0]	/* InterpolateUntPts */
IUP[1]	/* InterpolateUntPts */";
};
width = 798;
},
{
layerId = "D2DF310C-5735-4FF3-9903-0538932FD5C7";
shapes = (
{
closed = 1;
nodes = (
(823,522,l),
(732,522,l),
(591,108,l),
(463,522,l),
(379,522,l),
(251,108,l),
(110,522,l),
(18,522,l),
(201,0,l),
(294,0,l),
(421,387,l),
(547,0,l),
(641,0,l)
);
}
);
width = 842;
},
{
layerId = "F0331135-C9C8-4C09-BCAA-87CFA41CFCF0";
shapes = (
{
closed = 1;
nodes = (
(899,526,l),
(711,526,l),
(614,216,l),
(536,526,l),
(365,526,l),
(286,216,l),
(189,526,l),
(1,526,l),
(178,0,l),
(378,0,l),
(450,240,l),
(523,0,l),
(722,0,l)
);
}
);
width = 900;
}
);
note = w.ss09;
},
{
glyphname = y.ss10;
layers = (
{
layerId = m01;
shapes = (
{
closed = 1;
nodes = (
(271,25,l),
(42,519,l),
(20,519,l),
(261,0,l),
(173,-213,l),
(191,-213,l),
(510,519,l),
(488,519,l)
);
}
);
userData = {
assembly = "NPUSHB[ ]	/* 10 values pushed */
6 3 0 1 15 114 5 0 6 114
SVTCA[0]	/* SetFreedomAndProjectionVectorToAxis */
CALL[ ]	/* CallFunction */
SHP[0]	/* ShiftPointByLastPoint */
CALL[ ]	/* CallFunction */
SRP1[ ]	/* SetRefPoint1 */
IP[ ]	/* InterpolatePts */
IP[ ]	/* InterpolatePts */
IUP[0]	/* InterpolateUntPts */
IUP[1]	/* InterpolateUntPts */";
};
width = 535;
},
{
layerId = "D2DF310C-5735-4FF3-9903-0538932FD5C7";
shapes = (
{
closed = 1;
nodes = (
(281,79,l),
(104,522,l),
(12,522,l),
(233,0,l),
(147,-213,l),
(247,-213,l),
(528,522,l),
(444,522,l)
);
}
);
width = 547;
},
{
layerId = "F0331135-C9C8-4C09-BCAA-87CFA41CFCF0";
shapes = (
{
closed = 1;
nodes = (
(293,189,l),
(193,526,l),
(-2,526,l),
(189,0,l),
(106,-213,l),
(328,-213,l),
(551,526,l),
(374,526,l)
);
}
);
width = 555;
}
);
note = y.ss10;
},
{
glyphname = c_t;
kernLeft = c;
kernRight = t;
layers = (
{
layerId = m01;
shapes = (
{
closed = 1;
nodes = (
(807,39,o),
(759,15,o),
(724,15,qs),
(698,15,o),
(656,46,o),
(654,75,q),
(654,499,l),
(779,499,l),
(779,519,l),
(654,519,l),
(654,573,o),
(649,660,o),
(624,721,o),
(565,753,o),
(511,753,qs),
(448,753,o),
(381,674,o),
(381,620,qs),
(381,577,o),
(418,507,o),
(436,481,q),
(410,503,o),
(337,527,o),
(287,527,qs),
(234,527,o),
(145,483,o),
(81,407,o),
(46,310,o),
(46,258,qs),
(46,208,o),
(83,113,o),
(150,36,o),
(242,-10,o),
(296,-10,qs),
(334,-10,o),
(417,18,o),
(485,73,o),
(498,113,q),
(478,119,l),
(470,86,o),
(407,37,o),
(329,10,o),
(296,10,qs),
(248,10,o),
(165,50,o),
(101,120,o),
(66,209,o),
(66,258,qs),
(66,302,o),
(96,390,o),
(152,463,o),
(235,507,o),
(287,507,qs),
(346,507,o),
(442,458,o),
(471,404,q),
(490,411,l),
(484,424,o),
(456,471,o),
(424,531,o),
(401,593,o),
(401,620,qs),
(401,666,o),
(456,733,o),
(511,733,qs),
(561,733,o),
(612,702,o),
(631,645,o),
(633,567,o),
(634,519,q),
(559,519,l),
(559,499,l),
(634,499,l),
(634,75,ls),
(634,51,o),
(659,15,o),
(700,-5,o),
(724,-5,qs),
(752,-5,o),
(794,9,o),
(819,24,o),
(819,24,q),
(808,40,l)
);
}
);
userData = {
assembly = "NPUSHB[ ]	/* 29 values pushed */
17 67 67 61 25 26 26 29 58 7 114 44 43 43 39 48 11 114 75 9 9 72 12 6 114 79 4 11 114
SVTCA[0]	/* SetFreedomAndProjectionVectorToAxis */
CALL[ ]	/* CallFunction */
SHP[0]	/* ShiftPointByLastPoint */
CALL[ ]	/* CallFunction */
SHP[0]	/* ShiftPointByLastPoint */
SHP[0]	/* ShiftPointByLastPoint */
SRP1[ ]	/* SetRefPoint1 */
SHP[1]	/* ShiftPointByLastPoint */
CALL[ ]	/* CallFunction */
SHP[0]	/* ShiftPointByLastPoint */
SHP[0]	/* ShiftPointByLastPoint */
MDAP[1]	/* MoveDirectAbsPt */
SHP[1]	/* ShiftPointByLastPoint */
CALL[ ]	/* CallFunction */
SHP[0]	/* ShiftPointByLastPoint */
SHP[0]	/* ShiftPointByLastPoint */
MDAP[1]	/* MoveDirectAbsPt */
SHP[1]	/* ShiftPointByLastPoint */
IP[ ]	/* InterpolatePts */
SHP[0]	/* ShiftPointByLastPoint */
MDAP[1]	/* MoveDirectAbsPt */
SHP[1]	/* ShiftPointByLastPoint */
IUP[0]	/* InterpolateUntPts */
IUP[1]	/* InterpolateUntPts */";
};
width = 828;
},
{
layerId = "D2DF310C-5735-4FF3-9903-0538932FD5C7";
shapes = (
{
closed = 1;
nodes = (
(862,92,o),
(819,74,o),
(793,74,qs),
(770,74,o),
(736,101,o),
(734,129,q),
(734,453,l),
(850,453,l),
(850,522,l),
(734,522,l),
(734,568,o),
(728,649,o),
(699,710,o),
(630,744,o),
(568,744,qs),
(489,744,o),
(407,665,o),
(407,602,qs),
(407,570,o),
(432,512,o),
(445,488,q),
(416,508,o),
(348,531,o),
(299,531,qs),
(238,531,o),
(140,487,o),
(72,410,o),
(36,313,o),
(36,260,qs),
(36,208,o),
(73,112,o),
(143,35,o),
(241,-10,o),
(301,-10,qs),
(350,-10,o),
(440,21,o),
(509,80,o),
(525,121,q),
(439,147,l),
(431,122,o),
(384,86,o),
(327,66,o),
(301,66,qs),
(264,66,o),
(201,96,o),
(153,150,o),
(126,220,o),
(126,260,qs),
(126,297,o),
(149,367,o),
(194,422,o),
(257,455,o),
(296,455,qs),
(340,455,o),
(413,417,o),
(435,377,q),
(521,404,l),
(515,417,o),
(492,462,o),
(467,516,o),
(449,573,o),
(449,598,qs),
(449,640,o),
(495,700,o),
(545,700,qs),
(583,700,o),
(625,673,o),
(643,625,o),
(646,560,o),
(646,522,q),
(575,522,l),
(575,453,l),
(646,453,l),
(646,102,ls),
(646,65,o),
(678,16,o),
(732,-7,o),
(763,-7,qs),
(792,-7,o),
(842,5,o),
(880,21,o),
(890,26,q),
(870,96,l)
);
}
);
width = 901;
},
{
layerId = "F0331135-C9C8-4C09-BCAA-87CFA41CFCF0";
shapes = (
{
closed = 1;
nodes = (
(944,172,o),
(908,162,o),
(894,162,qs),
(875,162,o),
(853,183,o),
(853,209,qs),
(853,383,l),
(956,383,l),
(956,526,l),
(853,526,l),
(853,560,o),
(845,631,o),
(810,692,o),
(728,730,o),
(653,730,qs),
(550,730,o),
(444,651,o),
(444,576,qs),
(444,559,o),
(451,520,o),
(458,499,q),
(424,517,o),
(362,536,o),
(315,536,qs),
(241,536,o),
(130,492,o),
(56,415,o),
(19,318,o),
(19,264,qs),
(19,209,o),
(57,111,o),
(131,34,o),
(238,-10,o),
(308,-10,qs),
(372,-10,o),
(471,27,o),
(544,91,o),
(565,133,q),
(380,189,l),
(372,177,o),
(349,159,o),
(323,150,o),
(307,150,qs),
(288,150,o),
(254,165,o),
(228,194,o),
(214,236,o),
(214,263,qs),
(214,290,o),
(228,332,o),
(254,361,o),
(288,376,o),
(307,376,qs),
(330,376,o),
(367,356,o),
(380,337,q),
(565,393,l),
(559,407,o),
(543,447,o),
(529,495,o),
(520,544,o),
(520,566,qs),
(520,602,o),
(552,651,o),
(595,651,qs),
(615,651,o),
(641,638,o),
(656,608,o),
(663,561,o),
(663,526,q),
(598,526,l),
(598,383,l),
(663,383,l),
(663,142,ls),
(663,85,o),
(706,18,o),
(778,-11,o),
(821,-11,qs),
(850,-11,o),
(911,-1,o),
(970,18,o),
(996,29,q),
(962,179,l)
);
}
);
width = 1002;
}
);
note = c_t;
},
{
glyphname = f_f;
kernLeft = f;
kernRight = f;
layers = (
{
layerId = m01;
shapes = (
{
closed = 1;
nodes = (
(123,499,l),
(278,499,l),
(278,519,l),
(123,519,l),
(123,529,ls),
(123,551,o),
(134,603,o),
(162,650,o),
(212,680,o),
(250,680,qs),
(276,680,o),
(326,667,o),
(339,654,q),
(356,666,l),
(342,682,o),
(279,700,o),
(250,700,qs),
(196,700,o),
(131,648,o),
(103,570,o),
(103,529,qs),
(103,519,l),
(28,519,l),
(28,499,l),
(103,499,l),
(103,0,l),
(123,0,l)
);
},
{
closed = 1;
nodes = (
(330,499,l),
(485,499,l),
(485,519,l),
(330,519,l),
(330,540,ls),
(330,628,o),
(391,721,o),
(448,721,qs),
(471,721,o),
(514,706,o),
(526,694,q),
(542,706,l),
(529,721,o),
(476,740,o),
(447,740,qs),
(404,740,o),
(343,693,o),
(310,603,o),
(310,540,qs),
(310,519,l),
(235,519,l),
(235,499,l),
(310,499,l),
(310,0,l),
(330,0,l)
);
}
);
userData = {
assembly = "NPUSHB[ ]	/* 24 values pushed */
16 9 9 22 43 36 1 114 29 30 30 22 50 2 25 25 47 3 22 6 51 0 10 114
SVTCA[0]	/* SetFreedomAndProjectionVectorToAxis */
CALL[ ]	/* CallFunction */
SHP[0]	/* ShiftPointByLastPoint */
MIAP[1]	/* MoveIndirectAbsPt */
SHP[1]	/* ShiftPointByLastPoint */
SHP[1]	/* ShiftPointByLastPoint */
SHP[1]	/* ShiftPointByLastPoint */
SRP1[ ]	/* SetRefPoint1 */
SHP[1]	/* ShiftPointByLastPoint */
SHP[1]	/* ShiftPointByLastPoint */
SRP1[ ]	/* SetRefPoint1 */
SHP[1]	/* ShiftPointByLastPoint */
SRP1[ ]	/* SetRefPoint1 */
SHP[1]	/* ShiftPointByLastPoint */
CALL[ ]	/* CallFunction */
SHP[0]	/* ShiftPointByLastPoint */
SRP1[ ]	/* SetRefPoint1 */
IP[ ]	/* InterpolatePts */
RUTG[ ]	/* RoundUpToGrid */
MDAP[1]	/* MoveDirectAbsPt */
SHP[1]	/* ShiftPointByLastPoint */
IUP[0]	/* InterpolateUntPts */
IUP[1]	/* InterpolateUntPts */";
};
width = 537;
},
{
layerId = "D2DF310C-5735-4FF3-9903-0538932FD5C7";
shapes = (
{
closed = 1;
nodes = (
(187,453,l),
(326,453,l),
(326,522,l),
(187,522,l),
(187,529,ls),
(187,546,o),
(199,581,o),
(224,609,o),
(261,626,o),
(285,626,qs),
(305,626,o),
(341,618,o),
(363,604,q),
(387,672,l),
(361,685,o),
(306,702,o),
(268,702,qs),
(216,702,o),
(140,652,o),
(99,572,o),
(99,526,qs),
(99,522,l),
(28,522,l),
(28,453,l),
(99,453,l),
(99,0,l),
(187,0,l)
);
},
{
closed = 1;
nodes = (
(427,453,l),
(566,453,l),
(566,522,l),
(427,522,l),
(427,536,ls),
(427,598,o),
(474,665,o),
(517,665,qs),
(537,665,o),
(578,653,o),
(592,643,q),
(614,708,l),
(590,723,o),
(530,740,o),
(499,740,qs),
(450,740,o),
(378,690,o),
(339,597,o),
(339,533,qs),
(339,522,l),
(268,522,l),
(268,453,l),
(339,453,l),
(339,0,l),
(427,0,l)
);
}
);
width = 601;
},
{
layerId = "F0331135-C9C8-4C09-BCAA-87CFA41CFCF0";
shapes = (
{
closed = 1;
nodes = (
(275,322,l),
(390,322,l),
(390,465,l),
(275,465,l),
(275,495,ls),
(275,508,o),
(281,527,o),
(292,540,o),
(309,546,o),
(321,546,qs),
(341,546,o),
(394,532,o),
(416,522,q),
(449,666,l),
(401,686,o),
(317,706,o),
(281,706,qs),
(221,706,o),
(133,652,o),
(85,554,o),
(85,488,qs),
(85,465,l),
(20,465,l),
(20,322,l),
(85,322,l),
(85,0,l),
(275,0,l)
);
},
{
closed = 1;
nodes = (
(564,322,l),
(679,322,l),
(679,465,l),
(564,465,l),
(564,529,ls),
(564,555,o),
(587,580,o),
(610,580,qs),
(625,580,o),
(665,572,o),
(681,566,q),
(713,710,l),
(673,725,o),
(601,740,o),
(567,740,qs),
(509,740,o),
(422,686,o),
(374,588,o),
(374,522,qs),
(374,465,l),
(309,465,l),
(309,322,l),
(374,322,l),
(374,0,l),
(564,0,l)
);
}
);
width = 691;
}
);
note = f_f;
unicode = 64256;
},
{
glyphname = f_f_i;
kernLeft = f;
kernRight = i;
layers = (
{
layerId = m01;
shapes = (
{
closed = 1;
nodes = (
(123,499,l),
(278,499,l),
(278,519,l),
(123,519,l),
(123,529,ls),
(123,551,o),
(134,603,o),
(162,650,o),
(212,680,o),
(250,680,qs),
(276,680,o),
(326,667,o),
(339,654,q),
(356,666,l),
(342,682,o),
(279,700,o),
(250,700,qs),
(196,700,o),
(131,648,o),
(103,570,o),
(103,529,qs),
(103,519,l),
(28,519,l),
(28,499,l),
(103,499,l),
(103,0,l),
(123,0,l)
);
},
{
closed = 1;
nodes = (
(330,0,l),
(330,499,l),
(555,499,l),
(555,0,l),
(575,0,l),
(575,519,l),
(330,519,l),
(330,540,ls),
(330,581,o),
(358,664,o),
(421,720,o),
(472,720,qs),
(510,720,o),
(567,703,o),
(576,694,q),
(592,706,l),
(592,708,o),
(562,724,o),
(508,740,o),
(472,740,qs),
(426,740,o),
(363,702,o),
(326,641,o),
(310,572,o),
(310,540,qs),
(310,519,l),
(235,519,l),
(235,499,l),
(310,499,l),
(310,0,l)
);
}
);
userData = {
assembly = "NPUSHB[ ]	/* 26 values pushed */
16 9 9 22 44 36 1 114 54 27 27 49 30 30 22 1 25 25 4 22 6 52 56 56 0 10
SVTCA[0]	/* SetFreedomAndProjectionVectorToAxis */
MIAP[1]	/* MoveIndirectAbsPt */
SHP[0]	/* ShiftPointByLastPoint */
SRP1[ ]	/* SetRefPoint1 */
SHP[1]	/* ShiftPointByLastPoint */
MIAP[1]	/* MoveIndirectAbsPt */
SHP[1]	/* ShiftPointByLastPoint */
SHP[1]	/* ShiftPointByLastPoint */
SRP1[ ]	/* SetRefPoint1 */
SHP[1]	/* ShiftPointByLastPoint */
SRP1[ ]	/* SetRefPoint1 */
SHP[1]	/* ShiftPointByLastPoint */
SRP1[ ]	/* SetRefPoint1 */
SHP[1]	/* ShiftPointByLastPoint */
SHP[1]	/* ShiftPointByLastPoint */
SRP1[ ]	/* SetRefPoint1 */
SHP[1]	/* ShiftPointByLastPoint */
CALL[ ]	/* CallFunction */
SHP[0]	/* ShiftPointByLastPoint */
SRP2[ ]	/* SetRefPoint2 */
IP[ ]	/* InterpolatePts */
RUTG[ ]	/* RoundUpToGrid */
MDAP[1]	/* MoveDirectAbsPt */
SHP[1]	/* ShiftPointByLastPoint */
IUP[0]	/* InterpolateUntPts */
IUP[1]	/* InterpolateUntPts */";
};
width = 659;
},
{
layerId = "D2DF310C-5735-4FF3-9903-0538932FD5C7";
shapes = (
{
closed = 1;
nodes = (
(187,453,l),
(326,453,l),
(326,522,l),
(187,522,l),
(187,529,ls),
(187,546,o),
(199,581,o),
(224,609,o),
(261,626,o),
(285,626,qs),
(305,626,o),
(341,618,o),
(363,604,q),
(387,672,l),
(361,685,o),
(306,702,o),
(268,702,qs),
(216,702,o),
(140,652,o),
(99,572,o),
(99,526,qs),
(99,522,l),
(28,522,l),
(28,453,l),
(99,453,l),
(99,0,l),
(187,0,l)
);
},
{
closed = 1;
nodes = (
(427,0,l),
(427,453,l),
(606,453,l),
(606,0,l),
(694,0,l),
(694,522,l),
(427,522,l),
(427,536,ls),
(427,567,o),
(450,626,o),
(499,664,o),
(537,664,qs),
(574,664,o),
(639,640,o),
(658,623,q),
(696,688,l),
(680,700,o),
(631,724,o),
(569,740,o),
(532,740,qs),
(483,740,o),
(411,705,o),
(363,645,o),
(339,572,o),
(339,533,qs),
(339,522,l),
(268,522,l),
(268,453,l),
(339,453,l),
(339,0,l)
);
}
);
width = 765;
},
{
layerId = "F0331135-C9C8-4C09-BCAA-87CFA41CFCF0";
shapes = (
{
closed = 1;
nodes = (
(275,322,l),
(390,322,l),
(390,465,l),
(275,465,l),
(275,495,ls),
(275,508,o),
(281,527,o),
(292,540,o),
(309,546,o),
(321,546,qs),
(341,546,o),
(394,532,o),
(416,522,q),
(449,666,l),
(401,686,o),
(317,706,o),
(281,706,qs),
(221,706,o),
(133,652,o),
(85,554,o),
(85,488,qs),
(85,465,l),
(20,465,l),
(20,322,l),
(85,322,l),
(85,0,l),
(275,0,l)
);
},
{
closed = 1;
nodes = (
(565,0,l),
(565,322,l),
(674,322,l),
(674,0,l),
(864,0,l),
(864,465,l),
(565,465,l),
(565,529,ls),
(565,546,o),
(580,569,o),
(608,580,o),
(627,580,qs),
(662,580,o),
(738,546,o),
(772,516,q),
(844,660,l),
(802,687,o),
(726,723,o),
(653,740,o),
(614,740,qs),
(562,740,o),
(474,709,o),
(410,652,o),
(375,572,o),
(375,522,qs),
(375,465,l),
(310,465,l),
(310,322,l),
(375,322,l),
(375,0,l)
);
}
);
width = 911;
}
);
note = f_f_i;
unicode = 64259;
},
{
glyphname = f_f_l;
kernLeft = f;
kernRight = l;
layers = (
{
layerId = m01;
shapes = (
{
closed = 1;
nodes = (
(123,499,l),
(278,499,l),
(278,519,l),
(123,519,l),
(123,529,ls),
(123,551,o),
(135,603,o),
(165,650,o),
(218,680,o),
(259,680,qs),
(286,680,o),
(327,666,o),
(339,654,q),
(356,666,l),
(342,681,o),
(290,700,o),
(259,700,qs),
(201,700,o),
(133,648,o),
(103,570,o),
(103,529,qs),
(103,519,l),
(28,519,l),
(28,499,l),
(103,499,l),
(103,0,l),
(123,0,l)
);
},
{
closed = 1;
nodes = (
(720,-1,o),
(741,4,o),
(741,4,q),
(732,23,l),
(731,23,o),
(691,14,o),
(671,14,qs),
(642,14,o),
(611,55,o),
(611,77,qs),
(611,614,ls),
(611,667,o),
(536,740,o),
(467,740,qs),
(412,740,o),
(345,685,o),
(315,595,o),
(315,540,qs),
(315,519,l),
(240,519,l),
(240,499,l),
(315,499,l),
(315,0,l),
(335,0,l),
(335,499,l),
(460,499,l),
(460,519,l),
(335,519,l),
(335,540,ls),
(335,583,o),
(361,665,o),
(420,720,o),
(467,720,qs),
(512,720,o),
(566,689,o),
(591,640,o),
(591,613,qs),
(591,77,ls),
(591,44,o),
(633,-5,o),
(670,-5,qs),
(688,-5,o)
);
}
);
userData = {
assembly = "NPUSHB[ ]	/* 32 values pushed */
13 12 12 16 16 9 9 4 35 54 1 114 61 27 11 114 40 49 49 4 43 46 46 25 1 1 22 4 6 45 0 10
SVTCA[0]	/* SetFreedomAndProjectionVectorToAxis */
MIAP[1]	/* MoveIndirectAbsPt */
SHP[0]	/* ShiftPointByLastPoint */
MIAP[1]	/* MoveIndirectAbsPt */
SHP[1]	/* ShiftPointByLastPoint */
SHP[1]	/* ShiftPointByLastPoint */
SRP1[ ]	/* SetRefPoint1 */
SHP[1]	/* ShiftPointByLastPoint */
SHP[1]	/* ShiftPointByLastPoint */
SRP1[ ]	/* SetRefPoint1 */
SHP[1]	/* ShiftPointByLastPoint */
SRP1[ ]	/* SetRefPoint1 */
SHP[1]	/* ShiftPointByLastPoint */
SRP1[ ]	/* SetRefPoint1 */
SHP[1]	/* ShiftPointByLastPoint */
CALL[ ]	/* CallFunction */
SHP[0]	/* ShiftPointByLastPoint */
CALL[ ]	/* CallFunction */
SHP[0]	/* ShiftPointByLastPoint */
SRP1[ ]	/* SetRefPoint1 */
IP[ ]	/* InterpolatePts */
RUTG[ ]	/* RoundUpToGrid */
MDAP[1]	/* MoveDirectAbsPt */
SHP[1]	/* ShiftPointByLastPoint */
SRP1[ ]	/* SetRefPoint1 */
SHP[1]	/* ShiftPointByLastPoint */
SRP1[ ]	/* SetRefPoint1 */
SHP[1]	/* ShiftPointByLastPoint */
IUP[0]	/* InterpolateUntPts */
IUP[1]	/* InterpolateUntPts */";
};
width = 740;
},
{
layerId = "D2DF310C-5735-4FF3-9903-0538932FD5C7";
shapes = (
{
closed = 1;
nodes = (
(187,453,l),
(326,453,l),
(326,522,l),
(187,522,l),
(187,529,ls),
(187,546,o),
(199,581,o),
(224,609,o),
(261,626,o),
(285,626,qs),
(305,626,o),
(341,618,o),
(363,604,q),
(387,672,l),
(361,685,o),
(306,702,o),
(268,702,qs),
(216,702,o),
(140,652,o),
(99,572,o),
(99,526,qs),
(99,522,l),
(28,522,l),
(28,453,l),
(99,453,l),
(99,0,l),
(187,0,l)
);
},
{
closed = 1;
nodes = (
(800,-1,o),
(838,8,o),
(852,14,q),
(838,86,l),
(825,81,o),
(787,72,o),
(766,72,qs),
(749,72,o),
(725,92,o),
(725,135,qs),
(725,572,ls),
(725,646,o),
(630,740,o),
(534,740,qs),
(471,740,o),
(386,690,o),
(342,601,o),
(342,540,qs),
(342,522,l),
(271,522,l),
(271,453,l),
(342,453,l),
(342,0,l),
(430,0,l),
(430,453,l),
(533,453,l),
(533,522,l),
(430,522,l),
(430,531,ls),
(431,570,o),
(453,630,o),
(499,664,o),
(535,664,qs),
(575,664,o),
(619,630,o),
(637,579,o),
(637,553,qs),
(637,103,ls),
(637,51,o),
(696,-7,o),
(747,-7,qs),
(763,-7,o)
);
}
);
width = 849;
},
{
layerId = "F0331135-C9C8-4C09-BCAA-87CFA41CFCF0";
shapes = (
{
closed = 1;
nodes = (
(275,322,l),
(390,322,l),
(390,465,l),
(275,465,l),
(275,495,ls),
(275,508,o),
(281,527,o),
(292,540,o),
(309,546,o),
(321,546,qs),
(341,546,o),
(394,532,o),
(416,522,q),
(449,666,l),
(401,686,o),
(317,706,o),
(281,706,qs),
(221,706,o),
(133,652,o),
(85,554,o),
(85,488,qs),
(85,465,l),
(20,465,l),
(20,322,l),
(85,322,l),
(85,0,l),
(275,0,l)
);
},
{
closed = 1;
nodes = (
(960,6,o),
(1007,23,o),
(1008,24,q),
(985,176,l),
(984,176,o),
(945,160,o),
(928,160,qs),
(904,160,o),
(885,198,o),
(885,217,qs),
(885,510,ls),
(885,615,o),
(761,740,o),
(625,740,qs),
(551,740,o),
(437,698,o),
(373,610,o),
(373,540,qs),
(373,465,l),
(308,465,l),
(308,322,l),
(373,322,l),
(373,0,l),
(563,0,l),
(563,322,l),
(632,322,l),
(632,465,l),
(563,465,l),
(563,494,ls),
(563,520,o),
(576,558,o),
(606,580,o),
(633,580,qs),
(660,580,o),
(687,557,o),
(695,509,o),
(695,473,qs),
(695,117,ls),
(695,66,o),
(780,-9,o),
(855,-9,qs),
(891,-9,o)
);
}
);
width = 1006;
}
);
note = f_f_l;
unicode = 64260;
},
